%TF.GenerationSoftware,KiCad,Pcbnew,7.0.5-0*%
%TF.CreationDate,2023-06-18T09:02:34-05:00*%
%TF.ProjectId,Nifty Numpad,4e696674-7920-44e7-956d-7061642e6b69,rev?*%
%TF.SameCoordinates,Original*%
%TF.FileFunction,Paste,Bot*%
%TF.FilePolarity,Positive*%
%FSLAX46Y46*%
G04 Gerber Fmt 4.6, Leading zero omitted, Abs format (unit mm)*
G04 Created by KiCad (PCBNEW 7.0.5-0) date 2023-06-18 09:02:34*
%MOMM*%
%LPD*%
G01*
G04 APERTURE LIST*
G04 Aperture macros list*
%AMRoundRect*
0 Rectangle with rounded corners*
0 $1 Rounding radius*
0 $2 $3 $4 $5 $6 $7 $8 $9 X,Y pos of 4 corners*
0 Add a 4 corners polygon primitive as box body*
4,1,4,$2,$3,$4,$5,$6,$7,$8,$9,$2,$3,0*
0 Add four circle primitives for the rounded corners*
1,1,$1+$1,$2,$3*
1,1,$1+$1,$4,$5*
1,1,$1+$1,$6,$7*
1,1,$1+$1,$8,$9*
0 Add four rect primitives between the rounded corners*
20,1,$1+$1,$2,$3,$4,$5,0*
20,1,$1+$1,$4,$5,$6,$7,0*
20,1,$1+$1,$6,$7,$8,$9,0*
20,1,$1+$1,$8,$9,$2,$3,0*%
G04 Aperture macros list end*
%ADD10RoundRect,0.375000X0.625000X0.375000X-0.625000X0.375000X-0.625000X-0.375000X0.625000X-0.375000X0*%
%ADD11RoundRect,0.375000X-0.625000X-0.375000X0.625000X-0.375000X0.625000X0.375000X-0.625000X0.375000X0*%
%ADD12RoundRect,0.250000X-1.025000X-1.000000X1.025000X-1.000000X1.025000X1.000000X-1.025000X1.000000X0*%
%ADD13R,2.000000X4.500000*%
%ADD14RoundRect,0.225000X0.225000X0.250000X-0.225000X0.250000X-0.225000X-0.250000X0.225000X-0.250000X0*%
%ADD15RoundRect,0.205000X-0.395000X-0.205000X0.395000X-0.205000X0.395000X0.205000X-0.395000X0.205000X0*%
%ADD16RoundRect,0.225000X0.375000X-0.225000X0.375000X0.225000X-0.375000X0.225000X-0.375000X-0.225000X0*%
%ADD17R,0.600000X1.450000*%
%ADD18R,0.300000X1.450000*%
%ADD19RoundRect,0.200000X-0.275000X0.200000X-0.275000X-0.200000X0.275000X-0.200000X0.275000X0.200000X0*%
%ADD20RoundRect,0.225000X0.250000X-0.225000X0.250000X0.225000X-0.250000X0.225000X-0.250000X-0.225000X0*%
%ADD21RoundRect,0.225000X-0.225000X-0.250000X0.225000X-0.250000X0.225000X0.250000X-0.225000X0.250000X0*%
%ADD22RoundRect,0.225000X-0.250000X0.225000X-0.250000X-0.225000X0.250000X-0.225000X0.250000X0.225000X0*%
%ADD23R,0.650000X0.400000*%
%ADD24RoundRect,0.249999X0.395001X0.395001X-0.395001X0.395001X-0.395001X-0.395001X0.395001X-0.395001X0*%
%ADD25RoundRect,0.050000X0.387500X0.050000X-0.387500X0.050000X-0.387500X-0.050000X0.387500X-0.050000X0*%
%ADD26RoundRect,0.050000X0.050000X0.387500X-0.050000X0.387500X-0.050000X-0.387500X0.050000X-0.387500X0*%
%ADD27RoundRect,0.150000X-0.650000X-0.150000X0.650000X-0.150000X0.650000X0.150000X-0.650000X0.150000X0*%
%ADD28RoundRect,0.200000X0.275000X-0.200000X0.275000X0.200000X-0.275000X0.200000X-0.275000X-0.200000X0*%
%ADD29R,0.700000X1.000000*%
%ADD30R,0.700000X0.600000*%
%ADD31RoundRect,0.200000X0.200000X0.275000X-0.200000X0.275000X-0.200000X-0.275000X0.200000X-0.275000X0*%
G04 APERTURE END LIST*
D10*
%TO.C,SW101*%
X229750000Y-97900100D03*
X221550000Y-97900100D03*
%TD*%
D11*
%TO.C,SW102*%
X170350000Y-95449900D03*
X178550000Y-95449900D03*
%TD*%
D12*
%TO.C,SW314*%
X173915000Y-128460000D03*
X186842000Y-125920000D03*
%TD*%
%TO.C,SW313*%
X154915000Y-128460000D03*
X167842000Y-125920000D03*
%TD*%
%TO.C,SW318*%
X254665000Y-137960000D03*
X267592000Y-135420000D03*
%TD*%
%TO.C,SW310*%
X216665000Y-109460000D03*
X229592000Y-106920000D03*
%TD*%
%TO.C,SW308*%
X173915000Y-109460000D03*
X186842000Y-106920000D03*
%TD*%
%TO.C,SW304*%
X216665000Y-80960000D03*
X229592000Y-78420000D03*
%TD*%
%TO.C,SW307*%
X154915000Y-109460000D03*
X167842000Y-106920000D03*
%TD*%
%TO.C,SW305*%
X235665000Y-80960000D03*
X248592000Y-78420000D03*
%TD*%
%TO.C,SW333*%
X235665000Y-185460000D03*
X248592000Y-182920000D03*
%TD*%
%TO.C,SW332*%
X207165000Y-185460000D03*
X220092000Y-182920000D03*
%TD*%
%TO.C,SW330*%
X154915000Y-185460000D03*
X167842000Y-182920000D03*
%TD*%
%TO.C,SW325*%
X173915000Y-166460000D03*
X186842000Y-163920000D03*
%TD*%
%TO.C,SW312*%
X254665000Y-109460000D03*
X267592000Y-106920000D03*
%TD*%
%TO.C,SW320*%
X173915000Y-147460000D03*
X186842000Y-144920000D03*
%TD*%
%TO.C,SW323*%
X235665000Y-147460000D03*
X248592000Y-144920000D03*
%TD*%
%TO.C,SW315*%
X197665000Y-128460000D03*
X210592000Y-125920000D03*
%TD*%
%TO.C,SW303*%
X197665000Y-80960000D03*
X210592000Y-78420000D03*
%TD*%
%TO.C,SW324*%
X154915000Y-166460000D03*
X167842000Y-163920000D03*
%TD*%
%TO.C,SW302*%
X173915000Y-80960000D03*
X186842000Y-78420000D03*
%TD*%
%TO.C,SW321*%
X197665000Y-147460000D03*
X210592000Y-144920000D03*
%TD*%
%TO.C,SW309*%
X197665000Y-109460000D03*
X210592000Y-106920000D03*
%TD*%
%TO.C,SW322*%
X216665000Y-147460000D03*
X229592000Y-144920000D03*
%TD*%
%TO.C,SW331*%
X173915000Y-185460000D03*
X186842000Y-182920000D03*
%TD*%
%TO.C,SW316*%
X216665000Y-128460000D03*
X229592000Y-125920000D03*
%TD*%
%TO.C,SW328*%
X235665000Y-166460000D03*
X248592000Y-163920000D03*
%TD*%
%TO.C,SW306*%
X254665000Y-80960000D03*
X267592000Y-78420000D03*
%TD*%
%TO.C,SW317*%
X235665000Y-128460000D03*
X248592000Y-125920000D03*
%TD*%
%TO.C,SW319*%
X154915000Y-147460000D03*
X167842000Y-144920000D03*
%TD*%
%TO.C,SW329*%
X254665000Y-175960000D03*
X267592000Y-173420000D03*
%TD*%
%TO.C,SW301*%
X154915000Y-80960000D03*
X167842000Y-78420000D03*
%TD*%
%TO.C,SW311*%
X235665000Y-109460000D03*
X248592000Y-106920000D03*
%TD*%
%TO.C,SW326*%
X197665000Y-166460000D03*
X210592000Y-163920000D03*
%TD*%
%TO.C,SW327*%
X216665000Y-166460000D03*
X229592000Y-163920000D03*
%TD*%
D13*
%TO.C,Y101*%
X191100000Y-116350000D03*
X191100000Y-107850000D03*
%TD*%
D14*
%TO.C,C108*%
X187175000Y-93700000D03*
X185625000Y-93700000D03*
%TD*%
%TO.C,C106*%
X187175000Y-97000000D03*
X185625000Y-97000000D03*
%TD*%
D15*
%TO.C,D229*%
X259100000Y-183750000D03*
X259100000Y-182250000D03*
X264400000Y-182250000D03*
X264400000Y-183750000D03*
%TD*%
D16*
%TO.C,D319*%
X154800000Y-155650000D03*
X154800000Y-152350000D03*
%TD*%
D17*
%TO.C,J102*%
X189625000Y-74345000D03*
X190425000Y-74345000D03*
D18*
X191625000Y-74345000D03*
X192625000Y-74345000D03*
X193125000Y-74345000D03*
X194125000Y-74345000D03*
D17*
X195325000Y-74345000D03*
X196125000Y-74345000D03*
X196125000Y-74345000D03*
X195325000Y-74345000D03*
D18*
X194625000Y-74345000D03*
X193625000Y-74345000D03*
X192125000Y-74345000D03*
X191125000Y-74345000D03*
D17*
X190425000Y-74345000D03*
X189625000Y-74345000D03*
%TD*%
D15*
%TO.C,D217*%
X240100000Y-136250000D03*
X240100000Y-134750000D03*
X245400000Y-134750000D03*
X245400000Y-136250000D03*
%TD*%
%TO.C,D220*%
X178350000Y-155250000D03*
X178350000Y-153750000D03*
X183650000Y-153750000D03*
X183650000Y-155250000D03*
%TD*%
D19*
%TO.C,R106*%
X190200000Y-88925000D03*
X190200000Y-90575000D03*
%TD*%
D15*
%TO.C,D205*%
X240100000Y-88750000D03*
X240100000Y-87250000D03*
X245400000Y-87250000D03*
X245400000Y-88750000D03*
%TD*%
D20*
%TO.C,C115*%
X188650000Y-92125000D03*
X188650000Y-90575000D03*
%TD*%
D15*
%TO.C,D215*%
X202100000Y-136250000D03*
X202100000Y-134750000D03*
X207400000Y-134750000D03*
X207400000Y-136250000D03*
%TD*%
D21*
%TO.C,C233*%
X247275000Y-191750000D03*
X248825000Y-191750000D03*
%TD*%
%TO.C,C208*%
X185525000Y-115750000D03*
X187075000Y-115750000D03*
%TD*%
%TO.C,C229*%
X266275000Y-182250000D03*
X267825000Y-182250000D03*
%TD*%
%TO.C,C222*%
X228275000Y-153750000D03*
X229825000Y-153750000D03*
%TD*%
D16*
%TO.C,D321*%
X197550000Y-155650000D03*
X197550000Y-152350000D03*
%TD*%
D21*
%TO.C,C224*%
X166525000Y-172750000D03*
X168075000Y-172750000D03*
%TD*%
D15*
%TO.C,D202*%
X178350000Y-88750000D03*
X178350000Y-87250000D03*
X183650000Y-87250000D03*
X183650000Y-88750000D03*
%TD*%
D20*
%TO.C,C107*%
X193500000Y-90525000D03*
X193500000Y-88975000D03*
%TD*%
D21*
%TO.C,C209*%
X209275000Y-115750000D03*
X210825000Y-115750000D03*
%TD*%
D16*
%TO.C,D302*%
X173800000Y-89150000D03*
X173800000Y-85850000D03*
%TD*%
D19*
%TO.C,R101*%
X195000000Y-76550000D03*
X195000000Y-78200000D03*
%TD*%
D22*
%TO.C,C111*%
X199650000Y-99325000D03*
X199650000Y-100875000D03*
%TD*%
D16*
%TO.C,D323*%
X235550000Y-155650000D03*
X235550000Y-152350000D03*
%TD*%
%TO.C,D316*%
X216550000Y-136650000D03*
X216550000Y-133350000D03*
%TD*%
%TO.C,D326*%
X197550000Y-174650000D03*
X197550000Y-171350000D03*
%TD*%
D15*
%TO.C,D201*%
X159350000Y-88750000D03*
X159350000Y-87250000D03*
X164650000Y-87250000D03*
X164650000Y-88750000D03*
%TD*%
%TO.C,D212*%
X259100000Y-117250000D03*
X259100000Y-115750000D03*
X264400000Y-115750000D03*
X264400000Y-117250000D03*
%TD*%
%TO.C,D226*%
X202100000Y-174250000D03*
X202100000Y-172750000D03*
X207400000Y-172750000D03*
X207400000Y-174250000D03*
%TD*%
D16*
%TO.C,D332*%
X207050000Y-193650000D03*
X207050000Y-190350000D03*
%TD*%
D21*
%TO.C,C113*%
X182425000Y-101600000D03*
X183975000Y-101600000D03*
%TD*%
D23*
%TO.C,U101*%
X182050000Y-92400000D03*
X182050000Y-91750000D03*
X182050000Y-91100000D03*
X183950000Y-91100000D03*
X183950000Y-92400000D03*
%TD*%
%TO.C,U103*%
X180550000Y-99950000D03*
X180550000Y-99300000D03*
X180550000Y-98650000D03*
X182450000Y-98650000D03*
X182450000Y-99300000D03*
X182450000Y-99950000D03*
%TD*%
D16*
%TO.C,D308*%
X173800000Y-117650000D03*
X173800000Y-114350000D03*
%TD*%
%TO.C,D314*%
X173800000Y-136650000D03*
X173800000Y-133350000D03*
%TD*%
D15*
%TO.C,D219*%
X159350000Y-155250000D03*
X159350000Y-153750000D03*
X164650000Y-153750000D03*
X164650000Y-155250000D03*
%TD*%
%TO.C,D204*%
X221100000Y-88750000D03*
X221100000Y-87250000D03*
X226400000Y-87250000D03*
X226400000Y-88750000D03*
%TD*%
D16*
%TO.C,D317*%
X235550000Y-136650000D03*
X235550000Y-133350000D03*
%TD*%
D21*
%TO.C,C228*%
X247275000Y-172750000D03*
X248825000Y-172750000D03*
%TD*%
D15*
%TO.C,D211*%
X240100000Y-117250000D03*
X240100000Y-115750000D03*
X245400000Y-115750000D03*
X245400000Y-117250000D03*
%TD*%
D20*
%TO.C,C103*%
X185700000Y-92125000D03*
X185700000Y-90575000D03*
%TD*%
D14*
%TO.C,C116*%
X187175000Y-95350000D03*
X185625000Y-95350000D03*
%TD*%
D21*
%TO.C,C225*%
X185525000Y-172750000D03*
X187075000Y-172750000D03*
%TD*%
D22*
%TO.C,C110*%
X192500000Y-102925000D03*
X192500000Y-104475000D03*
%TD*%
D21*
%TO.C,C212*%
X266275000Y-115750000D03*
X267825000Y-115750000D03*
%TD*%
%TO.C,C101*%
X196700000Y-76625000D03*
X198250000Y-76625000D03*
%TD*%
%TO.C,C203*%
X209275000Y-87250000D03*
X210825000Y-87250000D03*
%TD*%
D20*
%TO.C,C105*%
X195150000Y-90525000D03*
X195150000Y-88975000D03*
%TD*%
D16*
%TO.C,D305*%
X235550000Y-89150000D03*
X235550000Y-85850000D03*
%TD*%
D15*
%TO.C,D206*%
X259100000Y-88750000D03*
X259100000Y-87250000D03*
X264400000Y-87250000D03*
X264400000Y-88750000D03*
%TD*%
%TO.C,D224*%
X159350000Y-174250000D03*
X159350000Y-172750000D03*
X164650000Y-172750000D03*
X164650000Y-174250000D03*
%TD*%
D24*
%TO.C,U104*%
X193650000Y-98400000D03*
X193650000Y-96800000D03*
X192050000Y-98400000D03*
X192050000Y-96800000D03*
D25*
X196287500Y-95000000D03*
X196287500Y-95400000D03*
X196287500Y-95800000D03*
X196287500Y-96200000D03*
X196287500Y-96600000D03*
X196287500Y-97000000D03*
X196287500Y-97400000D03*
X196287500Y-97800000D03*
X196287500Y-98200000D03*
X196287500Y-98600000D03*
X196287500Y-99000000D03*
X196287500Y-99400000D03*
X196287500Y-99800000D03*
X196287500Y-100200000D03*
D26*
X195450000Y-101037500D03*
X195050000Y-101037500D03*
X194650000Y-101037500D03*
X194250000Y-101037500D03*
X193850000Y-101037500D03*
X193450000Y-101037500D03*
X193050000Y-101037500D03*
X192650000Y-101037500D03*
X192250000Y-101037500D03*
X191850000Y-101037500D03*
X191450000Y-101037500D03*
X191050000Y-101037500D03*
X190650000Y-101037500D03*
X190250000Y-101037500D03*
D25*
X189412500Y-100200000D03*
X189412500Y-99800000D03*
X189412500Y-99400000D03*
X189412500Y-99000000D03*
X189412500Y-98600000D03*
X189412500Y-98200000D03*
X189412500Y-97800000D03*
X189412500Y-97400000D03*
X189412500Y-97000000D03*
X189412500Y-96600000D03*
X189412500Y-96200000D03*
X189412500Y-95800000D03*
X189412500Y-95400000D03*
X189412500Y-95000000D03*
D26*
X190250000Y-94162500D03*
X190650000Y-94162500D03*
X191050000Y-94162500D03*
X191450000Y-94162500D03*
X191850000Y-94162500D03*
X192250000Y-94162500D03*
X192650000Y-94162500D03*
X193050000Y-94162500D03*
X193450000Y-94162500D03*
X193850000Y-94162500D03*
X194250000Y-94162500D03*
X194650000Y-94162500D03*
X195050000Y-94162500D03*
X195450000Y-94162500D03*
%TD*%
D21*
%TO.C,C205*%
X247275000Y-87250000D03*
X248825000Y-87250000D03*
%TD*%
D16*
%TO.C,D331*%
X173800000Y-193650000D03*
X173800000Y-190350000D03*
%TD*%
D14*
%TO.C,C117*%
X206425000Y-99350000D03*
X204875000Y-99350000D03*
%TD*%
D15*
%TO.C,D232*%
X211600000Y-193250000D03*
X211600000Y-191750000D03*
X216900000Y-191750000D03*
X216900000Y-193250000D03*
%TD*%
D22*
%TO.C,C112*%
X198000000Y-99325000D03*
X198000000Y-100875000D03*
%TD*%
D16*
%TO.C,D312*%
X254550000Y-117650000D03*
X254550000Y-114350000D03*
%TD*%
%TO.C,D306*%
X254550000Y-89150000D03*
X254550000Y-85850000D03*
%TD*%
D14*
%TO.C,C114*%
X180575000Y-101600000D03*
X179025000Y-101600000D03*
%TD*%
D15*
%TO.C,D213*%
X159350000Y-136250000D03*
X159350000Y-134750000D03*
X164650000Y-134750000D03*
X164650000Y-136250000D03*
%TD*%
D16*
%TO.C,D303*%
X197550000Y-89150000D03*
X197550000Y-85850000D03*
%TD*%
D15*
%TO.C,D233*%
X240100000Y-193250000D03*
X240100000Y-191750000D03*
X245400000Y-191750000D03*
X245400000Y-193250000D03*
%TD*%
%TO.C,D207*%
X159350000Y-117250000D03*
X159350000Y-115750000D03*
X164650000Y-115750000D03*
X164650000Y-117250000D03*
%TD*%
D21*
%TO.C,C219*%
X166525000Y-153750000D03*
X168075000Y-153750000D03*
%TD*%
D16*
%TO.C,D309*%
X197550000Y-117650000D03*
X197550000Y-114350000D03*
%TD*%
%TO.C,D313*%
X154800000Y-136650000D03*
X154800000Y-133350000D03*
%TD*%
D21*
%TO.C,C231*%
X185525000Y-191750000D03*
X187075000Y-191750000D03*
%TD*%
%TO.C,C223*%
X247275000Y-153750000D03*
X248825000Y-153750000D03*
%TD*%
D16*
%TO.C,D311*%
X235550000Y-117650000D03*
X235550000Y-114350000D03*
%TD*%
D15*
%TO.C,D231*%
X178350000Y-193250000D03*
X178350000Y-191750000D03*
X183650000Y-191750000D03*
X183650000Y-193250000D03*
%TD*%
D16*
%TO.C,D333*%
X235550000Y-193650000D03*
X235550000Y-190350000D03*
%TD*%
%TO.C,D318*%
X254550000Y-146150000D03*
X254550000Y-142850000D03*
%TD*%
D21*
%TO.C,C230*%
X166525000Y-191750000D03*
X168075000Y-191750000D03*
%TD*%
D22*
%TO.C,C104*%
X190850000Y-102925000D03*
X190850000Y-104475000D03*
%TD*%
D21*
%TO.C,C201*%
X166525000Y-87250000D03*
X168075000Y-87250000D03*
%TD*%
D16*
%TO.C,D304*%
X216550000Y-89150000D03*
X216550000Y-85850000D03*
%TD*%
%TO.C,D301*%
X154800000Y-89150000D03*
X154800000Y-85850000D03*
%TD*%
D15*
%TO.C,D218*%
X259100000Y-145750000D03*
X259100000Y-144250000D03*
X264400000Y-144250000D03*
X264400000Y-145750000D03*
%TD*%
D21*
%TO.C,C207*%
X166525000Y-115750000D03*
X168075000Y-115750000D03*
%TD*%
D27*
%TO.C,U105*%
X199100000Y-97555000D03*
X199100000Y-96285000D03*
X199100000Y-95015000D03*
X199100000Y-93745000D03*
X206300000Y-93745000D03*
X206300000Y-95015000D03*
X206300000Y-96285000D03*
X206300000Y-97555000D03*
%TD*%
D15*
%TO.C,D222*%
X221100000Y-155250000D03*
X221100000Y-153750000D03*
X226400000Y-153750000D03*
X226400000Y-155250000D03*
%TD*%
D21*
%TO.C,C214*%
X185525000Y-134750000D03*
X187075000Y-134750000D03*
%TD*%
%TO.C,C204*%
X228275000Y-87250000D03*
X229825000Y-87250000D03*
%TD*%
%TO.C,C221*%
X209275000Y-153750000D03*
X210825000Y-153750000D03*
%TD*%
D16*
%TO.C,D325*%
X173800000Y-174650000D03*
X173800000Y-171350000D03*
%TD*%
D15*
%TO.C,D230*%
X159350000Y-193250000D03*
X159350000Y-191750000D03*
X164650000Y-191750000D03*
X164650000Y-193250000D03*
%TD*%
D21*
%TO.C,C217*%
X247275000Y-134750000D03*
X248825000Y-134750000D03*
%TD*%
D16*
%TO.C,D328*%
X235550000Y-174650000D03*
X235550000Y-171350000D03*
%TD*%
D21*
%TO.C,C211*%
X247275000Y-115750000D03*
X248825000Y-115750000D03*
%TD*%
%TO.C,C210*%
X228275000Y-115750000D03*
X229825000Y-115750000D03*
%TD*%
%TO.C,C226*%
X209275000Y-172750000D03*
X210825000Y-172750000D03*
%TD*%
D19*
%TO.C,R102*%
X189975000Y-76550000D03*
X189975000Y-78200000D03*
%TD*%
D15*
%TO.C,D221*%
X202100000Y-155250000D03*
X202100000Y-153750000D03*
X207400000Y-153750000D03*
X207400000Y-155250000D03*
%TD*%
%TO.C,D227*%
X221100000Y-174250000D03*
X221100000Y-172750000D03*
X226400000Y-172750000D03*
X226400000Y-174250000D03*
%TD*%
D16*
%TO.C,D329*%
X254550000Y-184150000D03*
X254550000Y-180850000D03*
%TD*%
D21*
%TO.C,C215*%
X209275000Y-134750000D03*
X210825000Y-134750000D03*
%TD*%
D28*
%TO.C,R103*%
X202950000Y-100925000D03*
X202950000Y-99275000D03*
%TD*%
D16*
%TO.C,D327*%
X216550000Y-174650000D03*
X216550000Y-171350000D03*
%TD*%
%TO.C,D315*%
X197550000Y-136650000D03*
X197550000Y-133350000D03*
%TD*%
D15*
%TO.C,D209*%
X202100000Y-117250000D03*
X202100000Y-115750000D03*
X207400000Y-115750000D03*
X207400000Y-117250000D03*
%TD*%
D21*
%TO.C,C227*%
X228275000Y-172750000D03*
X229825000Y-172750000D03*
%TD*%
D28*
%TO.C,R108*%
X194100000Y-104525000D03*
X194100000Y-102875000D03*
%TD*%
D16*
%TO.C,D310*%
X216550000Y-117650000D03*
X216550000Y-114350000D03*
%TD*%
D15*
%TO.C,D210*%
X221100000Y-117250000D03*
X221100000Y-115750000D03*
X226400000Y-115750000D03*
X226400000Y-117250000D03*
%TD*%
D16*
%TO.C,D330*%
X154800000Y-193650000D03*
X154800000Y-190350000D03*
%TD*%
D20*
%TO.C,C102*%
X180300000Y-92525000D03*
X180300000Y-90975000D03*
%TD*%
D21*
%TO.C,C220*%
X185525000Y-153750000D03*
X187075000Y-153750000D03*
%TD*%
%TO.C,C213*%
X166525000Y-134750000D03*
X168075000Y-134750000D03*
%TD*%
D29*
%TO.C,U102*%
X191400000Y-78400000D03*
D30*
X191400000Y-76700000D03*
X193400000Y-76700000D03*
X193400000Y-78600000D03*
%TD*%
D15*
%TO.C,D228*%
X240100000Y-174250000D03*
X240100000Y-172750000D03*
X245400000Y-172750000D03*
X245400000Y-174250000D03*
%TD*%
D21*
%TO.C,C218*%
X266275000Y-144250000D03*
X267825000Y-144250000D03*
%TD*%
D16*
%TO.C,D324*%
X154800000Y-174650000D03*
X154800000Y-171350000D03*
%TD*%
D22*
%TO.C,C119*%
X194650000Y-107775000D03*
X194650000Y-109325000D03*
%TD*%
D16*
%TO.C,D307*%
X154800000Y-117650000D03*
X154800000Y-114350000D03*
%TD*%
D15*
%TO.C,D223*%
X240100000Y-155250000D03*
X240100000Y-153750000D03*
X245400000Y-153750000D03*
X245400000Y-155250000D03*
%TD*%
%TO.C,D208*%
X178350000Y-117250000D03*
X178350000Y-115750000D03*
X183650000Y-115750000D03*
X183650000Y-117250000D03*
%TD*%
D16*
%TO.C,D322*%
X216550000Y-155650000D03*
X216550000Y-152350000D03*
%TD*%
D28*
%TO.C,R107*%
X201300000Y-100925000D03*
X201300000Y-99275000D03*
%TD*%
D31*
%TO.C,R104*%
X178850000Y-98650000D03*
X177200000Y-98650000D03*
%TD*%
D15*
%TO.C,D216*%
X221100000Y-136250000D03*
X221100000Y-134750000D03*
X226400000Y-134750000D03*
X226400000Y-136250000D03*
%TD*%
D21*
%TO.C,C216*%
X228275000Y-134750000D03*
X229825000Y-134750000D03*
%TD*%
D15*
%TO.C,D203*%
X202100000Y-88750000D03*
X202100000Y-87250000D03*
X207400000Y-87250000D03*
X207400000Y-88750000D03*
%TD*%
%TO.C,D214*%
X178350000Y-136250000D03*
X178350000Y-134750000D03*
X183650000Y-134750000D03*
X183650000Y-136250000D03*
%TD*%
D21*
%TO.C,C202*%
X185525000Y-87250000D03*
X187075000Y-87250000D03*
%TD*%
%TO.C,C206*%
X266275000Y-87250000D03*
X267825000Y-87250000D03*
%TD*%
D15*
%TO.C,D225*%
X178350000Y-174250000D03*
X178350000Y-172750000D03*
X183650000Y-172750000D03*
X183650000Y-174250000D03*
%TD*%
D19*
%TO.C,R105*%
X191850000Y-88925000D03*
X191850000Y-90575000D03*
%TD*%
D16*
%TO.C,D320*%
X173800000Y-155650000D03*
X173800000Y-152350000D03*
%TD*%
D22*
%TO.C,C118*%
X194600000Y-116325000D03*
X194600000Y-117875000D03*
%TD*%
D14*
%TO.C,C109*%
X187175000Y-98700000D03*
X185625000Y-98700000D03*
%TD*%
D21*
%TO.C,C232*%
X218775000Y-191750000D03*
X220325000Y-191750000D03*
%TD*%
M02*
