%TF.GenerationSoftware,KiCad,Pcbnew,7.0.5-0*%
%TF.CreationDate,2023-07-30T09:29:21-05:00*%
%TF.ProjectId,Nifty Numpad,4e696674-7920-44e7-956d-7061642e6b69,rev?*%
%TF.SameCoordinates,Original*%
%TF.FileFunction,Soldermask,Top*%
%TF.FilePolarity,Negative*%
%FSLAX46Y46*%
G04 Gerber Fmt 4.6, Leading zero omitted, Abs format (unit mm)*
G04 Created by KiCad (PCBNEW 7.0.5-0) date 2023-07-30 09:29:21*
%MOMM*%
%LPD*%
G01*
G04 APERTURE LIST*
%ADD10C,2.000000*%
%ADD11C,1.750000*%
%ADD12C,3.050000*%
%ADD13C,4.000000*%
%ADD14C,6.000000*%
%ADD15R,1.700000X1.700000*%
%ADD16O,1.700000X1.700000*%
%ADD17C,0.650000*%
%ADD18O,1.000000X1.800000*%
%ADD19O,1.000000X2.100000*%
G04 APERTURE END LIST*
D10*
X152700000Y-196000000D02*
G75*
G03*
X154000000Y-197300000I1300000J0D01*
G01*
X271050000Y-75500000D02*
G75*
G03*
X269750000Y-74200000I-1300000J0D01*
G01*
X154000000Y-197300000D02*
X269750000Y-197300000D01*
X271050000Y-196000000D02*
X271050000Y-75500000D01*
X269750000Y-197300000D02*
G75*
G03*
X271050000Y-196000000I0J1300000D01*
G01*
X154000000Y-74200000D02*
G75*
G03*
X152700000Y-75500000I0J-1300000D01*
G01*
X183780000Y-74200000D02*
X154000000Y-74200000D01*
X152700000Y-75500000D02*
X152700000Y-196000000D01*
X269750000Y-74200000D02*
X201970000Y-74200000D01*
D11*
%TO.C,SW314*%
X175920000Y-131000000D03*
D12*
X177190000Y-128460000D03*
D13*
X181000000Y-131000000D03*
D12*
X183540000Y-125920000D03*
D11*
X186080000Y-131000000D03*
%TD*%
D14*
%TO.C,H105*%
X192875000Y-188000000D03*
%TD*%
D11*
%TO.C,SW313*%
X156920000Y-131000000D03*
D12*
X158190000Y-128460000D03*
D13*
X162000000Y-131000000D03*
D12*
X164540000Y-125920000D03*
D11*
X167080000Y-131000000D03*
%TD*%
%TO.C,SW318*%
X256670000Y-140500000D03*
D12*
X257940000Y-137960000D03*
D13*
X261750000Y-140500000D03*
D12*
X264290000Y-135420000D03*
D11*
X266830000Y-140500000D03*
%TD*%
%TO.C,SW310*%
X218670000Y-112000000D03*
D12*
X219940000Y-109460000D03*
D13*
X223750000Y-112000000D03*
D12*
X226290000Y-106920000D03*
D11*
X228830000Y-112000000D03*
%TD*%
%TO.C,SW308*%
X175920000Y-112000000D03*
D12*
X177190000Y-109460000D03*
D13*
X181000000Y-112000000D03*
D12*
X183540000Y-106920000D03*
D11*
X186080000Y-112000000D03*
%TD*%
%TO.C,SW304*%
X218670000Y-83500000D03*
D12*
X219940000Y-80960000D03*
D13*
X223750000Y-83500000D03*
D12*
X226290000Y-78420000D03*
D11*
X228830000Y-83500000D03*
%TD*%
%TO.C,SW307*%
X156920000Y-112000000D03*
D12*
X158190000Y-109460000D03*
D13*
X162000000Y-112000000D03*
D12*
X164540000Y-106920000D03*
D11*
X167080000Y-112000000D03*
%TD*%
%TO.C,SW305*%
X237670000Y-83500000D03*
D12*
X238940000Y-80960000D03*
D13*
X242750000Y-83500000D03*
D12*
X245290000Y-78420000D03*
D11*
X247830000Y-83500000D03*
%TD*%
%TO.C,SW333*%
X237670000Y-188000000D03*
D12*
X238940000Y-185460000D03*
D13*
X242750000Y-188000000D03*
D12*
X245290000Y-182920000D03*
D11*
X247830000Y-188000000D03*
%TD*%
%TO.C,SW332*%
X209170000Y-188000000D03*
D12*
X210440000Y-185460000D03*
D13*
X214250000Y-188000000D03*
D12*
X216790000Y-182920000D03*
D11*
X219330000Y-188000000D03*
%TD*%
%TO.C,SW330*%
X156920000Y-188000000D03*
D12*
X158190000Y-185460000D03*
D13*
X162000000Y-188000000D03*
D12*
X164540000Y-182920000D03*
D11*
X167080000Y-188000000D03*
%TD*%
%TO.C,SW325*%
X175920000Y-169000000D03*
D12*
X177190000Y-166460000D03*
D13*
X181000000Y-169000000D03*
D12*
X183540000Y-163920000D03*
D11*
X186080000Y-169000000D03*
%TD*%
D15*
%TO.C,J101*%
X176490000Y-101250000D03*
D16*
X173950000Y-101250000D03*
X171410000Y-101250000D03*
X168870000Y-101250000D03*
X166330000Y-101250000D03*
%TD*%
D11*
%TO.C,SW312*%
X256670000Y-112000000D03*
D12*
X257940000Y-109460000D03*
D13*
X261750000Y-112000000D03*
D12*
X264290000Y-106920000D03*
D11*
X266830000Y-112000000D03*
%TD*%
D14*
%TO.C,H102*%
X214250000Y-97750000D03*
%TD*%
D11*
%TO.C,SW320*%
X175920000Y-150000000D03*
D12*
X177190000Y-147460000D03*
D13*
X181000000Y-150000000D03*
D12*
X183540000Y-144920000D03*
D11*
X186080000Y-150000000D03*
%TD*%
%TO.C,SW323*%
X237670000Y-150000000D03*
D12*
X238940000Y-147460000D03*
D13*
X242750000Y-150000000D03*
D12*
X245290000Y-144920000D03*
D11*
X247830000Y-150000000D03*
%TD*%
%TO.C,SW315*%
X199670000Y-131000000D03*
D12*
X200940000Y-128460000D03*
D13*
X204750000Y-131000000D03*
D12*
X207290000Y-125920000D03*
D11*
X209830000Y-131000000D03*
%TD*%
%TO.C,SW303*%
X199670000Y-83500000D03*
D12*
X200940000Y-80960000D03*
D13*
X204750000Y-83500000D03*
D12*
X207290000Y-78420000D03*
D11*
X209830000Y-83500000D03*
%TD*%
D14*
%TO.C,H101*%
X162000000Y-97750000D03*
%TD*%
%TO.C,H103*%
X261750000Y-97750000D03*
%TD*%
D11*
%TO.C,SW324*%
X156920000Y-169000000D03*
D12*
X158190000Y-166460000D03*
D13*
X162000000Y-169000000D03*
D12*
X164540000Y-163920000D03*
D11*
X167080000Y-169000000D03*
%TD*%
D15*
%TO.C,J103*%
X219600000Y-93100000D03*
D16*
X222140000Y-93100000D03*
X224680000Y-93100000D03*
X227220000Y-93100000D03*
%TD*%
D11*
%TO.C,SW302*%
X175920000Y-83500000D03*
D12*
X177190000Y-80960000D03*
D13*
X181000000Y-83500000D03*
D12*
X183540000Y-78420000D03*
D11*
X186080000Y-83500000D03*
%TD*%
%TO.C,SW321*%
X199670000Y-150000000D03*
D12*
X200940000Y-147460000D03*
D13*
X204750000Y-150000000D03*
D12*
X207290000Y-144920000D03*
D11*
X209830000Y-150000000D03*
%TD*%
%TO.C,SW309*%
X199670000Y-112000000D03*
D12*
X200940000Y-109460000D03*
D13*
X204750000Y-112000000D03*
D12*
X207290000Y-106920000D03*
D11*
X209830000Y-112000000D03*
%TD*%
%TO.C,SW322*%
X218670000Y-150000000D03*
D12*
X219940000Y-147460000D03*
D13*
X223750000Y-150000000D03*
D12*
X226290000Y-144920000D03*
D11*
X228830000Y-150000000D03*
%TD*%
D14*
%TO.C,H104*%
X192875000Y-150000000D03*
%TD*%
D11*
%TO.C,SW331*%
X175920000Y-188000000D03*
D12*
X177190000Y-185460000D03*
D13*
X181000000Y-188000000D03*
D12*
X183540000Y-182920000D03*
D11*
X186080000Y-188000000D03*
%TD*%
%TO.C,SW316*%
X218670000Y-131000000D03*
D12*
X219940000Y-128460000D03*
D13*
X223750000Y-131000000D03*
D12*
X226290000Y-125920000D03*
D11*
X228830000Y-131000000D03*
%TD*%
%TO.C,SW328*%
X237670000Y-169000000D03*
D12*
X238940000Y-166460000D03*
D13*
X242750000Y-169000000D03*
D12*
X245290000Y-163920000D03*
D11*
X247830000Y-169000000D03*
%TD*%
%TO.C,SW306*%
X256670000Y-83500000D03*
D12*
X257940000Y-80960000D03*
D13*
X261750000Y-83500000D03*
D12*
X264290000Y-78420000D03*
D11*
X266830000Y-83500000D03*
%TD*%
%TO.C,SW317*%
X237670000Y-131000000D03*
D12*
X238940000Y-128460000D03*
D13*
X242750000Y-131000000D03*
D12*
X245290000Y-125920000D03*
D11*
X247830000Y-131000000D03*
%TD*%
%TO.C,SW319*%
X156920000Y-150000000D03*
D12*
X158190000Y-147460000D03*
D13*
X162000000Y-150000000D03*
D12*
X164540000Y-144920000D03*
D11*
X167080000Y-150000000D03*
%TD*%
%TO.C,SW329*%
X256670000Y-178500000D03*
D12*
X257940000Y-175960000D03*
D13*
X261750000Y-178500000D03*
D12*
X264290000Y-173420000D03*
D11*
X266830000Y-178500000D03*
%TD*%
%TO.C,SW301*%
X156920000Y-83500000D03*
D12*
X158190000Y-80960000D03*
D13*
X162000000Y-83500000D03*
D12*
X164540000Y-78420000D03*
D11*
X167080000Y-83500000D03*
%TD*%
%TO.C,SW311*%
X237670000Y-112000000D03*
D12*
X238940000Y-109460000D03*
D13*
X242750000Y-112000000D03*
D12*
X245290000Y-106920000D03*
D11*
X247830000Y-112000000D03*
%TD*%
%TO.C,SW326*%
X199670000Y-169000000D03*
D12*
X200940000Y-166460000D03*
D13*
X204750000Y-169000000D03*
D12*
X207290000Y-163920000D03*
D11*
X209830000Y-169000000D03*
%TD*%
%TO.C,SW327*%
X218670000Y-169000000D03*
D12*
X219940000Y-166460000D03*
D13*
X223750000Y-169000000D03*
D12*
X226290000Y-163920000D03*
D11*
X228830000Y-169000000D03*
%TD*%
D17*
%TO.C,J102*%
X189985000Y-72930000D03*
X195765000Y-72930000D03*
D18*
X188555000Y-69250000D03*
D19*
X188555000Y-73430000D03*
D18*
X197195000Y-69250000D03*
D19*
X197195000Y-73430000D03*
%TD*%
M02*
