%TF.GenerationSoftware,KiCad,Pcbnew,7.0.5-0*%
%TF.CreationDate,2023-07-30T09:29:21-05:00*%
%TF.ProjectId,Nifty Numpad,4e696674-7920-44e7-956d-7061642e6b69,rev?*%
%TF.SameCoordinates,Original*%
%TF.FileFunction,Legend,Top*%
%TF.FilePolarity,Positive*%
%FSLAX46Y46*%
G04 Gerber Fmt 4.6, Leading zero omitted, Abs format (unit mm)*
G04 Created by KiCad (PCBNEW 7.0.5-0) date 2023-07-30 09:29:21*
%MOMM*%
%LPD*%
G01*
G04 APERTURE LIST*
%ADD10C,0.180000*%
%ADD11C,0.200000*%
%ADD12C,0.160000*%
%ADD13C,0.120000*%
G04 APERTURE END LIST*
D10*
G36*
X249947336Y-99605564D02*
G01*
X250026746Y-99684974D01*
X250068178Y-99767838D01*
X250115476Y-99957027D01*
X250115475Y-100092013D01*
X250068177Y-100281204D01*
X250026746Y-100364066D01*
X249947335Y-100443477D01*
X249824205Y-100484520D01*
X249666904Y-100484520D01*
X249666904Y-99564520D01*
X249824203Y-99564520D01*
X249947336Y-99605564D01*
G37*
G36*
X250957143Y-101277143D02*
G01*
X248772857Y-101277143D01*
X248772857Y-100587869D01*
X249484059Y-100587869D01*
X249492361Y-100606048D01*
X249497994Y-100625232D01*
X249503170Y-100629717D01*
X249506015Y-100635946D01*
X249522831Y-100646753D01*
X249537938Y-100659843D01*
X249544715Y-100660817D01*
X249550477Y-100664520D01*
X249570466Y-100664520D01*
X249590253Y-100667365D01*
X249596483Y-100664520D01*
X249827524Y-100664520D01*
X249842198Y-100668258D01*
X249865697Y-100660425D01*
X249889521Y-100653430D01*
X249890673Y-100652099D01*
X250019813Y-100609054D01*
X250040905Y-100604466D01*
X250053908Y-100591462D01*
X250069015Y-100580964D01*
X250072266Y-100573104D01*
X250156373Y-100488997D01*
X250169394Y-100481264D01*
X250180475Y-100459101D01*
X250192371Y-100437317D01*
X250192245Y-100435561D01*
X250226424Y-100367203D01*
X250233998Y-100360082D01*
X250238011Y-100344029D01*
X250239381Y-100341290D01*
X250241140Y-100331511D01*
X250289196Y-100139289D01*
X250295476Y-100129519D01*
X250295475Y-100114172D01*
X250295928Y-100112365D01*
X250295476Y-100101246D01*
X250295476Y-99960760D01*
X250299198Y-99949758D01*
X250295476Y-99934869D01*
X250295476Y-99933007D01*
X250292341Y-99922330D01*
X250244295Y-99730148D01*
X250245412Y-99719812D01*
X250238011Y-99705010D01*
X250237269Y-99702041D01*
X250232245Y-99693478D01*
X250186258Y-99601505D01*
X250183040Y-99586710D01*
X250165524Y-99569194D01*
X250148614Y-99551015D01*
X250146909Y-99550579D01*
X250063021Y-99466691D01*
X250049483Y-99449876D01*
X250032036Y-99444060D01*
X250015891Y-99435244D01*
X250007407Y-99435850D01*
X249877975Y-99392707D01*
X249865236Y-99384520D01*
X249840451Y-99384520D01*
X249815653Y-99383623D01*
X249814140Y-99384520D01*
X249583342Y-99384520D01*
X249563555Y-99381675D01*
X249545375Y-99389977D01*
X249526192Y-99395610D01*
X249521706Y-99400786D01*
X249515478Y-99403631D01*
X249504670Y-99420447D01*
X249491581Y-99435554D01*
X249490606Y-99442331D01*
X249486904Y-99448093D01*
X249486904Y-99468082D01*
X249484059Y-99487869D01*
X249486903Y-99494098D01*
X249486904Y-100568082D01*
X249484059Y-100587869D01*
X248772857Y-100587869D01*
X248772857Y-98872857D01*
X250957143Y-98872857D01*
X250957143Y-101277143D01*
G37*
G36*
X248230953Y-101277143D02*
G01*
X246099048Y-101277143D01*
X246099048Y-99694113D01*
X246757456Y-99694113D01*
X246760714Y-99701968D01*
X246760713Y-99783956D01*
X246758397Y-99805418D01*
X246766621Y-99821866D01*
X246771804Y-99839518D01*
X246778231Y-99845087D01*
X246817549Y-99923723D01*
X246820769Y-99938521D01*
X246838298Y-99956050D01*
X246855195Y-99974215D01*
X246856898Y-99974650D01*
X246883856Y-100001608D01*
X246891590Y-100014629D01*
X246913752Y-100025710D01*
X246935537Y-100037606D01*
X246937292Y-100037480D01*
X247005650Y-100071659D01*
X247012772Y-100079233D01*
X247028824Y-100083246D01*
X247031564Y-100084616D01*
X247041342Y-100086375D01*
X247238350Y-100135628D01*
X247321212Y-100177058D01*
X247352938Y-100208785D01*
X247389286Y-100281480D01*
X247389286Y-100343751D01*
X247352938Y-100416446D01*
X247321212Y-100448172D01*
X247248516Y-100484520D01*
X247022462Y-100484520D01*
X246866896Y-100432666D01*
X246827557Y-100431243D01*
X246782091Y-100458192D01*
X246758412Y-100505444D01*
X246764038Y-100557997D01*
X246797183Y-100599165D01*
X246968690Y-100656332D01*
X246981430Y-100664520D01*
X247006216Y-100664520D01*
X247031014Y-100665417D01*
X247032527Y-100664520D01*
X247264916Y-100664520D01*
X247286373Y-100666837D01*
X247302820Y-100658613D01*
X247320474Y-100653430D01*
X247326043Y-100647002D01*
X247404679Y-100607685D01*
X247419477Y-100604466D01*
X247437000Y-100586942D01*
X247455171Y-100570041D01*
X247455606Y-100568336D01*
X247482564Y-100541378D01*
X247495585Y-100533645D01*
X247506666Y-100511482D01*
X247518562Y-100489698D01*
X247518436Y-100487942D01*
X247557616Y-100409582D01*
X247569286Y-100391424D01*
X247569286Y-100373033D01*
X247572544Y-100354929D01*
X247569285Y-100347073D01*
X247569286Y-100265079D01*
X247571603Y-100243622D01*
X247563378Y-100227172D01*
X247558196Y-100209523D01*
X247551769Y-100203954D01*
X247512449Y-100125315D01*
X247509231Y-100110520D01*
X247491715Y-100093004D01*
X247474805Y-100074825D01*
X247473100Y-100074389D01*
X247446143Y-100047432D01*
X247438410Y-100034412D01*
X247416247Y-100023330D01*
X247394463Y-100011435D01*
X247392707Y-100011560D01*
X247324349Y-99977381D01*
X247317228Y-99969808D01*
X247301175Y-99965794D01*
X247298436Y-99964425D01*
X247288657Y-99962665D01*
X247091649Y-99913412D01*
X247008788Y-99871982D01*
X246977062Y-99840256D01*
X246940713Y-99767558D01*
X246940713Y-99705290D01*
X246977062Y-99632593D01*
X247008787Y-99600868D01*
X247081484Y-99564520D01*
X247307537Y-99564520D01*
X247463103Y-99616375D01*
X247502442Y-99617798D01*
X247547908Y-99590849D01*
X247571588Y-99543597D01*
X247565962Y-99491044D01*
X247532817Y-99449876D01*
X247361309Y-99392707D01*
X247348570Y-99384520D01*
X247323785Y-99384520D01*
X247298987Y-99383623D01*
X247297474Y-99384520D01*
X247065083Y-99384520D01*
X247043625Y-99382203D01*
X247027175Y-99390427D01*
X247009526Y-99395610D01*
X247003957Y-99402036D01*
X246925318Y-99441356D01*
X246910523Y-99444575D01*
X246893007Y-99462090D01*
X246874828Y-99479001D01*
X246874392Y-99480705D01*
X246847435Y-99507662D01*
X246834415Y-99515396D01*
X246823333Y-99537558D01*
X246811438Y-99559343D01*
X246811563Y-99561098D01*
X246772383Y-99639458D01*
X246760714Y-99657617D01*
X246760714Y-99676008D01*
X246757456Y-99694113D01*
X246099048Y-99694113D01*
X246099048Y-98872857D01*
X248230953Y-98872857D01*
X248230953Y-101277143D01*
G37*
G36*
X244602037Y-100195235D02*
G01*
X244327963Y-100195235D01*
X244465000Y-99784124D01*
X244602037Y-100195235D01*
G37*
G36*
X245478572Y-101302143D02*
G01*
X243451429Y-101302143D01*
X243451429Y-100622676D01*
X244007436Y-100622676D01*
X244034385Y-100668142D01*
X244081637Y-100691822D01*
X244134190Y-100686196D01*
X244175358Y-100653051D01*
X244267963Y-100375235D01*
X244662037Y-100375235D01*
X244750378Y-100640258D01*
X244772843Y-100672583D01*
X244821682Y-100692787D01*
X244873691Y-100683379D01*
X244912358Y-100647347D01*
X244925405Y-100596130D01*
X244819018Y-100276971D01*
X244819750Y-100271886D01*
X244810766Y-100252215D01*
X244555530Y-99486505D01*
X244555897Y-99476364D01*
X244547334Y-99461917D01*
X244546289Y-99458782D01*
X244540760Y-99450826D01*
X244528948Y-99430898D01*
X244525821Y-99429331D01*
X244523824Y-99426457D01*
X244502406Y-99417596D01*
X244481696Y-99407218D01*
X244478217Y-99407590D01*
X244474985Y-99406253D01*
X244452185Y-99410377D01*
X244429143Y-99412844D01*
X244426417Y-99415038D01*
X244422976Y-99415661D01*
X244406026Y-99431455D01*
X244387975Y-99445989D01*
X244386868Y-99449307D01*
X244384309Y-99451693D01*
X244378589Y-99474146D01*
X244123367Y-100239811D01*
X244117772Y-100246269D01*
X244115160Y-100264433D01*
X244008859Y-100583337D01*
X244007436Y-100622676D01*
X243451429Y-100622676D01*
X243451429Y-98897857D01*
X245478572Y-98897857D01*
X245478572Y-101302143D01*
G37*
G36*
X242935715Y-101302143D02*
G01*
X240594286Y-101302143D01*
X240594286Y-99494658D01*
X241199897Y-99494658D01*
X241465739Y-100611191D01*
X241466164Y-100628188D01*
X241479058Y-100647190D01*
X241490458Y-100667130D01*
X241493754Y-100668847D01*
X241495841Y-100671922D01*
X241516963Y-100680937D01*
X241537332Y-100691548D01*
X241541032Y-100691210D01*
X241544452Y-100692670D01*
X241567103Y-100688833D01*
X241589967Y-100686748D01*
X241592897Y-100684463D01*
X241596562Y-100683843D01*
X241613541Y-100668370D01*
X241631651Y-100654253D01*
X241632881Y-100650747D01*
X241635628Y-100648244D01*
X241641544Y-100626057D01*
X241649150Y-100604382D01*
X241648288Y-100600765D01*
X241765000Y-100163098D01*
X241885132Y-100613595D01*
X241886014Y-100630576D01*
X241899414Y-100649225D01*
X241911345Y-100668852D01*
X241914687Y-100670480D01*
X241916855Y-100673497D01*
X241938206Y-100681939D01*
X241958858Y-100692002D01*
X241962548Y-100691565D01*
X241966005Y-100692932D01*
X241988536Y-100688490D01*
X242011345Y-100685791D01*
X242014214Y-100683427D01*
X242017860Y-100682709D01*
X242034416Y-100666786D01*
X242052141Y-100652188D01*
X242053276Y-100648650D01*
X242055956Y-100646074D01*
X242061277Y-100623725D01*
X242068294Y-100601865D01*
X242067336Y-100598275D01*
X242326979Y-99507776D01*
X242324939Y-99468465D01*
X242294098Y-99425543D01*
X242244948Y-99406108D01*
X242193093Y-99416332D01*
X242154997Y-99452966D01*
X241969583Y-100231702D01*
X241854706Y-99800912D01*
X241854312Y-99785138D01*
X241840737Y-99765133D01*
X241828179Y-99744474D01*
X241825996Y-99743410D01*
X241824635Y-99741404D01*
X241802402Y-99731914D01*
X241780666Y-99721324D01*
X241778256Y-99721609D01*
X241776024Y-99720656D01*
X241752182Y-99724694D01*
X241728179Y-99727535D01*
X241726305Y-99729077D01*
X241723914Y-99729483D01*
X241706037Y-99745772D01*
X241687383Y-99761138D01*
X241686642Y-99763446D01*
X241684848Y-99765081D01*
X241678616Y-99788449D01*
X241671230Y-99811461D01*
X241671854Y-99813804D01*
X241560416Y-100231700D01*
X241378126Y-99466084D01*
X241358589Y-99431910D01*
X241311715Y-99407492D01*
X241259080Y-99412292D01*
X241217396Y-99444786D01*
X241199897Y-99494658D01*
X240594286Y-99494658D01*
X240594286Y-98897857D01*
X242935715Y-98897857D01*
X242935715Y-101302143D01*
G37*
D11*
X240565000Y-93325000D02*
X251065000Y-93325000D01*
D12*
X226751918Y-97290977D02*
X226704299Y-97386215D01*
X226704299Y-97386215D02*
X226704299Y-97529072D01*
X226704299Y-97529072D02*
X226751918Y-97671929D01*
X226751918Y-97671929D02*
X226847156Y-97767167D01*
X226847156Y-97767167D02*
X226942394Y-97814786D01*
X226942394Y-97814786D02*
X227132870Y-97862405D01*
X227132870Y-97862405D02*
X227275727Y-97862405D01*
X227275727Y-97862405D02*
X227466203Y-97814786D01*
X227466203Y-97814786D02*
X227561441Y-97767167D01*
X227561441Y-97767167D02*
X227656680Y-97671929D01*
X227656680Y-97671929D02*
X227704299Y-97529072D01*
X227704299Y-97529072D02*
X227704299Y-97433834D01*
X227704299Y-97433834D02*
X227656680Y-97290977D01*
X227656680Y-97290977D02*
X227609060Y-97243358D01*
X227609060Y-97243358D02*
X227275727Y-97243358D01*
X227275727Y-97243358D02*
X227275727Y-97433834D01*
X227704299Y-96814786D02*
X226704299Y-96814786D01*
X226704299Y-96814786D02*
X227704299Y-96243358D01*
X227704299Y-96243358D02*
X226704299Y-96243358D01*
X227704299Y-95767167D02*
X226704299Y-95767167D01*
X226704299Y-95767167D02*
X226704299Y-95529072D01*
X226704299Y-95529072D02*
X226751918Y-95386215D01*
X226751918Y-95386215D02*
X226847156Y-95290977D01*
X226847156Y-95290977D02*
X226942394Y-95243358D01*
X226942394Y-95243358D02*
X227132870Y-95195739D01*
X227132870Y-95195739D02*
X227275727Y-95195739D01*
X227275727Y-95195739D02*
X227466203Y-95243358D01*
X227466203Y-95243358D02*
X227561441Y-95290977D01*
X227561441Y-95290977D02*
X227656680Y-95386215D01*
X227656680Y-95386215D02*
X227704299Y-95529072D01*
X227704299Y-95529072D02*
X227704299Y-95767167D01*
X225154299Y-100671929D02*
X224154299Y-100671929D01*
X224154299Y-100671929D02*
X224868584Y-100338596D01*
X224868584Y-100338596D02*
X224154299Y-100005263D01*
X224154299Y-100005263D02*
X225154299Y-100005263D01*
X225059060Y-98957644D02*
X225106680Y-99005263D01*
X225106680Y-99005263D02*
X225154299Y-99148120D01*
X225154299Y-99148120D02*
X225154299Y-99243358D01*
X225154299Y-99243358D02*
X225106680Y-99386215D01*
X225106680Y-99386215D02*
X225011441Y-99481453D01*
X225011441Y-99481453D02*
X224916203Y-99529072D01*
X224916203Y-99529072D02*
X224725727Y-99576691D01*
X224725727Y-99576691D02*
X224582870Y-99576691D01*
X224582870Y-99576691D02*
X224392394Y-99529072D01*
X224392394Y-99529072D02*
X224297156Y-99481453D01*
X224297156Y-99481453D02*
X224201918Y-99386215D01*
X224201918Y-99386215D02*
X224154299Y-99243358D01*
X224154299Y-99243358D02*
X224154299Y-99148120D01*
X224154299Y-99148120D02*
X224201918Y-99005263D01*
X224201918Y-99005263D02*
X224249537Y-98957644D01*
X224154299Y-98529072D02*
X224963822Y-98529072D01*
X224963822Y-98529072D02*
X225059060Y-98481453D01*
X225059060Y-98481453D02*
X225106680Y-98433834D01*
X225106680Y-98433834D02*
X225154299Y-98338596D01*
X225154299Y-98338596D02*
X225154299Y-98148120D01*
X225154299Y-98148120D02*
X225106680Y-98052882D01*
X225106680Y-98052882D02*
X225059060Y-98005263D01*
X225059060Y-98005263D02*
X224963822Y-97957644D01*
X224963822Y-97957644D02*
X224154299Y-97957644D01*
X225249537Y-97719549D02*
X225249537Y-96957644D01*
X225154299Y-96148120D02*
X224678108Y-96481453D01*
X225154299Y-96719548D02*
X224154299Y-96719548D01*
X224154299Y-96719548D02*
X224154299Y-96338596D01*
X224154299Y-96338596D02*
X224201918Y-96243358D01*
X224201918Y-96243358D02*
X224249537Y-96195739D01*
X224249537Y-96195739D02*
X224344775Y-96148120D01*
X224344775Y-96148120D02*
X224487632Y-96148120D01*
X224487632Y-96148120D02*
X224582870Y-96195739D01*
X224582870Y-96195739D02*
X224630489Y-96243358D01*
X224630489Y-96243358D02*
X224678108Y-96338596D01*
X224678108Y-96338596D02*
X224678108Y-96719548D01*
X224154299Y-95814786D02*
X225154299Y-95148120D01*
X224154299Y-95148120D02*
X225154299Y-95814786D01*
X222604299Y-100433834D02*
X221604299Y-100433834D01*
X221604299Y-100433834D02*
X222318584Y-100100501D01*
X222318584Y-100100501D02*
X221604299Y-99767168D01*
X221604299Y-99767168D02*
X222604299Y-99767168D01*
X222509060Y-98719549D02*
X222556680Y-98767168D01*
X222556680Y-98767168D02*
X222604299Y-98910025D01*
X222604299Y-98910025D02*
X222604299Y-99005263D01*
X222604299Y-99005263D02*
X222556680Y-99148120D01*
X222556680Y-99148120D02*
X222461441Y-99243358D01*
X222461441Y-99243358D02*
X222366203Y-99290977D01*
X222366203Y-99290977D02*
X222175727Y-99338596D01*
X222175727Y-99338596D02*
X222032870Y-99338596D01*
X222032870Y-99338596D02*
X221842394Y-99290977D01*
X221842394Y-99290977D02*
X221747156Y-99243358D01*
X221747156Y-99243358D02*
X221651918Y-99148120D01*
X221651918Y-99148120D02*
X221604299Y-99005263D01*
X221604299Y-99005263D02*
X221604299Y-98910025D01*
X221604299Y-98910025D02*
X221651918Y-98767168D01*
X221651918Y-98767168D02*
X221699537Y-98719549D01*
X221604299Y-98290977D02*
X222413822Y-98290977D01*
X222413822Y-98290977D02*
X222509060Y-98243358D01*
X222509060Y-98243358D02*
X222556680Y-98195739D01*
X222556680Y-98195739D02*
X222604299Y-98100501D01*
X222604299Y-98100501D02*
X222604299Y-97910025D01*
X222604299Y-97910025D02*
X222556680Y-97814787D01*
X222556680Y-97814787D02*
X222509060Y-97767168D01*
X222509060Y-97767168D02*
X222413822Y-97719549D01*
X222413822Y-97719549D02*
X221604299Y-97719549D01*
X222699537Y-97481454D02*
X222699537Y-96719549D01*
X221604299Y-96624310D02*
X221604299Y-96052882D01*
X222604299Y-96338596D02*
X221604299Y-96338596D01*
X221604299Y-95814786D02*
X222604299Y-95148120D01*
X221604299Y-95148120D02*
X222604299Y-95814786D01*
X174356680Y-99154260D02*
X174404299Y-99011403D01*
X174404299Y-99011403D02*
X174404299Y-98773308D01*
X174404299Y-98773308D02*
X174356680Y-98678070D01*
X174356680Y-98678070D02*
X174309060Y-98630451D01*
X174309060Y-98630451D02*
X174213822Y-98582832D01*
X174213822Y-98582832D02*
X174118584Y-98582832D01*
X174118584Y-98582832D02*
X174023346Y-98630451D01*
X174023346Y-98630451D02*
X173975727Y-98678070D01*
X173975727Y-98678070D02*
X173928108Y-98773308D01*
X173928108Y-98773308D02*
X173880489Y-98963784D01*
X173880489Y-98963784D02*
X173832870Y-99059022D01*
X173832870Y-99059022D02*
X173785251Y-99106641D01*
X173785251Y-99106641D02*
X173690013Y-99154260D01*
X173690013Y-99154260D02*
X173594775Y-99154260D01*
X173594775Y-99154260D02*
X173499537Y-99106641D01*
X173499537Y-99106641D02*
X173451918Y-99059022D01*
X173451918Y-99059022D02*
X173404299Y-98963784D01*
X173404299Y-98963784D02*
X173404299Y-98725689D01*
X173404299Y-98725689D02*
X173451918Y-98582832D01*
X173404299Y-98249498D02*
X174404299Y-98011403D01*
X174404299Y-98011403D02*
X173690013Y-97820927D01*
X173690013Y-97820927D02*
X174404299Y-97630451D01*
X174404299Y-97630451D02*
X173404299Y-97392356D01*
X174404299Y-97011403D02*
X173404299Y-97011403D01*
X173404299Y-97011403D02*
X173404299Y-96773308D01*
X173404299Y-96773308D02*
X173451918Y-96630451D01*
X173451918Y-96630451D02*
X173547156Y-96535213D01*
X173547156Y-96535213D02*
X173642394Y-96487594D01*
X173642394Y-96487594D02*
X173832870Y-96439975D01*
X173832870Y-96439975D02*
X173975727Y-96439975D01*
X173975727Y-96439975D02*
X174166203Y-96487594D01*
X174166203Y-96487594D02*
X174261441Y-96535213D01*
X174261441Y-96535213D02*
X174356680Y-96630451D01*
X174356680Y-96630451D02*
X174404299Y-96773308D01*
X174404299Y-96773308D02*
X174404299Y-97011403D01*
X219054299Y-98100500D02*
X219054299Y-97481453D01*
X219054299Y-97481453D02*
X219435251Y-97814786D01*
X219435251Y-97814786D02*
X219435251Y-97671929D01*
X219435251Y-97671929D02*
X219482870Y-97576691D01*
X219482870Y-97576691D02*
X219530489Y-97529072D01*
X219530489Y-97529072D02*
X219625727Y-97481453D01*
X219625727Y-97481453D02*
X219863822Y-97481453D01*
X219863822Y-97481453D02*
X219959060Y-97529072D01*
X219959060Y-97529072D02*
X220006680Y-97576691D01*
X220006680Y-97576691D02*
X220054299Y-97671929D01*
X220054299Y-97671929D02*
X220054299Y-97957643D01*
X220054299Y-97957643D02*
X220006680Y-98052881D01*
X220006680Y-98052881D02*
X219959060Y-98100500D01*
X219959060Y-97052881D02*
X220006680Y-97005262D01*
X220006680Y-97005262D02*
X220054299Y-97052881D01*
X220054299Y-97052881D02*
X220006680Y-97100500D01*
X220006680Y-97100500D02*
X219959060Y-97052881D01*
X219959060Y-97052881D02*
X220054299Y-97052881D01*
X219054299Y-96671929D02*
X219054299Y-96052882D01*
X219054299Y-96052882D02*
X219435251Y-96386215D01*
X219435251Y-96386215D02*
X219435251Y-96243358D01*
X219435251Y-96243358D02*
X219482870Y-96148120D01*
X219482870Y-96148120D02*
X219530489Y-96100501D01*
X219530489Y-96100501D02*
X219625727Y-96052882D01*
X219625727Y-96052882D02*
X219863822Y-96052882D01*
X219863822Y-96052882D02*
X219959060Y-96100501D01*
X219959060Y-96100501D02*
X220006680Y-96148120D01*
X220006680Y-96148120D02*
X220054299Y-96243358D01*
X220054299Y-96243358D02*
X220054299Y-96529072D01*
X220054299Y-96529072D02*
X220006680Y-96624310D01*
X220006680Y-96624310D02*
X219959060Y-96671929D01*
X219054299Y-95767167D02*
X220054299Y-95433834D01*
X220054299Y-95433834D02*
X219054299Y-95100501D01*
X175954299Y-99201879D02*
X175954299Y-98582832D01*
X175954299Y-98582832D02*
X176335251Y-98916165D01*
X176335251Y-98916165D02*
X176335251Y-98773308D01*
X176335251Y-98773308D02*
X176382870Y-98678070D01*
X176382870Y-98678070D02*
X176430489Y-98630451D01*
X176430489Y-98630451D02*
X176525727Y-98582832D01*
X176525727Y-98582832D02*
X176763822Y-98582832D01*
X176763822Y-98582832D02*
X176859060Y-98630451D01*
X176859060Y-98630451D02*
X176906680Y-98678070D01*
X176906680Y-98678070D02*
X176954299Y-98773308D01*
X176954299Y-98773308D02*
X176954299Y-99059022D01*
X176954299Y-99059022D02*
X176906680Y-99154260D01*
X176906680Y-99154260D02*
X176859060Y-99201879D01*
X176859060Y-98154260D02*
X176906680Y-98106641D01*
X176906680Y-98106641D02*
X176954299Y-98154260D01*
X176954299Y-98154260D02*
X176906680Y-98201879D01*
X176906680Y-98201879D02*
X176859060Y-98154260D01*
X176859060Y-98154260D02*
X176954299Y-98154260D01*
X175954299Y-97773308D02*
X175954299Y-97154261D01*
X175954299Y-97154261D02*
X176335251Y-97487594D01*
X176335251Y-97487594D02*
X176335251Y-97344737D01*
X176335251Y-97344737D02*
X176382870Y-97249499D01*
X176382870Y-97249499D02*
X176430489Y-97201880D01*
X176430489Y-97201880D02*
X176525727Y-97154261D01*
X176525727Y-97154261D02*
X176763822Y-97154261D01*
X176763822Y-97154261D02*
X176859060Y-97201880D01*
X176859060Y-97201880D02*
X176906680Y-97249499D01*
X176906680Y-97249499D02*
X176954299Y-97344737D01*
X176954299Y-97344737D02*
X176954299Y-97630451D01*
X176954299Y-97630451D02*
X176906680Y-97725689D01*
X176906680Y-97725689D02*
X176859060Y-97773308D01*
X175954299Y-96868546D02*
X176954299Y-96535213D01*
X176954299Y-96535213D02*
X175954299Y-96201880D01*
X171806680Y-99154260D02*
X171854299Y-99011403D01*
X171854299Y-99011403D02*
X171854299Y-98773308D01*
X171854299Y-98773308D02*
X171806680Y-98678070D01*
X171806680Y-98678070D02*
X171759060Y-98630451D01*
X171759060Y-98630451D02*
X171663822Y-98582832D01*
X171663822Y-98582832D02*
X171568584Y-98582832D01*
X171568584Y-98582832D02*
X171473346Y-98630451D01*
X171473346Y-98630451D02*
X171425727Y-98678070D01*
X171425727Y-98678070D02*
X171378108Y-98773308D01*
X171378108Y-98773308D02*
X171330489Y-98963784D01*
X171330489Y-98963784D02*
X171282870Y-99059022D01*
X171282870Y-99059022D02*
X171235251Y-99106641D01*
X171235251Y-99106641D02*
X171140013Y-99154260D01*
X171140013Y-99154260D02*
X171044775Y-99154260D01*
X171044775Y-99154260D02*
X170949537Y-99106641D01*
X170949537Y-99106641D02*
X170901918Y-99059022D01*
X170901918Y-99059022D02*
X170854299Y-98963784D01*
X170854299Y-98963784D02*
X170854299Y-98725689D01*
X170854299Y-98725689D02*
X170901918Y-98582832D01*
X170854299Y-98249498D02*
X171854299Y-98011403D01*
X171854299Y-98011403D02*
X171140013Y-97820927D01*
X171140013Y-97820927D02*
X171854299Y-97630451D01*
X171854299Y-97630451D02*
X170854299Y-97392356D01*
X171759060Y-96439975D02*
X171806680Y-96487594D01*
X171806680Y-96487594D02*
X171854299Y-96630451D01*
X171854299Y-96630451D02*
X171854299Y-96725689D01*
X171854299Y-96725689D02*
X171806680Y-96868546D01*
X171806680Y-96868546D02*
X171711441Y-96963784D01*
X171711441Y-96963784D02*
X171616203Y-97011403D01*
X171616203Y-97011403D02*
X171425727Y-97059022D01*
X171425727Y-97059022D02*
X171282870Y-97059022D01*
X171282870Y-97059022D02*
X171092394Y-97011403D01*
X171092394Y-97011403D02*
X170997156Y-96963784D01*
X170997156Y-96963784D02*
X170901918Y-96868546D01*
X170901918Y-96868546D02*
X170854299Y-96725689D01*
X170854299Y-96725689D02*
X170854299Y-96630451D01*
X170854299Y-96630451D02*
X170901918Y-96487594D01*
X170901918Y-96487594D02*
X170949537Y-96439975D01*
X171854299Y-95535213D02*
X171854299Y-96011403D01*
X171854299Y-96011403D02*
X170854299Y-96011403D01*
X171854299Y-95201879D02*
X170854299Y-95201879D01*
X171854299Y-94630451D02*
X171282870Y-95059022D01*
X170854299Y-94630451D02*
X171425727Y-95201879D01*
X165851918Y-98582832D02*
X165804299Y-98678070D01*
X165804299Y-98678070D02*
X165804299Y-98820927D01*
X165804299Y-98820927D02*
X165851918Y-98963784D01*
X165851918Y-98963784D02*
X165947156Y-99059022D01*
X165947156Y-99059022D02*
X166042394Y-99106641D01*
X166042394Y-99106641D02*
X166232870Y-99154260D01*
X166232870Y-99154260D02*
X166375727Y-99154260D01*
X166375727Y-99154260D02*
X166566203Y-99106641D01*
X166566203Y-99106641D02*
X166661441Y-99059022D01*
X166661441Y-99059022D02*
X166756680Y-98963784D01*
X166756680Y-98963784D02*
X166804299Y-98820927D01*
X166804299Y-98820927D02*
X166804299Y-98725689D01*
X166804299Y-98725689D02*
X166756680Y-98582832D01*
X166756680Y-98582832D02*
X166709060Y-98535213D01*
X166709060Y-98535213D02*
X166375727Y-98535213D01*
X166375727Y-98535213D02*
X166375727Y-98725689D01*
X166804299Y-98106641D02*
X165804299Y-98106641D01*
X165804299Y-98106641D02*
X166804299Y-97535213D01*
X166804299Y-97535213D02*
X165804299Y-97535213D01*
X166804299Y-97059022D02*
X165804299Y-97059022D01*
X165804299Y-97059022D02*
X165804299Y-96820927D01*
X165804299Y-96820927D02*
X165851918Y-96678070D01*
X165851918Y-96678070D02*
X165947156Y-96582832D01*
X165947156Y-96582832D02*
X166042394Y-96535213D01*
X166042394Y-96535213D02*
X166232870Y-96487594D01*
X166232870Y-96487594D02*
X166375727Y-96487594D01*
X166375727Y-96487594D02*
X166566203Y-96535213D01*
X166566203Y-96535213D02*
X166661441Y-96582832D01*
X166661441Y-96582832D02*
X166756680Y-96678070D01*
X166756680Y-96678070D02*
X166804299Y-96820927D01*
X166804299Y-96820927D02*
X166804299Y-97059022D01*
X169304299Y-98485213D02*
X168828108Y-98818546D01*
X169304299Y-99056641D02*
X168304299Y-99056641D01*
X168304299Y-99056641D02*
X168304299Y-98675689D01*
X168304299Y-98675689D02*
X168351918Y-98580451D01*
X168351918Y-98580451D02*
X168399537Y-98532832D01*
X168399537Y-98532832D02*
X168494775Y-98485213D01*
X168494775Y-98485213D02*
X168637632Y-98485213D01*
X168637632Y-98485213D02*
X168732870Y-98532832D01*
X168732870Y-98532832D02*
X168780489Y-98580451D01*
X168780489Y-98580451D02*
X168828108Y-98675689D01*
X168828108Y-98675689D02*
X168828108Y-99056641D01*
X168304299Y-98056641D02*
X169113822Y-98056641D01*
X169113822Y-98056641D02*
X169209060Y-98009022D01*
X169209060Y-98009022D02*
X169256680Y-97961403D01*
X169256680Y-97961403D02*
X169304299Y-97866165D01*
X169304299Y-97866165D02*
X169304299Y-97675689D01*
X169304299Y-97675689D02*
X169256680Y-97580451D01*
X169256680Y-97580451D02*
X169209060Y-97532832D01*
X169209060Y-97532832D02*
X169113822Y-97485213D01*
X169113822Y-97485213D02*
X168304299Y-97485213D01*
X169304299Y-97009022D02*
X168304299Y-97009022D01*
X168304299Y-97009022D02*
X169304299Y-96437594D01*
X169304299Y-96437594D02*
X168304299Y-96437594D01*
%TO.C,SW314*%
X178714286Y-123406680D02*
X178857143Y-123454299D01*
X178857143Y-123454299D02*
X179095238Y-123454299D01*
X179095238Y-123454299D02*
X179190476Y-123406680D01*
X179190476Y-123406680D02*
X179238095Y-123359060D01*
X179238095Y-123359060D02*
X179285714Y-123263822D01*
X179285714Y-123263822D02*
X179285714Y-123168584D01*
X179285714Y-123168584D02*
X179238095Y-123073346D01*
X179238095Y-123073346D02*
X179190476Y-123025727D01*
X179190476Y-123025727D02*
X179095238Y-122978108D01*
X179095238Y-122978108D02*
X178904762Y-122930489D01*
X178904762Y-122930489D02*
X178809524Y-122882870D01*
X178809524Y-122882870D02*
X178761905Y-122835251D01*
X178761905Y-122835251D02*
X178714286Y-122740013D01*
X178714286Y-122740013D02*
X178714286Y-122644775D01*
X178714286Y-122644775D02*
X178761905Y-122549537D01*
X178761905Y-122549537D02*
X178809524Y-122501918D01*
X178809524Y-122501918D02*
X178904762Y-122454299D01*
X178904762Y-122454299D02*
X179142857Y-122454299D01*
X179142857Y-122454299D02*
X179285714Y-122501918D01*
X179619048Y-122454299D02*
X179857143Y-123454299D01*
X179857143Y-123454299D02*
X180047619Y-122740013D01*
X180047619Y-122740013D02*
X180238095Y-123454299D01*
X180238095Y-123454299D02*
X180476191Y-122454299D01*
X180761905Y-122454299D02*
X181380952Y-122454299D01*
X181380952Y-122454299D02*
X181047619Y-122835251D01*
X181047619Y-122835251D02*
X181190476Y-122835251D01*
X181190476Y-122835251D02*
X181285714Y-122882870D01*
X181285714Y-122882870D02*
X181333333Y-122930489D01*
X181333333Y-122930489D02*
X181380952Y-123025727D01*
X181380952Y-123025727D02*
X181380952Y-123263822D01*
X181380952Y-123263822D02*
X181333333Y-123359060D01*
X181333333Y-123359060D02*
X181285714Y-123406680D01*
X181285714Y-123406680D02*
X181190476Y-123454299D01*
X181190476Y-123454299D02*
X180904762Y-123454299D01*
X180904762Y-123454299D02*
X180809524Y-123406680D01*
X180809524Y-123406680D02*
X180761905Y-123359060D01*
X182333333Y-123454299D02*
X181761905Y-123454299D01*
X182047619Y-123454299D02*
X182047619Y-122454299D01*
X182047619Y-122454299D02*
X181952381Y-122597156D01*
X181952381Y-122597156D02*
X181857143Y-122692394D01*
X181857143Y-122692394D02*
X181761905Y-122740013D01*
X183190476Y-122787632D02*
X183190476Y-123454299D01*
X182952381Y-122406680D02*
X182714286Y-123120965D01*
X182714286Y-123120965D02*
X183333333Y-123120965D01*
%TO.C,SW313*%
X159714286Y-123406680D02*
X159857143Y-123454299D01*
X159857143Y-123454299D02*
X160095238Y-123454299D01*
X160095238Y-123454299D02*
X160190476Y-123406680D01*
X160190476Y-123406680D02*
X160238095Y-123359060D01*
X160238095Y-123359060D02*
X160285714Y-123263822D01*
X160285714Y-123263822D02*
X160285714Y-123168584D01*
X160285714Y-123168584D02*
X160238095Y-123073346D01*
X160238095Y-123073346D02*
X160190476Y-123025727D01*
X160190476Y-123025727D02*
X160095238Y-122978108D01*
X160095238Y-122978108D02*
X159904762Y-122930489D01*
X159904762Y-122930489D02*
X159809524Y-122882870D01*
X159809524Y-122882870D02*
X159761905Y-122835251D01*
X159761905Y-122835251D02*
X159714286Y-122740013D01*
X159714286Y-122740013D02*
X159714286Y-122644775D01*
X159714286Y-122644775D02*
X159761905Y-122549537D01*
X159761905Y-122549537D02*
X159809524Y-122501918D01*
X159809524Y-122501918D02*
X159904762Y-122454299D01*
X159904762Y-122454299D02*
X160142857Y-122454299D01*
X160142857Y-122454299D02*
X160285714Y-122501918D01*
X160619048Y-122454299D02*
X160857143Y-123454299D01*
X160857143Y-123454299D02*
X161047619Y-122740013D01*
X161047619Y-122740013D02*
X161238095Y-123454299D01*
X161238095Y-123454299D02*
X161476191Y-122454299D01*
X161761905Y-122454299D02*
X162380952Y-122454299D01*
X162380952Y-122454299D02*
X162047619Y-122835251D01*
X162047619Y-122835251D02*
X162190476Y-122835251D01*
X162190476Y-122835251D02*
X162285714Y-122882870D01*
X162285714Y-122882870D02*
X162333333Y-122930489D01*
X162333333Y-122930489D02*
X162380952Y-123025727D01*
X162380952Y-123025727D02*
X162380952Y-123263822D01*
X162380952Y-123263822D02*
X162333333Y-123359060D01*
X162333333Y-123359060D02*
X162285714Y-123406680D01*
X162285714Y-123406680D02*
X162190476Y-123454299D01*
X162190476Y-123454299D02*
X161904762Y-123454299D01*
X161904762Y-123454299D02*
X161809524Y-123406680D01*
X161809524Y-123406680D02*
X161761905Y-123359060D01*
X163333333Y-123454299D02*
X162761905Y-123454299D01*
X163047619Y-123454299D02*
X163047619Y-122454299D01*
X163047619Y-122454299D02*
X162952381Y-122597156D01*
X162952381Y-122597156D02*
X162857143Y-122692394D01*
X162857143Y-122692394D02*
X162761905Y-122740013D01*
X163666667Y-122454299D02*
X164285714Y-122454299D01*
X164285714Y-122454299D02*
X163952381Y-122835251D01*
X163952381Y-122835251D02*
X164095238Y-122835251D01*
X164095238Y-122835251D02*
X164190476Y-122882870D01*
X164190476Y-122882870D02*
X164238095Y-122930489D01*
X164238095Y-122930489D02*
X164285714Y-123025727D01*
X164285714Y-123025727D02*
X164285714Y-123263822D01*
X164285714Y-123263822D02*
X164238095Y-123359060D01*
X164238095Y-123359060D02*
X164190476Y-123406680D01*
X164190476Y-123406680D02*
X164095238Y-123454299D01*
X164095238Y-123454299D02*
X163809524Y-123454299D01*
X163809524Y-123454299D02*
X163714286Y-123406680D01*
X163714286Y-123406680D02*
X163666667Y-123359060D01*
%TO.C,SW318*%
X259464286Y-132906680D02*
X259607143Y-132954299D01*
X259607143Y-132954299D02*
X259845238Y-132954299D01*
X259845238Y-132954299D02*
X259940476Y-132906680D01*
X259940476Y-132906680D02*
X259988095Y-132859060D01*
X259988095Y-132859060D02*
X260035714Y-132763822D01*
X260035714Y-132763822D02*
X260035714Y-132668584D01*
X260035714Y-132668584D02*
X259988095Y-132573346D01*
X259988095Y-132573346D02*
X259940476Y-132525727D01*
X259940476Y-132525727D02*
X259845238Y-132478108D01*
X259845238Y-132478108D02*
X259654762Y-132430489D01*
X259654762Y-132430489D02*
X259559524Y-132382870D01*
X259559524Y-132382870D02*
X259511905Y-132335251D01*
X259511905Y-132335251D02*
X259464286Y-132240013D01*
X259464286Y-132240013D02*
X259464286Y-132144775D01*
X259464286Y-132144775D02*
X259511905Y-132049537D01*
X259511905Y-132049537D02*
X259559524Y-132001918D01*
X259559524Y-132001918D02*
X259654762Y-131954299D01*
X259654762Y-131954299D02*
X259892857Y-131954299D01*
X259892857Y-131954299D02*
X260035714Y-132001918D01*
X260369048Y-131954299D02*
X260607143Y-132954299D01*
X260607143Y-132954299D02*
X260797619Y-132240013D01*
X260797619Y-132240013D02*
X260988095Y-132954299D01*
X260988095Y-132954299D02*
X261226191Y-131954299D01*
X261511905Y-131954299D02*
X262130952Y-131954299D01*
X262130952Y-131954299D02*
X261797619Y-132335251D01*
X261797619Y-132335251D02*
X261940476Y-132335251D01*
X261940476Y-132335251D02*
X262035714Y-132382870D01*
X262035714Y-132382870D02*
X262083333Y-132430489D01*
X262083333Y-132430489D02*
X262130952Y-132525727D01*
X262130952Y-132525727D02*
X262130952Y-132763822D01*
X262130952Y-132763822D02*
X262083333Y-132859060D01*
X262083333Y-132859060D02*
X262035714Y-132906680D01*
X262035714Y-132906680D02*
X261940476Y-132954299D01*
X261940476Y-132954299D02*
X261654762Y-132954299D01*
X261654762Y-132954299D02*
X261559524Y-132906680D01*
X261559524Y-132906680D02*
X261511905Y-132859060D01*
X263083333Y-132954299D02*
X262511905Y-132954299D01*
X262797619Y-132954299D02*
X262797619Y-131954299D01*
X262797619Y-131954299D02*
X262702381Y-132097156D01*
X262702381Y-132097156D02*
X262607143Y-132192394D01*
X262607143Y-132192394D02*
X262511905Y-132240013D01*
X263654762Y-132382870D02*
X263559524Y-132335251D01*
X263559524Y-132335251D02*
X263511905Y-132287632D01*
X263511905Y-132287632D02*
X263464286Y-132192394D01*
X263464286Y-132192394D02*
X263464286Y-132144775D01*
X263464286Y-132144775D02*
X263511905Y-132049537D01*
X263511905Y-132049537D02*
X263559524Y-132001918D01*
X263559524Y-132001918D02*
X263654762Y-131954299D01*
X263654762Y-131954299D02*
X263845238Y-131954299D01*
X263845238Y-131954299D02*
X263940476Y-132001918D01*
X263940476Y-132001918D02*
X263988095Y-132049537D01*
X263988095Y-132049537D02*
X264035714Y-132144775D01*
X264035714Y-132144775D02*
X264035714Y-132192394D01*
X264035714Y-132192394D02*
X263988095Y-132287632D01*
X263988095Y-132287632D02*
X263940476Y-132335251D01*
X263940476Y-132335251D02*
X263845238Y-132382870D01*
X263845238Y-132382870D02*
X263654762Y-132382870D01*
X263654762Y-132382870D02*
X263559524Y-132430489D01*
X263559524Y-132430489D02*
X263511905Y-132478108D01*
X263511905Y-132478108D02*
X263464286Y-132573346D01*
X263464286Y-132573346D02*
X263464286Y-132763822D01*
X263464286Y-132763822D02*
X263511905Y-132859060D01*
X263511905Y-132859060D02*
X263559524Y-132906680D01*
X263559524Y-132906680D02*
X263654762Y-132954299D01*
X263654762Y-132954299D02*
X263845238Y-132954299D01*
X263845238Y-132954299D02*
X263940476Y-132906680D01*
X263940476Y-132906680D02*
X263988095Y-132859060D01*
X263988095Y-132859060D02*
X264035714Y-132763822D01*
X264035714Y-132763822D02*
X264035714Y-132573346D01*
X264035714Y-132573346D02*
X263988095Y-132478108D01*
X263988095Y-132478108D02*
X263940476Y-132430489D01*
X263940476Y-132430489D02*
X263845238Y-132382870D01*
%TO.C,SW310*%
X221464286Y-104406680D02*
X221607143Y-104454299D01*
X221607143Y-104454299D02*
X221845238Y-104454299D01*
X221845238Y-104454299D02*
X221940476Y-104406680D01*
X221940476Y-104406680D02*
X221988095Y-104359060D01*
X221988095Y-104359060D02*
X222035714Y-104263822D01*
X222035714Y-104263822D02*
X222035714Y-104168584D01*
X222035714Y-104168584D02*
X221988095Y-104073346D01*
X221988095Y-104073346D02*
X221940476Y-104025727D01*
X221940476Y-104025727D02*
X221845238Y-103978108D01*
X221845238Y-103978108D02*
X221654762Y-103930489D01*
X221654762Y-103930489D02*
X221559524Y-103882870D01*
X221559524Y-103882870D02*
X221511905Y-103835251D01*
X221511905Y-103835251D02*
X221464286Y-103740013D01*
X221464286Y-103740013D02*
X221464286Y-103644775D01*
X221464286Y-103644775D02*
X221511905Y-103549537D01*
X221511905Y-103549537D02*
X221559524Y-103501918D01*
X221559524Y-103501918D02*
X221654762Y-103454299D01*
X221654762Y-103454299D02*
X221892857Y-103454299D01*
X221892857Y-103454299D02*
X222035714Y-103501918D01*
X222369048Y-103454299D02*
X222607143Y-104454299D01*
X222607143Y-104454299D02*
X222797619Y-103740013D01*
X222797619Y-103740013D02*
X222988095Y-104454299D01*
X222988095Y-104454299D02*
X223226191Y-103454299D01*
X223511905Y-103454299D02*
X224130952Y-103454299D01*
X224130952Y-103454299D02*
X223797619Y-103835251D01*
X223797619Y-103835251D02*
X223940476Y-103835251D01*
X223940476Y-103835251D02*
X224035714Y-103882870D01*
X224035714Y-103882870D02*
X224083333Y-103930489D01*
X224083333Y-103930489D02*
X224130952Y-104025727D01*
X224130952Y-104025727D02*
X224130952Y-104263822D01*
X224130952Y-104263822D02*
X224083333Y-104359060D01*
X224083333Y-104359060D02*
X224035714Y-104406680D01*
X224035714Y-104406680D02*
X223940476Y-104454299D01*
X223940476Y-104454299D02*
X223654762Y-104454299D01*
X223654762Y-104454299D02*
X223559524Y-104406680D01*
X223559524Y-104406680D02*
X223511905Y-104359060D01*
X225083333Y-104454299D02*
X224511905Y-104454299D01*
X224797619Y-104454299D02*
X224797619Y-103454299D01*
X224797619Y-103454299D02*
X224702381Y-103597156D01*
X224702381Y-103597156D02*
X224607143Y-103692394D01*
X224607143Y-103692394D02*
X224511905Y-103740013D01*
X225702381Y-103454299D02*
X225797619Y-103454299D01*
X225797619Y-103454299D02*
X225892857Y-103501918D01*
X225892857Y-103501918D02*
X225940476Y-103549537D01*
X225940476Y-103549537D02*
X225988095Y-103644775D01*
X225988095Y-103644775D02*
X226035714Y-103835251D01*
X226035714Y-103835251D02*
X226035714Y-104073346D01*
X226035714Y-104073346D02*
X225988095Y-104263822D01*
X225988095Y-104263822D02*
X225940476Y-104359060D01*
X225940476Y-104359060D02*
X225892857Y-104406680D01*
X225892857Y-104406680D02*
X225797619Y-104454299D01*
X225797619Y-104454299D02*
X225702381Y-104454299D01*
X225702381Y-104454299D02*
X225607143Y-104406680D01*
X225607143Y-104406680D02*
X225559524Y-104359060D01*
X225559524Y-104359060D02*
X225511905Y-104263822D01*
X225511905Y-104263822D02*
X225464286Y-104073346D01*
X225464286Y-104073346D02*
X225464286Y-103835251D01*
X225464286Y-103835251D02*
X225511905Y-103644775D01*
X225511905Y-103644775D02*
X225559524Y-103549537D01*
X225559524Y-103549537D02*
X225607143Y-103501918D01*
X225607143Y-103501918D02*
X225702381Y-103454299D01*
%TO.C,SW308*%
X178714286Y-104406680D02*
X178857143Y-104454299D01*
X178857143Y-104454299D02*
X179095238Y-104454299D01*
X179095238Y-104454299D02*
X179190476Y-104406680D01*
X179190476Y-104406680D02*
X179238095Y-104359060D01*
X179238095Y-104359060D02*
X179285714Y-104263822D01*
X179285714Y-104263822D02*
X179285714Y-104168584D01*
X179285714Y-104168584D02*
X179238095Y-104073346D01*
X179238095Y-104073346D02*
X179190476Y-104025727D01*
X179190476Y-104025727D02*
X179095238Y-103978108D01*
X179095238Y-103978108D02*
X178904762Y-103930489D01*
X178904762Y-103930489D02*
X178809524Y-103882870D01*
X178809524Y-103882870D02*
X178761905Y-103835251D01*
X178761905Y-103835251D02*
X178714286Y-103740013D01*
X178714286Y-103740013D02*
X178714286Y-103644775D01*
X178714286Y-103644775D02*
X178761905Y-103549537D01*
X178761905Y-103549537D02*
X178809524Y-103501918D01*
X178809524Y-103501918D02*
X178904762Y-103454299D01*
X178904762Y-103454299D02*
X179142857Y-103454299D01*
X179142857Y-103454299D02*
X179285714Y-103501918D01*
X179619048Y-103454299D02*
X179857143Y-104454299D01*
X179857143Y-104454299D02*
X180047619Y-103740013D01*
X180047619Y-103740013D02*
X180238095Y-104454299D01*
X180238095Y-104454299D02*
X180476191Y-103454299D01*
X180761905Y-103454299D02*
X181380952Y-103454299D01*
X181380952Y-103454299D02*
X181047619Y-103835251D01*
X181047619Y-103835251D02*
X181190476Y-103835251D01*
X181190476Y-103835251D02*
X181285714Y-103882870D01*
X181285714Y-103882870D02*
X181333333Y-103930489D01*
X181333333Y-103930489D02*
X181380952Y-104025727D01*
X181380952Y-104025727D02*
X181380952Y-104263822D01*
X181380952Y-104263822D02*
X181333333Y-104359060D01*
X181333333Y-104359060D02*
X181285714Y-104406680D01*
X181285714Y-104406680D02*
X181190476Y-104454299D01*
X181190476Y-104454299D02*
X180904762Y-104454299D01*
X180904762Y-104454299D02*
X180809524Y-104406680D01*
X180809524Y-104406680D02*
X180761905Y-104359060D01*
X182000000Y-103454299D02*
X182095238Y-103454299D01*
X182095238Y-103454299D02*
X182190476Y-103501918D01*
X182190476Y-103501918D02*
X182238095Y-103549537D01*
X182238095Y-103549537D02*
X182285714Y-103644775D01*
X182285714Y-103644775D02*
X182333333Y-103835251D01*
X182333333Y-103835251D02*
X182333333Y-104073346D01*
X182333333Y-104073346D02*
X182285714Y-104263822D01*
X182285714Y-104263822D02*
X182238095Y-104359060D01*
X182238095Y-104359060D02*
X182190476Y-104406680D01*
X182190476Y-104406680D02*
X182095238Y-104454299D01*
X182095238Y-104454299D02*
X182000000Y-104454299D01*
X182000000Y-104454299D02*
X181904762Y-104406680D01*
X181904762Y-104406680D02*
X181857143Y-104359060D01*
X181857143Y-104359060D02*
X181809524Y-104263822D01*
X181809524Y-104263822D02*
X181761905Y-104073346D01*
X181761905Y-104073346D02*
X181761905Y-103835251D01*
X181761905Y-103835251D02*
X181809524Y-103644775D01*
X181809524Y-103644775D02*
X181857143Y-103549537D01*
X181857143Y-103549537D02*
X181904762Y-103501918D01*
X181904762Y-103501918D02*
X182000000Y-103454299D01*
X182904762Y-103882870D02*
X182809524Y-103835251D01*
X182809524Y-103835251D02*
X182761905Y-103787632D01*
X182761905Y-103787632D02*
X182714286Y-103692394D01*
X182714286Y-103692394D02*
X182714286Y-103644775D01*
X182714286Y-103644775D02*
X182761905Y-103549537D01*
X182761905Y-103549537D02*
X182809524Y-103501918D01*
X182809524Y-103501918D02*
X182904762Y-103454299D01*
X182904762Y-103454299D02*
X183095238Y-103454299D01*
X183095238Y-103454299D02*
X183190476Y-103501918D01*
X183190476Y-103501918D02*
X183238095Y-103549537D01*
X183238095Y-103549537D02*
X183285714Y-103644775D01*
X183285714Y-103644775D02*
X183285714Y-103692394D01*
X183285714Y-103692394D02*
X183238095Y-103787632D01*
X183238095Y-103787632D02*
X183190476Y-103835251D01*
X183190476Y-103835251D02*
X183095238Y-103882870D01*
X183095238Y-103882870D02*
X182904762Y-103882870D01*
X182904762Y-103882870D02*
X182809524Y-103930489D01*
X182809524Y-103930489D02*
X182761905Y-103978108D01*
X182761905Y-103978108D02*
X182714286Y-104073346D01*
X182714286Y-104073346D02*
X182714286Y-104263822D01*
X182714286Y-104263822D02*
X182761905Y-104359060D01*
X182761905Y-104359060D02*
X182809524Y-104406680D01*
X182809524Y-104406680D02*
X182904762Y-104454299D01*
X182904762Y-104454299D02*
X183095238Y-104454299D01*
X183095238Y-104454299D02*
X183190476Y-104406680D01*
X183190476Y-104406680D02*
X183238095Y-104359060D01*
X183238095Y-104359060D02*
X183285714Y-104263822D01*
X183285714Y-104263822D02*
X183285714Y-104073346D01*
X183285714Y-104073346D02*
X183238095Y-103978108D01*
X183238095Y-103978108D02*
X183190476Y-103930489D01*
X183190476Y-103930489D02*
X183095238Y-103882870D01*
%TO.C,SW304*%
X229814286Y-91956680D02*
X229957143Y-92004299D01*
X229957143Y-92004299D02*
X230195238Y-92004299D01*
X230195238Y-92004299D02*
X230290476Y-91956680D01*
X230290476Y-91956680D02*
X230338095Y-91909060D01*
X230338095Y-91909060D02*
X230385714Y-91813822D01*
X230385714Y-91813822D02*
X230385714Y-91718584D01*
X230385714Y-91718584D02*
X230338095Y-91623346D01*
X230338095Y-91623346D02*
X230290476Y-91575727D01*
X230290476Y-91575727D02*
X230195238Y-91528108D01*
X230195238Y-91528108D02*
X230004762Y-91480489D01*
X230004762Y-91480489D02*
X229909524Y-91432870D01*
X229909524Y-91432870D02*
X229861905Y-91385251D01*
X229861905Y-91385251D02*
X229814286Y-91290013D01*
X229814286Y-91290013D02*
X229814286Y-91194775D01*
X229814286Y-91194775D02*
X229861905Y-91099537D01*
X229861905Y-91099537D02*
X229909524Y-91051918D01*
X229909524Y-91051918D02*
X230004762Y-91004299D01*
X230004762Y-91004299D02*
X230242857Y-91004299D01*
X230242857Y-91004299D02*
X230385714Y-91051918D01*
X230719048Y-91004299D02*
X230957143Y-92004299D01*
X230957143Y-92004299D02*
X231147619Y-91290013D01*
X231147619Y-91290013D02*
X231338095Y-92004299D01*
X231338095Y-92004299D02*
X231576191Y-91004299D01*
X231861905Y-91004299D02*
X232480952Y-91004299D01*
X232480952Y-91004299D02*
X232147619Y-91385251D01*
X232147619Y-91385251D02*
X232290476Y-91385251D01*
X232290476Y-91385251D02*
X232385714Y-91432870D01*
X232385714Y-91432870D02*
X232433333Y-91480489D01*
X232433333Y-91480489D02*
X232480952Y-91575727D01*
X232480952Y-91575727D02*
X232480952Y-91813822D01*
X232480952Y-91813822D02*
X232433333Y-91909060D01*
X232433333Y-91909060D02*
X232385714Y-91956680D01*
X232385714Y-91956680D02*
X232290476Y-92004299D01*
X232290476Y-92004299D02*
X232004762Y-92004299D01*
X232004762Y-92004299D02*
X231909524Y-91956680D01*
X231909524Y-91956680D02*
X231861905Y-91909060D01*
X233100000Y-91004299D02*
X233195238Y-91004299D01*
X233195238Y-91004299D02*
X233290476Y-91051918D01*
X233290476Y-91051918D02*
X233338095Y-91099537D01*
X233338095Y-91099537D02*
X233385714Y-91194775D01*
X233385714Y-91194775D02*
X233433333Y-91385251D01*
X233433333Y-91385251D02*
X233433333Y-91623346D01*
X233433333Y-91623346D02*
X233385714Y-91813822D01*
X233385714Y-91813822D02*
X233338095Y-91909060D01*
X233338095Y-91909060D02*
X233290476Y-91956680D01*
X233290476Y-91956680D02*
X233195238Y-92004299D01*
X233195238Y-92004299D02*
X233100000Y-92004299D01*
X233100000Y-92004299D02*
X233004762Y-91956680D01*
X233004762Y-91956680D02*
X232957143Y-91909060D01*
X232957143Y-91909060D02*
X232909524Y-91813822D01*
X232909524Y-91813822D02*
X232861905Y-91623346D01*
X232861905Y-91623346D02*
X232861905Y-91385251D01*
X232861905Y-91385251D02*
X232909524Y-91194775D01*
X232909524Y-91194775D02*
X232957143Y-91099537D01*
X232957143Y-91099537D02*
X233004762Y-91051918D01*
X233004762Y-91051918D02*
X233100000Y-91004299D01*
X234290476Y-91337632D02*
X234290476Y-92004299D01*
X234052381Y-90956680D02*
X233814286Y-91670965D01*
X233814286Y-91670965D02*
X234433333Y-91670965D01*
%TO.C,SW307*%
X159714286Y-104406680D02*
X159857143Y-104454299D01*
X159857143Y-104454299D02*
X160095238Y-104454299D01*
X160095238Y-104454299D02*
X160190476Y-104406680D01*
X160190476Y-104406680D02*
X160238095Y-104359060D01*
X160238095Y-104359060D02*
X160285714Y-104263822D01*
X160285714Y-104263822D02*
X160285714Y-104168584D01*
X160285714Y-104168584D02*
X160238095Y-104073346D01*
X160238095Y-104073346D02*
X160190476Y-104025727D01*
X160190476Y-104025727D02*
X160095238Y-103978108D01*
X160095238Y-103978108D02*
X159904762Y-103930489D01*
X159904762Y-103930489D02*
X159809524Y-103882870D01*
X159809524Y-103882870D02*
X159761905Y-103835251D01*
X159761905Y-103835251D02*
X159714286Y-103740013D01*
X159714286Y-103740013D02*
X159714286Y-103644775D01*
X159714286Y-103644775D02*
X159761905Y-103549537D01*
X159761905Y-103549537D02*
X159809524Y-103501918D01*
X159809524Y-103501918D02*
X159904762Y-103454299D01*
X159904762Y-103454299D02*
X160142857Y-103454299D01*
X160142857Y-103454299D02*
X160285714Y-103501918D01*
X160619048Y-103454299D02*
X160857143Y-104454299D01*
X160857143Y-104454299D02*
X161047619Y-103740013D01*
X161047619Y-103740013D02*
X161238095Y-104454299D01*
X161238095Y-104454299D02*
X161476191Y-103454299D01*
X161761905Y-103454299D02*
X162380952Y-103454299D01*
X162380952Y-103454299D02*
X162047619Y-103835251D01*
X162047619Y-103835251D02*
X162190476Y-103835251D01*
X162190476Y-103835251D02*
X162285714Y-103882870D01*
X162285714Y-103882870D02*
X162333333Y-103930489D01*
X162333333Y-103930489D02*
X162380952Y-104025727D01*
X162380952Y-104025727D02*
X162380952Y-104263822D01*
X162380952Y-104263822D02*
X162333333Y-104359060D01*
X162333333Y-104359060D02*
X162285714Y-104406680D01*
X162285714Y-104406680D02*
X162190476Y-104454299D01*
X162190476Y-104454299D02*
X161904762Y-104454299D01*
X161904762Y-104454299D02*
X161809524Y-104406680D01*
X161809524Y-104406680D02*
X161761905Y-104359060D01*
X163000000Y-103454299D02*
X163095238Y-103454299D01*
X163095238Y-103454299D02*
X163190476Y-103501918D01*
X163190476Y-103501918D02*
X163238095Y-103549537D01*
X163238095Y-103549537D02*
X163285714Y-103644775D01*
X163285714Y-103644775D02*
X163333333Y-103835251D01*
X163333333Y-103835251D02*
X163333333Y-104073346D01*
X163333333Y-104073346D02*
X163285714Y-104263822D01*
X163285714Y-104263822D02*
X163238095Y-104359060D01*
X163238095Y-104359060D02*
X163190476Y-104406680D01*
X163190476Y-104406680D02*
X163095238Y-104454299D01*
X163095238Y-104454299D02*
X163000000Y-104454299D01*
X163000000Y-104454299D02*
X162904762Y-104406680D01*
X162904762Y-104406680D02*
X162857143Y-104359060D01*
X162857143Y-104359060D02*
X162809524Y-104263822D01*
X162809524Y-104263822D02*
X162761905Y-104073346D01*
X162761905Y-104073346D02*
X162761905Y-103835251D01*
X162761905Y-103835251D02*
X162809524Y-103644775D01*
X162809524Y-103644775D02*
X162857143Y-103549537D01*
X162857143Y-103549537D02*
X162904762Y-103501918D01*
X162904762Y-103501918D02*
X163000000Y-103454299D01*
X163666667Y-103454299D02*
X164333333Y-103454299D01*
X164333333Y-103454299D02*
X163904762Y-104454299D01*
%TO.C,SW305*%
X240464286Y-92006680D02*
X240607143Y-92054299D01*
X240607143Y-92054299D02*
X240845238Y-92054299D01*
X240845238Y-92054299D02*
X240940476Y-92006680D01*
X240940476Y-92006680D02*
X240988095Y-91959060D01*
X240988095Y-91959060D02*
X241035714Y-91863822D01*
X241035714Y-91863822D02*
X241035714Y-91768584D01*
X241035714Y-91768584D02*
X240988095Y-91673346D01*
X240988095Y-91673346D02*
X240940476Y-91625727D01*
X240940476Y-91625727D02*
X240845238Y-91578108D01*
X240845238Y-91578108D02*
X240654762Y-91530489D01*
X240654762Y-91530489D02*
X240559524Y-91482870D01*
X240559524Y-91482870D02*
X240511905Y-91435251D01*
X240511905Y-91435251D02*
X240464286Y-91340013D01*
X240464286Y-91340013D02*
X240464286Y-91244775D01*
X240464286Y-91244775D02*
X240511905Y-91149537D01*
X240511905Y-91149537D02*
X240559524Y-91101918D01*
X240559524Y-91101918D02*
X240654762Y-91054299D01*
X240654762Y-91054299D02*
X240892857Y-91054299D01*
X240892857Y-91054299D02*
X241035714Y-91101918D01*
X241369048Y-91054299D02*
X241607143Y-92054299D01*
X241607143Y-92054299D02*
X241797619Y-91340013D01*
X241797619Y-91340013D02*
X241988095Y-92054299D01*
X241988095Y-92054299D02*
X242226191Y-91054299D01*
X242511905Y-91054299D02*
X243130952Y-91054299D01*
X243130952Y-91054299D02*
X242797619Y-91435251D01*
X242797619Y-91435251D02*
X242940476Y-91435251D01*
X242940476Y-91435251D02*
X243035714Y-91482870D01*
X243035714Y-91482870D02*
X243083333Y-91530489D01*
X243083333Y-91530489D02*
X243130952Y-91625727D01*
X243130952Y-91625727D02*
X243130952Y-91863822D01*
X243130952Y-91863822D02*
X243083333Y-91959060D01*
X243083333Y-91959060D02*
X243035714Y-92006680D01*
X243035714Y-92006680D02*
X242940476Y-92054299D01*
X242940476Y-92054299D02*
X242654762Y-92054299D01*
X242654762Y-92054299D02*
X242559524Y-92006680D01*
X242559524Y-92006680D02*
X242511905Y-91959060D01*
X243750000Y-91054299D02*
X243845238Y-91054299D01*
X243845238Y-91054299D02*
X243940476Y-91101918D01*
X243940476Y-91101918D02*
X243988095Y-91149537D01*
X243988095Y-91149537D02*
X244035714Y-91244775D01*
X244035714Y-91244775D02*
X244083333Y-91435251D01*
X244083333Y-91435251D02*
X244083333Y-91673346D01*
X244083333Y-91673346D02*
X244035714Y-91863822D01*
X244035714Y-91863822D02*
X243988095Y-91959060D01*
X243988095Y-91959060D02*
X243940476Y-92006680D01*
X243940476Y-92006680D02*
X243845238Y-92054299D01*
X243845238Y-92054299D02*
X243750000Y-92054299D01*
X243750000Y-92054299D02*
X243654762Y-92006680D01*
X243654762Y-92006680D02*
X243607143Y-91959060D01*
X243607143Y-91959060D02*
X243559524Y-91863822D01*
X243559524Y-91863822D02*
X243511905Y-91673346D01*
X243511905Y-91673346D02*
X243511905Y-91435251D01*
X243511905Y-91435251D02*
X243559524Y-91244775D01*
X243559524Y-91244775D02*
X243607143Y-91149537D01*
X243607143Y-91149537D02*
X243654762Y-91101918D01*
X243654762Y-91101918D02*
X243750000Y-91054299D01*
X244988095Y-91054299D02*
X244511905Y-91054299D01*
X244511905Y-91054299D02*
X244464286Y-91530489D01*
X244464286Y-91530489D02*
X244511905Y-91482870D01*
X244511905Y-91482870D02*
X244607143Y-91435251D01*
X244607143Y-91435251D02*
X244845238Y-91435251D01*
X244845238Y-91435251D02*
X244940476Y-91482870D01*
X244940476Y-91482870D02*
X244988095Y-91530489D01*
X244988095Y-91530489D02*
X245035714Y-91625727D01*
X245035714Y-91625727D02*
X245035714Y-91863822D01*
X245035714Y-91863822D02*
X244988095Y-91959060D01*
X244988095Y-91959060D02*
X244940476Y-92006680D01*
X244940476Y-92006680D02*
X244845238Y-92054299D01*
X244845238Y-92054299D02*
X244607143Y-92054299D01*
X244607143Y-92054299D02*
X244511905Y-92006680D01*
X244511905Y-92006680D02*
X244464286Y-91959060D01*
%TO.C,SW333*%
X240464286Y-180406680D02*
X240607143Y-180454299D01*
X240607143Y-180454299D02*
X240845238Y-180454299D01*
X240845238Y-180454299D02*
X240940476Y-180406680D01*
X240940476Y-180406680D02*
X240988095Y-180359060D01*
X240988095Y-180359060D02*
X241035714Y-180263822D01*
X241035714Y-180263822D02*
X241035714Y-180168584D01*
X241035714Y-180168584D02*
X240988095Y-180073346D01*
X240988095Y-180073346D02*
X240940476Y-180025727D01*
X240940476Y-180025727D02*
X240845238Y-179978108D01*
X240845238Y-179978108D02*
X240654762Y-179930489D01*
X240654762Y-179930489D02*
X240559524Y-179882870D01*
X240559524Y-179882870D02*
X240511905Y-179835251D01*
X240511905Y-179835251D02*
X240464286Y-179740013D01*
X240464286Y-179740013D02*
X240464286Y-179644775D01*
X240464286Y-179644775D02*
X240511905Y-179549537D01*
X240511905Y-179549537D02*
X240559524Y-179501918D01*
X240559524Y-179501918D02*
X240654762Y-179454299D01*
X240654762Y-179454299D02*
X240892857Y-179454299D01*
X240892857Y-179454299D02*
X241035714Y-179501918D01*
X241369048Y-179454299D02*
X241607143Y-180454299D01*
X241607143Y-180454299D02*
X241797619Y-179740013D01*
X241797619Y-179740013D02*
X241988095Y-180454299D01*
X241988095Y-180454299D02*
X242226191Y-179454299D01*
X242511905Y-179454299D02*
X243130952Y-179454299D01*
X243130952Y-179454299D02*
X242797619Y-179835251D01*
X242797619Y-179835251D02*
X242940476Y-179835251D01*
X242940476Y-179835251D02*
X243035714Y-179882870D01*
X243035714Y-179882870D02*
X243083333Y-179930489D01*
X243083333Y-179930489D02*
X243130952Y-180025727D01*
X243130952Y-180025727D02*
X243130952Y-180263822D01*
X243130952Y-180263822D02*
X243083333Y-180359060D01*
X243083333Y-180359060D02*
X243035714Y-180406680D01*
X243035714Y-180406680D02*
X242940476Y-180454299D01*
X242940476Y-180454299D02*
X242654762Y-180454299D01*
X242654762Y-180454299D02*
X242559524Y-180406680D01*
X242559524Y-180406680D02*
X242511905Y-180359060D01*
X243464286Y-179454299D02*
X244083333Y-179454299D01*
X244083333Y-179454299D02*
X243750000Y-179835251D01*
X243750000Y-179835251D02*
X243892857Y-179835251D01*
X243892857Y-179835251D02*
X243988095Y-179882870D01*
X243988095Y-179882870D02*
X244035714Y-179930489D01*
X244035714Y-179930489D02*
X244083333Y-180025727D01*
X244083333Y-180025727D02*
X244083333Y-180263822D01*
X244083333Y-180263822D02*
X244035714Y-180359060D01*
X244035714Y-180359060D02*
X243988095Y-180406680D01*
X243988095Y-180406680D02*
X243892857Y-180454299D01*
X243892857Y-180454299D02*
X243607143Y-180454299D01*
X243607143Y-180454299D02*
X243511905Y-180406680D01*
X243511905Y-180406680D02*
X243464286Y-180359060D01*
X244416667Y-179454299D02*
X245035714Y-179454299D01*
X245035714Y-179454299D02*
X244702381Y-179835251D01*
X244702381Y-179835251D02*
X244845238Y-179835251D01*
X244845238Y-179835251D02*
X244940476Y-179882870D01*
X244940476Y-179882870D02*
X244988095Y-179930489D01*
X244988095Y-179930489D02*
X245035714Y-180025727D01*
X245035714Y-180025727D02*
X245035714Y-180263822D01*
X245035714Y-180263822D02*
X244988095Y-180359060D01*
X244988095Y-180359060D02*
X244940476Y-180406680D01*
X244940476Y-180406680D02*
X244845238Y-180454299D01*
X244845238Y-180454299D02*
X244559524Y-180454299D01*
X244559524Y-180454299D02*
X244464286Y-180406680D01*
X244464286Y-180406680D02*
X244416667Y-180359060D01*
%TO.C,SW332*%
X211964286Y-180406680D02*
X212107143Y-180454299D01*
X212107143Y-180454299D02*
X212345238Y-180454299D01*
X212345238Y-180454299D02*
X212440476Y-180406680D01*
X212440476Y-180406680D02*
X212488095Y-180359060D01*
X212488095Y-180359060D02*
X212535714Y-180263822D01*
X212535714Y-180263822D02*
X212535714Y-180168584D01*
X212535714Y-180168584D02*
X212488095Y-180073346D01*
X212488095Y-180073346D02*
X212440476Y-180025727D01*
X212440476Y-180025727D02*
X212345238Y-179978108D01*
X212345238Y-179978108D02*
X212154762Y-179930489D01*
X212154762Y-179930489D02*
X212059524Y-179882870D01*
X212059524Y-179882870D02*
X212011905Y-179835251D01*
X212011905Y-179835251D02*
X211964286Y-179740013D01*
X211964286Y-179740013D02*
X211964286Y-179644775D01*
X211964286Y-179644775D02*
X212011905Y-179549537D01*
X212011905Y-179549537D02*
X212059524Y-179501918D01*
X212059524Y-179501918D02*
X212154762Y-179454299D01*
X212154762Y-179454299D02*
X212392857Y-179454299D01*
X212392857Y-179454299D02*
X212535714Y-179501918D01*
X212869048Y-179454299D02*
X213107143Y-180454299D01*
X213107143Y-180454299D02*
X213297619Y-179740013D01*
X213297619Y-179740013D02*
X213488095Y-180454299D01*
X213488095Y-180454299D02*
X213726191Y-179454299D01*
X214011905Y-179454299D02*
X214630952Y-179454299D01*
X214630952Y-179454299D02*
X214297619Y-179835251D01*
X214297619Y-179835251D02*
X214440476Y-179835251D01*
X214440476Y-179835251D02*
X214535714Y-179882870D01*
X214535714Y-179882870D02*
X214583333Y-179930489D01*
X214583333Y-179930489D02*
X214630952Y-180025727D01*
X214630952Y-180025727D02*
X214630952Y-180263822D01*
X214630952Y-180263822D02*
X214583333Y-180359060D01*
X214583333Y-180359060D02*
X214535714Y-180406680D01*
X214535714Y-180406680D02*
X214440476Y-180454299D01*
X214440476Y-180454299D02*
X214154762Y-180454299D01*
X214154762Y-180454299D02*
X214059524Y-180406680D01*
X214059524Y-180406680D02*
X214011905Y-180359060D01*
X214964286Y-179454299D02*
X215583333Y-179454299D01*
X215583333Y-179454299D02*
X215250000Y-179835251D01*
X215250000Y-179835251D02*
X215392857Y-179835251D01*
X215392857Y-179835251D02*
X215488095Y-179882870D01*
X215488095Y-179882870D02*
X215535714Y-179930489D01*
X215535714Y-179930489D02*
X215583333Y-180025727D01*
X215583333Y-180025727D02*
X215583333Y-180263822D01*
X215583333Y-180263822D02*
X215535714Y-180359060D01*
X215535714Y-180359060D02*
X215488095Y-180406680D01*
X215488095Y-180406680D02*
X215392857Y-180454299D01*
X215392857Y-180454299D02*
X215107143Y-180454299D01*
X215107143Y-180454299D02*
X215011905Y-180406680D01*
X215011905Y-180406680D02*
X214964286Y-180359060D01*
X215964286Y-179549537D02*
X216011905Y-179501918D01*
X216011905Y-179501918D02*
X216107143Y-179454299D01*
X216107143Y-179454299D02*
X216345238Y-179454299D01*
X216345238Y-179454299D02*
X216440476Y-179501918D01*
X216440476Y-179501918D02*
X216488095Y-179549537D01*
X216488095Y-179549537D02*
X216535714Y-179644775D01*
X216535714Y-179644775D02*
X216535714Y-179740013D01*
X216535714Y-179740013D02*
X216488095Y-179882870D01*
X216488095Y-179882870D02*
X215916667Y-180454299D01*
X215916667Y-180454299D02*
X216535714Y-180454299D01*
%TO.C,SW330*%
X159714286Y-180406680D02*
X159857143Y-180454299D01*
X159857143Y-180454299D02*
X160095238Y-180454299D01*
X160095238Y-180454299D02*
X160190476Y-180406680D01*
X160190476Y-180406680D02*
X160238095Y-180359060D01*
X160238095Y-180359060D02*
X160285714Y-180263822D01*
X160285714Y-180263822D02*
X160285714Y-180168584D01*
X160285714Y-180168584D02*
X160238095Y-180073346D01*
X160238095Y-180073346D02*
X160190476Y-180025727D01*
X160190476Y-180025727D02*
X160095238Y-179978108D01*
X160095238Y-179978108D02*
X159904762Y-179930489D01*
X159904762Y-179930489D02*
X159809524Y-179882870D01*
X159809524Y-179882870D02*
X159761905Y-179835251D01*
X159761905Y-179835251D02*
X159714286Y-179740013D01*
X159714286Y-179740013D02*
X159714286Y-179644775D01*
X159714286Y-179644775D02*
X159761905Y-179549537D01*
X159761905Y-179549537D02*
X159809524Y-179501918D01*
X159809524Y-179501918D02*
X159904762Y-179454299D01*
X159904762Y-179454299D02*
X160142857Y-179454299D01*
X160142857Y-179454299D02*
X160285714Y-179501918D01*
X160619048Y-179454299D02*
X160857143Y-180454299D01*
X160857143Y-180454299D02*
X161047619Y-179740013D01*
X161047619Y-179740013D02*
X161238095Y-180454299D01*
X161238095Y-180454299D02*
X161476191Y-179454299D01*
X161761905Y-179454299D02*
X162380952Y-179454299D01*
X162380952Y-179454299D02*
X162047619Y-179835251D01*
X162047619Y-179835251D02*
X162190476Y-179835251D01*
X162190476Y-179835251D02*
X162285714Y-179882870D01*
X162285714Y-179882870D02*
X162333333Y-179930489D01*
X162333333Y-179930489D02*
X162380952Y-180025727D01*
X162380952Y-180025727D02*
X162380952Y-180263822D01*
X162380952Y-180263822D02*
X162333333Y-180359060D01*
X162333333Y-180359060D02*
X162285714Y-180406680D01*
X162285714Y-180406680D02*
X162190476Y-180454299D01*
X162190476Y-180454299D02*
X161904762Y-180454299D01*
X161904762Y-180454299D02*
X161809524Y-180406680D01*
X161809524Y-180406680D02*
X161761905Y-180359060D01*
X162714286Y-179454299D02*
X163333333Y-179454299D01*
X163333333Y-179454299D02*
X163000000Y-179835251D01*
X163000000Y-179835251D02*
X163142857Y-179835251D01*
X163142857Y-179835251D02*
X163238095Y-179882870D01*
X163238095Y-179882870D02*
X163285714Y-179930489D01*
X163285714Y-179930489D02*
X163333333Y-180025727D01*
X163333333Y-180025727D02*
X163333333Y-180263822D01*
X163333333Y-180263822D02*
X163285714Y-180359060D01*
X163285714Y-180359060D02*
X163238095Y-180406680D01*
X163238095Y-180406680D02*
X163142857Y-180454299D01*
X163142857Y-180454299D02*
X162857143Y-180454299D01*
X162857143Y-180454299D02*
X162761905Y-180406680D01*
X162761905Y-180406680D02*
X162714286Y-180359060D01*
X163952381Y-179454299D02*
X164047619Y-179454299D01*
X164047619Y-179454299D02*
X164142857Y-179501918D01*
X164142857Y-179501918D02*
X164190476Y-179549537D01*
X164190476Y-179549537D02*
X164238095Y-179644775D01*
X164238095Y-179644775D02*
X164285714Y-179835251D01*
X164285714Y-179835251D02*
X164285714Y-180073346D01*
X164285714Y-180073346D02*
X164238095Y-180263822D01*
X164238095Y-180263822D02*
X164190476Y-180359060D01*
X164190476Y-180359060D02*
X164142857Y-180406680D01*
X164142857Y-180406680D02*
X164047619Y-180454299D01*
X164047619Y-180454299D02*
X163952381Y-180454299D01*
X163952381Y-180454299D02*
X163857143Y-180406680D01*
X163857143Y-180406680D02*
X163809524Y-180359060D01*
X163809524Y-180359060D02*
X163761905Y-180263822D01*
X163761905Y-180263822D02*
X163714286Y-180073346D01*
X163714286Y-180073346D02*
X163714286Y-179835251D01*
X163714286Y-179835251D02*
X163761905Y-179644775D01*
X163761905Y-179644775D02*
X163809524Y-179549537D01*
X163809524Y-179549537D02*
X163857143Y-179501918D01*
X163857143Y-179501918D02*
X163952381Y-179454299D01*
%TO.C,SW325*%
X178714286Y-161406680D02*
X178857143Y-161454299D01*
X178857143Y-161454299D02*
X179095238Y-161454299D01*
X179095238Y-161454299D02*
X179190476Y-161406680D01*
X179190476Y-161406680D02*
X179238095Y-161359060D01*
X179238095Y-161359060D02*
X179285714Y-161263822D01*
X179285714Y-161263822D02*
X179285714Y-161168584D01*
X179285714Y-161168584D02*
X179238095Y-161073346D01*
X179238095Y-161073346D02*
X179190476Y-161025727D01*
X179190476Y-161025727D02*
X179095238Y-160978108D01*
X179095238Y-160978108D02*
X178904762Y-160930489D01*
X178904762Y-160930489D02*
X178809524Y-160882870D01*
X178809524Y-160882870D02*
X178761905Y-160835251D01*
X178761905Y-160835251D02*
X178714286Y-160740013D01*
X178714286Y-160740013D02*
X178714286Y-160644775D01*
X178714286Y-160644775D02*
X178761905Y-160549537D01*
X178761905Y-160549537D02*
X178809524Y-160501918D01*
X178809524Y-160501918D02*
X178904762Y-160454299D01*
X178904762Y-160454299D02*
X179142857Y-160454299D01*
X179142857Y-160454299D02*
X179285714Y-160501918D01*
X179619048Y-160454299D02*
X179857143Y-161454299D01*
X179857143Y-161454299D02*
X180047619Y-160740013D01*
X180047619Y-160740013D02*
X180238095Y-161454299D01*
X180238095Y-161454299D02*
X180476191Y-160454299D01*
X180761905Y-160454299D02*
X181380952Y-160454299D01*
X181380952Y-160454299D02*
X181047619Y-160835251D01*
X181047619Y-160835251D02*
X181190476Y-160835251D01*
X181190476Y-160835251D02*
X181285714Y-160882870D01*
X181285714Y-160882870D02*
X181333333Y-160930489D01*
X181333333Y-160930489D02*
X181380952Y-161025727D01*
X181380952Y-161025727D02*
X181380952Y-161263822D01*
X181380952Y-161263822D02*
X181333333Y-161359060D01*
X181333333Y-161359060D02*
X181285714Y-161406680D01*
X181285714Y-161406680D02*
X181190476Y-161454299D01*
X181190476Y-161454299D02*
X180904762Y-161454299D01*
X180904762Y-161454299D02*
X180809524Y-161406680D01*
X180809524Y-161406680D02*
X180761905Y-161359060D01*
X181761905Y-160549537D02*
X181809524Y-160501918D01*
X181809524Y-160501918D02*
X181904762Y-160454299D01*
X181904762Y-160454299D02*
X182142857Y-160454299D01*
X182142857Y-160454299D02*
X182238095Y-160501918D01*
X182238095Y-160501918D02*
X182285714Y-160549537D01*
X182285714Y-160549537D02*
X182333333Y-160644775D01*
X182333333Y-160644775D02*
X182333333Y-160740013D01*
X182333333Y-160740013D02*
X182285714Y-160882870D01*
X182285714Y-160882870D02*
X181714286Y-161454299D01*
X181714286Y-161454299D02*
X182333333Y-161454299D01*
X183238095Y-160454299D02*
X182761905Y-160454299D01*
X182761905Y-160454299D02*
X182714286Y-160930489D01*
X182714286Y-160930489D02*
X182761905Y-160882870D01*
X182761905Y-160882870D02*
X182857143Y-160835251D01*
X182857143Y-160835251D02*
X183095238Y-160835251D01*
X183095238Y-160835251D02*
X183190476Y-160882870D01*
X183190476Y-160882870D02*
X183238095Y-160930489D01*
X183238095Y-160930489D02*
X183285714Y-161025727D01*
X183285714Y-161025727D02*
X183285714Y-161263822D01*
X183285714Y-161263822D02*
X183238095Y-161359060D01*
X183238095Y-161359060D02*
X183190476Y-161406680D01*
X183190476Y-161406680D02*
X183095238Y-161454299D01*
X183095238Y-161454299D02*
X182857143Y-161454299D01*
X182857143Y-161454299D02*
X182761905Y-161406680D01*
X182761905Y-161406680D02*
X182714286Y-161359060D01*
%TO.C,J101*%
X178614285Y-100704299D02*
X178614285Y-101418584D01*
X178614285Y-101418584D02*
X178566666Y-101561441D01*
X178566666Y-101561441D02*
X178471428Y-101656680D01*
X178471428Y-101656680D02*
X178328571Y-101704299D01*
X178328571Y-101704299D02*
X178233333Y-101704299D01*
X179614285Y-101704299D02*
X179042857Y-101704299D01*
X179328571Y-101704299D02*
X179328571Y-100704299D01*
X179328571Y-100704299D02*
X179233333Y-100847156D01*
X179233333Y-100847156D02*
X179138095Y-100942394D01*
X179138095Y-100942394D02*
X179042857Y-100990013D01*
X180233333Y-100704299D02*
X180328571Y-100704299D01*
X180328571Y-100704299D02*
X180423809Y-100751918D01*
X180423809Y-100751918D02*
X180471428Y-100799537D01*
X180471428Y-100799537D02*
X180519047Y-100894775D01*
X180519047Y-100894775D02*
X180566666Y-101085251D01*
X180566666Y-101085251D02*
X180566666Y-101323346D01*
X180566666Y-101323346D02*
X180519047Y-101513822D01*
X180519047Y-101513822D02*
X180471428Y-101609060D01*
X180471428Y-101609060D02*
X180423809Y-101656680D01*
X180423809Y-101656680D02*
X180328571Y-101704299D01*
X180328571Y-101704299D02*
X180233333Y-101704299D01*
X180233333Y-101704299D02*
X180138095Y-101656680D01*
X180138095Y-101656680D02*
X180090476Y-101609060D01*
X180090476Y-101609060D02*
X180042857Y-101513822D01*
X180042857Y-101513822D02*
X179995238Y-101323346D01*
X179995238Y-101323346D02*
X179995238Y-101085251D01*
X179995238Y-101085251D02*
X180042857Y-100894775D01*
X180042857Y-100894775D02*
X180090476Y-100799537D01*
X180090476Y-100799537D02*
X180138095Y-100751918D01*
X180138095Y-100751918D02*
X180233333Y-100704299D01*
X181519047Y-101704299D02*
X180947619Y-101704299D01*
X181233333Y-101704299D02*
X181233333Y-100704299D01*
X181233333Y-100704299D02*
X181138095Y-100847156D01*
X181138095Y-100847156D02*
X181042857Y-100942394D01*
X181042857Y-100942394D02*
X180947619Y-100990013D01*
%TO.C,SW312*%
X259464286Y-104406680D02*
X259607143Y-104454299D01*
X259607143Y-104454299D02*
X259845238Y-104454299D01*
X259845238Y-104454299D02*
X259940476Y-104406680D01*
X259940476Y-104406680D02*
X259988095Y-104359060D01*
X259988095Y-104359060D02*
X260035714Y-104263822D01*
X260035714Y-104263822D02*
X260035714Y-104168584D01*
X260035714Y-104168584D02*
X259988095Y-104073346D01*
X259988095Y-104073346D02*
X259940476Y-104025727D01*
X259940476Y-104025727D02*
X259845238Y-103978108D01*
X259845238Y-103978108D02*
X259654762Y-103930489D01*
X259654762Y-103930489D02*
X259559524Y-103882870D01*
X259559524Y-103882870D02*
X259511905Y-103835251D01*
X259511905Y-103835251D02*
X259464286Y-103740013D01*
X259464286Y-103740013D02*
X259464286Y-103644775D01*
X259464286Y-103644775D02*
X259511905Y-103549537D01*
X259511905Y-103549537D02*
X259559524Y-103501918D01*
X259559524Y-103501918D02*
X259654762Y-103454299D01*
X259654762Y-103454299D02*
X259892857Y-103454299D01*
X259892857Y-103454299D02*
X260035714Y-103501918D01*
X260369048Y-103454299D02*
X260607143Y-104454299D01*
X260607143Y-104454299D02*
X260797619Y-103740013D01*
X260797619Y-103740013D02*
X260988095Y-104454299D01*
X260988095Y-104454299D02*
X261226191Y-103454299D01*
X261511905Y-103454299D02*
X262130952Y-103454299D01*
X262130952Y-103454299D02*
X261797619Y-103835251D01*
X261797619Y-103835251D02*
X261940476Y-103835251D01*
X261940476Y-103835251D02*
X262035714Y-103882870D01*
X262035714Y-103882870D02*
X262083333Y-103930489D01*
X262083333Y-103930489D02*
X262130952Y-104025727D01*
X262130952Y-104025727D02*
X262130952Y-104263822D01*
X262130952Y-104263822D02*
X262083333Y-104359060D01*
X262083333Y-104359060D02*
X262035714Y-104406680D01*
X262035714Y-104406680D02*
X261940476Y-104454299D01*
X261940476Y-104454299D02*
X261654762Y-104454299D01*
X261654762Y-104454299D02*
X261559524Y-104406680D01*
X261559524Y-104406680D02*
X261511905Y-104359060D01*
X263083333Y-104454299D02*
X262511905Y-104454299D01*
X262797619Y-104454299D02*
X262797619Y-103454299D01*
X262797619Y-103454299D02*
X262702381Y-103597156D01*
X262702381Y-103597156D02*
X262607143Y-103692394D01*
X262607143Y-103692394D02*
X262511905Y-103740013D01*
X263464286Y-103549537D02*
X263511905Y-103501918D01*
X263511905Y-103501918D02*
X263607143Y-103454299D01*
X263607143Y-103454299D02*
X263845238Y-103454299D01*
X263845238Y-103454299D02*
X263940476Y-103501918D01*
X263940476Y-103501918D02*
X263988095Y-103549537D01*
X263988095Y-103549537D02*
X264035714Y-103644775D01*
X264035714Y-103644775D02*
X264035714Y-103740013D01*
X264035714Y-103740013D02*
X263988095Y-103882870D01*
X263988095Y-103882870D02*
X263416667Y-104454299D01*
X263416667Y-104454299D02*
X264035714Y-104454299D01*
%TO.C,SW320*%
X178714286Y-142406680D02*
X178857143Y-142454299D01*
X178857143Y-142454299D02*
X179095238Y-142454299D01*
X179095238Y-142454299D02*
X179190476Y-142406680D01*
X179190476Y-142406680D02*
X179238095Y-142359060D01*
X179238095Y-142359060D02*
X179285714Y-142263822D01*
X179285714Y-142263822D02*
X179285714Y-142168584D01*
X179285714Y-142168584D02*
X179238095Y-142073346D01*
X179238095Y-142073346D02*
X179190476Y-142025727D01*
X179190476Y-142025727D02*
X179095238Y-141978108D01*
X179095238Y-141978108D02*
X178904762Y-141930489D01*
X178904762Y-141930489D02*
X178809524Y-141882870D01*
X178809524Y-141882870D02*
X178761905Y-141835251D01*
X178761905Y-141835251D02*
X178714286Y-141740013D01*
X178714286Y-141740013D02*
X178714286Y-141644775D01*
X178714286Y-141644775D02*
X178761905Y-141549537D01*
X178761905Y-141549537D02*
X178809524Y-141501918D01*
X178809524Y-141501918D02*
X178904762Y-141454299D01*
X178904762Y-141454299D02*
X179142857Y-141454299D01*
X179142857Y-141454299D02*
X179285714Y-141501918D01*
X179619048Y-141454299D02*
X179857143Y-142454299D01*
X179857143Y-142454299D02*
X180047619Y-141740013D01*
X180047619Y-141740013D02*
X180238095Y-142454299D01*
X180238095Y-142454299D02*
X180476191Y-141454299D01*
X180761905Y-141454299D02*
X181380952Y-141454299D01*
X181380952Y-141454299D02*
X181047619Y-141835251D01*
X181047619Y-141835251D02*
X181190476Y-141835251D01*
X181190476Y-141835251D02*
X181285714Y-141882870D01*
X181285714Y-141882870D02*
X181333333Y-141930489D01*
X181333333Y-141930489D02*
X181380952Y-142025727D01*
X181380952Y-142025727D02*
X181380952Y-142263822D01*
X181380952Y-142263822D02*
X181333333Y-142359060D01*
X181333333Y-142359060D02*
X181285714Y-142406680D01*
X181285714Y-142406680D02*
X181190476Y-142454299D01*
X181190476Y-142454299D02*
X180904762Y-142454299D01*
X180904762Y-142454299D02*
X180809524Y-142406680D01*
X180809524Y-142406680D02*
X180761905Y-142359060D01*
X181761905Y-141549537D02*
X181809524Y-141501918D01*
X181809524Y-141501918D02*
X181904762Y-141454299D01*
X181904762Y-141454299D02*
X182142857Y-141454299D01*
X182142857Y-141454299D02*
X182238095Y-141501918D01*
X182238095Y-141501918D02*
X182285714Y-141549537D01*
X182285714Y-141549537D02*
X182333333Y-141644775D01*
X182333333Y-141644775D02*
X182333333Y-141740013D01*
X182333333Y-141740013D02*
X182285714Y-141882870D01*
X182285714Y-141882870D02*
X181714286Y-142454299D01*
X181714286Y-142454299D02*
X182333333Y-142454299D01*
X182952381Y-141454299D02*
X183047619Y-141454299D01*
X183047619Y-141454299D02*
X183142857Y-141501918D01*
X183142857Y-141501918D02*
X183190476Y-141549537D01*
X183190476Y-141549537D02*
X183238095Y-141644775D01*
X183238095Y-141644775D02*
X183285714Y-141835251D01*
X183285714Y-141835251D02*
X183285714Y-142073346D01*
X183285714Y-142073346D02*
X183238095Y-142263822D01*
X183238095Y-142263822D02*
X183190476Y-142359060D01*
X183190476Y-142359060D02*
X183142857Y-142406680D01*
X183142857Y-142406680D02*
X183047619Y-142454299D01*
X183047619Y-142454299D02*
X182952381Y-142454299D01*
X182952381Y-142454299D02*
X182857143Y-142406680D01*
X182857143Y-142406680D02*
X182809524Y-142359060D01*
X182809524Y-142359060D02*
X182761905Y-142263822D01*
X182761905Y-142263822D02*
X182714286Y-142073346D01*
X182714286Y-142073346D02*
X182714286Y-141835251D01*
X182714286Y-141835251D02*
X182761905Y-141644775D01*
X182761905Y-141644775D02*
X182809524Y-141549537D01*
X182809524Y-141549537D02*
X182857143Y-141501918D01*
X182857143Y-141501918D02*
X182952381Y-141454299D01*
%TO.C,SW323*%
X240464286Y-142406680D02*
X240607143Y-142454299D01*
X240607143Y-142454299D02*
X240845238Y-142454299D01*
X240845238Y-142454299D02*
X240940476Y-142406680D01*
X240940476Y-142406680D02*
X240988095Y-142359060D01*
X240988095Y-142359060D02*
X241035714Y-142263822D01*
X241035714Y-142263822D02*
X241035714Y-142168584D01*
X241035714Y-142168584D02*
X240988095Y-142073346D01*
X240988095Y-142073346D02*
X240940476Y-142025727D01*
X240940476Y-142025727D02*
X240845238Y-141978108D01*
X240845238Y-141978108D02*
X240654762Y-141930489D01*
X240654762Y-141930489D02*
X240559524Y-141882870D01*
X240559524Y-141882870D02*
X240511905Y-141835251D01*
X240511905Y-141835251D02*
X240464286Y-141740013D01*
X240464286Y-141740013D02*
X240464286Y-141644775D01*
X240464286Y-141644775D02*
X240511905Y-141549537D01*
X240511905Y-141549537D02*
X240559524Y-141501918D01*
X240559524Y-141501918D02*
X240654762Y-141454299D01*
X240654762Y-141454299D02*
X240892857Y-141454299D01*
X240892857Y-141454299D02*
X241035714Y-141501918D01*
X241369048Y-141454299D02*
X241607143Y-142454299D01*
X241607143Y-142454299D02*
X241797619Y-141740013D01*
X241797619Y-141740013D02*
X241988095Y-142454299D01*
X241988095Y-142454299D02*
X242226191Y-141454299D01*
X242511905Y-141454299D02*
X243130952Y-141454299D01*
X243130952Y-141454299D02*
X242797619Y-141835251D01*
X242797619Y-141835251D02*
X242940476Y-141835251D01*
X242940476Y-141835251D02*
X243035714Y-141882870D01*
X243035714Y-141882870D02*
X243083333Y-141930489D01*
X243083333Y-141930489D02*
X243130952Y-142025727D01*
X243130952Y-142025727D02*
X243130952Y-142263822D01*
X243130952Y-142263822D02*
X243083333Y-142359060D01*
X243083333Y-142359060D02*
X243035714Y-142406680D01*
X243035714Y-142406680D02*
X242940476Y-142454299D01*
X242940476Y-142454299D02*
X242654762Y-142454299D01*
X242654762Y-142454299D02*
X242559524Y-142406680D01*
X242559524Y-142406680D02*
X242511905Y-142359060D01*
X243511905Y-141549537D02*
X243559524Y-141501918D01*
X243559524Y-141501918D02*
X243654762Y-141454299D01*
X243654762Y-141454299D02*
X243892857Y-141454299D01*
X243892857Y-141454299D02*
X243988095Y-141501918D01*
X243988095Y-141501918D02*
X244035714Y-141549537D01*
X244035714Y-141549537D02*
X244083333Y-141644775D01*
X244083333Y-141644775D02*
X244083333Y-141740013D01*
X244083333Y-141740013D02*
X244035714Y-141882870D01*
X244035714Y-141882870D02*
X243464286Y-142454299D01*
X243464286Y-142454299D02*
X244083333Y-142454299D01*
X244416667Y-141454299D02*
X245035714Y-141454299D01*
X245035714Y-141454299D02*
X244702381Y-141835251D01*
X244702381Y-141835251D02*
X244845238Y-141835251D01*
X244845238Y-141835251D02*
X244940476Y-141882870D01*
X244940476Y-141882870D02*
X244988095Y-141930489D01*
X244988095Y-141930489D02*
X245035714Y-142025727D01*
X245035714Y-142025727D02*
X245035714Y-142263822D01*
X245035714Y-142263822D02*
X244988095Y-142359060D01*
X244988095Y-142359060D02*
X244940476Y-142406680D01*
X244940476Y-142406680D02*
X244845238Y-142454299D01*
X244845238Y-142454299D02*
X244559524Y-142454299D01*
X244559524Y-142454299D02*
X244464286Y-142406680D01*
X244464286Y-142406680D02*
X244416667Y-142359060D01*
%TO.C,SW315*%
X202464286Y-123406680D02*
X202607143Y-123454299D01*
X202607143Y-123454299D02*
X202845238Y-123454299D01*
X202845238Y-123454299D02*
X202940476Y-123406680D01*
X202940476Y-123406680D02*
X202988095Y-123359060D01*
X202988095Y-123359060D02*
X203035714Y-123263822D01*
X203035714Y-123263822D02*
X203035714Y-123168584D01*
X203035714Y-123168584D02*
X202988095Y-123073346D01*
X202988095Y-123073346D02*
X202940476Y-123025727D01*
X202940476Y-123025727D02*
X202845238Y-122978108D01*
X202845238Y-122978108D02*
X202654762Y-122930489D01*
X202654762Y-122930489D02*
X202559524Y-122882870D01*
X202559524Y-122882870D02*
X202511905Y-122835251D01*
X202511905Y-122835251D02*
X202464286Y-122740013D01*
X202464286Y-122740013D02*
X202464286Y-122644775D01*
X202464286Y-122644775D02*
X202511905Y-122549537D01*
X202511905Y-122549537D02*
X202559524Y-122501918D01*
X202559524Y-122501918D02*
X202654762Y-122454299D01*
X202654762Y-122454299D02*
X202892857Y-122454299D01*
X202892857Y-122454299D02*
X203035714Y-122501918D01*
X203369048Y-122454299D02*
X203607143Y-123454299D01*
X203607143Y-123454299D02*
X203797619Y-122740013D01*
X203797619Y-122740013D02*
X203988095Y-123454299D01*
X203988095Y-123454299D02*
X204226191Y-122454299D01*
X204511905Y-122454299D02*
X205130952Y-122454299D01*
X205130952Y-122454299D02*
X204797619Y-122835251D01*
X204797619Y-122835251D02*
X204940476Y-122835251D01*
X204940476Y-122835251D02*
X205035714Y-122882870D01*
X205035714Y-122882870D02*
X205083333Y-122930489D01*
X205083333Y-122930489D02*
X205130952Y-123025727D01*
X205130952Y-123025727D02*
X205130952Y-123263822D01*
X205130952Y-123263822D02*
X205083333Y-123359060D01*
X205083333Y-123359060D02*
X205035714Y-123406680D01*
X205035714Y-123406680D02*
X204940476Y-123454299D01*
X204940476Y-123454299D02*
X204654762Y-123454299D01*
X204654762Y-123454299D02*
X204559524Y-123406680D01*
X204559524Y-123406680D02*
X204511905Y-123359060D01*
X206083333Y-123454299D02*
X205511905Y-123454299D01*
X205797619Y-123454299D02*
X205797619Y-122454299D01*
X205797619Y-122454299D02*
X205702381Y-122597156D01*
X205702381Y-122597156D02*
X205607143Y-122692394D01*
X205607143Y-122692394D02*
X205511905Y-122740013D01*
X206988095Y-122454299D02*
X206511905Y-122454299D01*
X206511905Y-122454299D02*
X206464286Y-122930489D01*
X206464286Y-122930489D02*
X206511905Y-122882870D01*
X206511905Y-122882870D02*
X206607143Y-122835251D01*
X206607143Y-122835251D02*
X206845238Y-122835251D01*
X206845238Y-122835251D02*
X206940476Y-122882870D01*
X206940476Y-122882870D02*
X206988095Y-122930489D01*
X206988095Y-122930489D02*
X207035714Y-123025727D01*
X207035714Y-123025727D02*
X207035714Y-123263822D01*
X207035714Y-123263822D02*
X206988095Y-123359060D01*
X206988095Y-123359060D02*
X206940476Y-123406680D01*
X206940476Y-123406680D02*
X206845238Y-123454299D01*
X206845238Y-123454299D02*
X206607143Y-123454299D01*
X206607143Y-123454299D02*
X206511905Y-123406680D01*
X206511905Y-123406680D02*
X206464286Y-123359060D01*
%TO.C,SW303*%
X202464286Y-92006680D02*
X202607143Y-92054299D01*
X202607143Y-92054299D02*
X202845238Y-92054299D01*
X202845238Y-92054299D02*
X202940476Y-92006680D01*
X202940476Y-92006680D02*
X202988095Y-91959060D01*
X202988095Y-91959060D02*
X203035714Y-91863822D01*
X203035714Y-91863822D02*
X203035714Y-91768584D01*
X203035714Y-91768584D02*
X202988095Y-91673346D01*
X202988095Y-91673346D02*
X202940476Y-91625727D01*
X202940476Y-91625727D02*
X202845238Y-91578108D01*
X202845238Y-91578108D02*
X202654762Y-91530489D01*
X202654762Y-91530489D02*
X202559524Y-91482870D01*
X202559524Y-91482870D02*
X202511905Y-91435251D01*
X202511905Y-91435251D02*
X202464286Y-91340013D01*
X202464286Y-91340013D02*
X202464286Y-91244775D01*
X202464286Y-91244775D02*
X202511905Y-91149537D01*
X202511905Y-91149537D02*
X202559524Y-91101918D01*
X202559524Y-91101918D02*
X202654762Y-91054299D01*
X202654762Y-91054299D02*
X202892857Y-91054299D01*
X202892857Y-91054299D02*
X203035714Y-91101918D01*
X203369048Y-91054299D02*
X203607143Y-92054299D01*
X203607143Y-92054299D02*
X203797619Y-91340013D01*
X203797619Y-91340013D02*
X203988095Y-92054299D01*
X203988095Y-92054299D02*
X204226191Y-91054299D01*
X204511905Y-91054299D02*
X205130952Y-91054299D01*
X205130952Y-91054299D02*
X204797619Y-91435251D01*
X204797619Y-91435251D02*
X204940476Y-91435251D01*
X204940476Y-91435251D02*
X205035714Y-91482870D01*
X205035714Y-91482870D02*
X205083333Y-91530489D01*
X205083333Y-91530489D02*
X205130952Y-91625727D01*
X205130952Y-91625727D02*
X205130952Y-91863822D01*
X205130952Y-91863822D02*
X205083333Y-91959060D01*
X205083333Y-91959060D02*
X205035714Y-92006680D01*
X205035714Y-92006680D02*
X204940476Y-92054299D01*
X204940476Y-92054299D02*
X204654762Y-92054299D01*
X204654762Y-92054299D02*
X204559524Y-92006680D01*
X204559524Y-92006680D02*
X204511905Y-91959060D01*
X205750000Y-91054299D02*
X205845238Y-91054299D01*
X205845238Y-91054299D02*
X205940476Y-91101918D01*
X205940476Y-91101918D02*
X205988095Y-91149537D01*
X205988095Y-91149537D02*
X206035714Y-91244775D01*
X206035714Y-91244775D02*
X206083333Y-91435251D01*
X206083333Y-91435251D02*
X206083333Y-91673346D01*
X206083333Y-91673346D02*
X206035714Y-91863822D01*
X206035714Y-91863822D02*
X205988095Y-91959060D01*
X205988095Y-91959060D02*
X205940476Y-92006680D01*
X205940476Y-92006680D02*
X205845238Y-92054299D01*
X205845238Y-92054299D02*
X205750000Y-92054299D01*
X205750000Y-92054299D02*
X205654762Y-92006680D01*
X205654762Y-92006680D02*
X205607143Y-91959060D01*
X205607143Y-91959060D02*
X205559524Y-91863822D01*
X205559524Y-91863822D02*
X205511905Y-91673346D01*
X205511905Y-91673346D02*
X205511905Y-91435251D01*
X205511905Y-91435251D02*
X205559524Y-91244775D01*
X205559524Y-91244775D02*
X205607143Y-91149537D01*
X205607143Y-91149537D02*
X205654762Y-91101918D01*
X205654762Y-91101918D02*
X205750000Y-91054299D01*
X206416667Y-91054299D02*
X207035714Y-91054299D01*
X207035714Y-91054299D02*
X206702381Y-91435251D01*
X206702381Y-91435251D02*
X206845238Y-91435251D01*
X206845238Y-91435251D02*
X206940476Y-91482870D01*
X206940476Y-91482870D02*
X206988095Y-91530489D01*
X206988095Y-91530489D02*
X207035714Y-91625727D01*
X207035714Y-91625727D02*
X207035714Y-91863822D01*
X207035714Y-91863822D02*
X206988095Y-91959060D01*
X206988095Y-91959060D02*
X206940476Y-92006680D01*
X206940476Y-92006680D02*
X206845238Y-92054299D01*
X206845238Y-92054299D02*
X206559524Y-92054299D01*
X206559524Y-92054299D02*
X206464286Y-92006680D01*
X206464286Y-92006680D02*
X206416667Y-91959060D01*
%TO.C,SW324*%
X159714286Y-161406680D02*
X159857143Y-161454299D01*
X159857143Y-161454299D02*
X160095238Y-161454299D01*
X160095238Y-161454299D02*
X160190476Y-161406680D01*
X160190476Y-161406680D02*
X160238095Y-161359060D01*
X160238095Y-161359060D02*
X160285714Y-161263822D01*
X160285714Y-161263822D02*
X160285714Y-161168584D01*
X160285714Y-161168584D02*
X160238095Y-161073346D01*
X160238095Y-161073346D02*
X160190476Y-161025727D01*
X160190476Y-161025727D02*
X160095238Y-160978108D01*
X160095238Y-160978108D02*
X159904762Y-160930489D01*
X159904762Y-160930489D02*
X159809524Y-160882870D01*
X159809524Y-160882870D02*
X159761905Y-160835251D01*
X159761905Y-160835251D02*
X159714286Y-160740013D01*
X159714286Y-160740013D02*
X159714286Y-160644775D01*
X159714286Y-160644775D02*
X159761905Y-160549537D01*
X159761905Y-160549537D02*
X159809524Y-160501918D01*
X159809524Y-160501918D02*
X159904762Y-160454299D01*
X159904762Y-160454299D02*
X160142857Y-160454299D01*
X160142857Y-160454299D02*
X160285714Y-160501918D01*
X160619048Y-160454299D02*
X160857143Y-161454299D01*
X160857143Y-161454299D02*
X161047619Y-160740013D01*
X161047619Y-160740013D02*
X161238095Y-161454299D01*
X161238095Y-161454299D02*
X161476191Y-160454299D01*
X161761905Y-160454299D02*
X162380952Y-160454299D01*
X162380952Y-160454299D02*
X162047619Y-160835251D01*
X162047619Y-160835251D02*
X162190476Y-160835251D01*
X162190476Y-160835251D02*
X162285714Y-160882870D01*
X162285714Y-160882870D02*
X162333333Y-160930489D01*
X162333333Y-160930489D02*
X162380952Y-161025727D01*
X162380952Y-161025727D02*
X162380952Y-161263822D01*
X162380952Y-161263822D02*
X162333333Y-161359060D01*
X162333333Y-161359060D02*
X162285714Y-161406680D01*
X162285714Y-161406680D02*
X162190476Y-161454299D01*
X162190476Y-161454299D02*
X161904762Y-161454299D01*
X161904762Y-161454299D02*
X161809524Y-161406680D01*
X161809524Y-161406680D02*
X161761905Y-161359060D01*
X162761905Y-160549537D02*
X162809524Y-160501918D01*
X162809524Y-160501918D02*
X162904762Y-160454299D01*
X162904762Y-160454299D02*
X163142857Y-160454299D01*
X163142857Y-160454299D02*
X163238095Y-160501918D01*
X163238095Y-160501918D02*
X163285714Y-160549537D01*
X163285714Y-160549537D02*
X163333333Y-160644775D01*
X163333333Y-160644775D02*
X163333333Y-160740013D01*
X163333333Y-160740013D02*
X163285714Y-160882870D01*
X163285714Y-160882870D02*
X162714286Y-161454299D01*
X162714286Y-161454299D02*
X163333333Y-161454299D01*
X164190476Y-160787632D02*
X164190476Y-161454299D01*
X163952381Y-160406680D02*
X163714286Y-161120965D01*
X163714286Y-161120965D02*
X164333333Y-161120965D01*
%TO.C,J103*%
X214714285Y-92554299D02*
X214714285Y-93268584D01*
X214714285Y-93268584D02*
X214666666Y-93411441D01*
X214666666Y-93411441D02*
X214571428Y-93506680D01*
X214571428Y-93506680D02*
X214428571Y-93554299D01*
X214428571Y-93554299D02*
X214333333Y-93554299D01*
X215714285Y-93554299D02*
X215142857Y-93554299D01*
X215428571Y-93554299D02*
X215428571Y-92554299D01*
X215428571Y-92554299D02*
X215333333Y-92697156D01*
X215333333Y-92697156D02*
X215238095Y-92792394D01*
X215238095Y-92792394D02*
X215142857Y-92840013D01*
X216333333Y-92554299D02*
X216428571Y-92554299D01*
X216428571Y-92554299D02*
X216523809Y-92601918D01*
X216523809Y-92601918D02*
X216571428Y-92649537D01*
X216571428Y-92649537D02*
X216619047Y-92744775D01*
X216619047Y-92744775D02*
X216666666Y-92935251D01*
X216666666Y-92935251D02*
X216666666Y-93173346D01*
X216666666Y-93173346D02*
X216619047Y-93363822D01*
X216619047Y-93363822D02*
X216571428Y-93459060D01*
X216571428Y-93459060D02*
X216523809Y-93506680D01*
X216523809Y-93506680D02*
X216428571Y-93554299D01*
X216428571Y-93554299D02*
X216333333Y-93554299D01*
X216333333Y-93554299D02*
X216238095Y-93506680D01*
X216238095Y-93506680D02*
X216190476Y-93459060D01*
X216190476Y-93459060D02*
X216142857Y-93363822D01*
X216142857Y-93363822D02*
X216095238Y-93173346D01*
X216095238Y-93173346D02*
X216095238Y-92935251D01*
X216095238Y-92935251D02*
X216142857Y-92744775D01*
X216142857Y-92744775D02*
X216190476Y-92649537D01*
X216190476Y-92649537D02*
X216238095Y-92601918D01*
X216238095Y-92601918D02*
X216333333Y-92554299D01*
X217000000Y-92554299D02*
X217619047Y-92554299D01*
X217619047Y-92554299D02*
X217285714Y-92935251D01*
X217285714Y-92935251D02*
X217428571Y-92935251D01*
X217428571Y-92935251D02*
X217523809Y-92982870D01*
X217523809Y-92982870D02*
X217571428Y-93030489D01*
X217571428Y-93030489D02*
X217619047Y-93125727D01*
X217619047Y-93125727D02*
X217619047Y-93363822D01*
X217619047Y-93363822D02*
X217571428Y-93459060D01*
X217571428Y-93459060D02*
X217523809Y-93506680D01*
X217523809Y-93506680D02*
X217428571Y-93554299D01*
X217428571Y-93554299D02*
X217142857Y-93554299D01*
X217142857Y-93554299D02*
X217047619Y-93506680D01*
X217047619Y-93506680D02*
X217000000Y-93459060D01*
%TO.C,SW302*%
X178714286Y-92006680D02*
X178857143Y-92054299D01*
X178857143Y-92054299D02*
X179095238Y-92054299D01*
X179095238Y-92054299D02*
X179190476Y-92006680D01*
X179190476Y-92006680D02*
X179238095Y-91959060D01*
X179238095Y-91959060D02*
X179285714Y-91863822D01*
X179285714Y-91863822D02*
X179285714Y-91768584D01*
X179285714Y-91768584D02*
X179238095Y-91673346D01*
X179238095Y-91673346D02*
X179190476Y-91625727D01*
X179190476Y-91625727D02*
X179095238Y-91578108D01*
X179095238Y-91578108D02*
X178904762Y-91530489D01*
X178904762Y-91530489D02*
X178809524Y-91482870D01*
X178809524Y-91482870D02*
X178761905Y-91435251D01*
X178761905Y-91435251D02*
X178714286Y-91340013D01*
X178714286Y-91340013D02*
X178714286Y-91244775D01*
X178714286Y-91244775D02*
X178761905Y-91149537D01*
X178761905Y-91149537D02*
X178809524Y-91101918D01*
X178809524Y-91101918D02*
X178904762Y-91054299D01*
X178904762Y-91054299D02*
X179142857Y-91054299D01*
X179142857Y-91054299D02*
X179285714Y-91101918D01*
X179619048Y-91054299D02*
X179857143Y-92054299D01*
X179857143Y-92054299D02*
X180047619Y-91340013D01*
X180047619Y-91340013D02*
X180238095Y-92054299D01*
X180238095Y-92054299D02*
X180476191Y-91054299D01*
X180761905Y-91054299D02*
X181380952Y-91054299D01*
X181380952Y-91054299D02*
X181047619Y-91435251D01*
X181047619Y-91435251D02*
X181190476Y-91435251D01*
X181190476Y-91435251D02*
X181285714Y-91482870D01*
X181285714Y-91482870D02*
X181333333Y-91530489D01*
X181333333Y-91530489D02*
X181380952Y-91625727D01*
X181380952Y-91625727D02*
X181380952Y-91863822D01*
X181380952Y-91863822D02*
X181333333Y-91959060D01*
X181333333Y-91959060D02*
X181285714Y-92006680D01*
X181285714Y-92006680D02*
X181190476Y-92054299D01*
X181190476Y-92054299D02*
X180904762Y-92054299D01*
X180904762Y-92054299D02*
X180809524Y-92006680D01*
X180809524Y-92006680D02*
X180761905Y-91959060D01*
X182000000Y-91054299D02*
X182095238Y-91054299D01*
X182095238Y-91054299D02*
X182190476Y-91101918D01*
X182190476Y-91101918D02*
X182238095Y-91149537D01*
X182238095Y-91149537D02*
X182285714Y-91244775D01*
X182285714Y-91244775D02*
X182333333Y-91435251D01*
X182333333Y-91435251D02*
X182333333Y-91673346D01*
X182333333Y-91673346D02*
X182285714Y-91863822D01*
X182285714Y-91863822D02*
X182238095Y-91959060D01*
X182238095Y-91959060D02*
X182190476Y-92006680D01*
X182190476Y-92006680D02*
X182095238Y-92054299D01*
X182095238Y-92054299D02*
X182000000Y-92054299D01*
X182000000Y-92054299D02*
X181904762Y-92006680D01*
X181904762Y-92006680D02*
X181857143Y-91959060D01*
X181857143Y-91959060D02*
X181809524Y-91863822D01*
X181809524Y-91863822D02*
X181761905Y-91673346D01*
X181761905Y-91673346D02*
X181761905Y-91435251D01*
X181761905Y-91435251D02*
X181809524Y-91244775D01*
X181809524Y-91244775D02*
X181857143Y-91149537D01*
X181857143Y-91149537D02*
X181904762Y-91101918D01*
X181904762Y-91101918D02*
X182000000Y-91054299D01*
X182714286Y-91149537D02*
X182761905Y-91101918D01*
X182761905Y-91101918D02*
X182857143Y-91054299D01*
X182857143Y-91054299D02*
X183095238Y-91054299D01*
X183095238Y-91054299D02*
X183190476Y-91101918D01*
X183190476Y-91101918D02*
X183238095Y-91149537D01*
X183238095Y-91149537D02*
X183285714Y-91244775D01*
X183285714Y-91244775D02*
X183285714Y-91340013D01*
X183285714Y-91340013D02*
X183238095Y-91482870D01*
X183238095Y-91482870D02*
X182666667Y-92054299D01*
X182666667Y-92054299D02*
X183285714Y-92054299D01*
%TO.C,SW321*%
X202464286Y-142406680D02*
X202607143Y-142454299D01*
X202607143Y-142454299D02*
X202845238Y-142454299D01*
X202845238Y-142454299D02*
X202940476Y-142406680D01*
X202940476Y-142406680D02*
X202988095Y-142359060D01*
X202988095Y-142359060D02*
X203035714Y-142263822D01*
X203035714Y-142263822D02*
X203035714Y-142168584D01*
X203035714Y-142168584D02*
X202988095Y-142073346D01*
X202988095Y-142073346D02*
X202940476Y-142025727D01*
X202940476Y-142025727D02*
X202845238Y-141978108D01*
X202845238Y-141978108D02*
X202654762Y-141930489D01*
X202654762Y-141930489D02*
X202559524Y-141882870D01*
X202559524Y-141882870D02*
X202511905Y-141835251D01*
X202511905Y-141835251D02*
X202464286Y-141740013D01*
X202464286Y-141740013D02*
X202464286Y-141644775D01*
X202464286Y-141644775D02*
X202511905Y-141549537D01*
X202511905Y-141549537D02*
X202559524Y-141501918D01*
X202559524Y-141501918D02*
X202654762Y-141454299D01*
X202654762Y-141454299D02*
X202892857Y-141454299D01*
X202892857Y-141454299D02*
X203035714Y-141501918D01*
X203369048Y-141454299D02*
X203607143Y-142454299D01*
X203607143Y-142454299D02*
X203797619Y-141740013D01*
X203797619Y-141740013D02*
X203988095Y-142454299D01*
X203988095Y-142454299D02*
X204226191Y-141454299D01*
X204511905Y-141454299D02*
X205130952Y-141454299D01*
X205130952Y-141454299D02*
X204797619Y-141835251D01*
X204797619Y-141835251D02*
X204940476Y-141835251D01*
X204940476Y-141835251D02*
X205035714Y-141882870D01*
X205035714Y-141882870D02*
X205083333Y-141930489D01*
X205083333Y-141930489D02*
X205130952Y-142025727D01*
X205130952Y-142025727D02*
X205130952Y-142263822D01*
X205130952Y-142263822D02*
X205083333Y-142359060D01*
X205083333Y-142359060D02*
X205035714Y-142406680D01*
X205035714Y-142406680D02*
X204940476Y-142454299D01*
X204940476Y-142454299D02*
X204654762Y-142454299D01*
X204654762Y-142454299D02*
X204559524Y-142406680D01*
X204559524Y-142406680D02*
X204511905Y-142359060D01*
X205511905Y-141549537D02*
X205559524Y-141501918D01*
X205559524Y-141501918D02*
X205654762Y-141454299D01*
X205654762Y-141454299D02*
X205892857Y-141454299D01*
X205892857Y-141454299D02*
X205988095Y-141501918D01*
X205988095Y-141501918D02*
X206035714Y-141549537D01*
X206035714Y-141549537D02*
X206083333Y-141644775D01*
X206083333Y-141644775D02*
X206083333Y-141740013D01*
X206083333Y-141740013D02*
X206035714Y-141882870D01*
X206035714Y-141882870D02*
X205464286Y-142454299D01*
X205464286Y-142454299D02*
X206083333Y-142454299D01*
X207035714Y-142454299D02*
X206464286Y-142454299D01*
X206750000Y-142454299D02*
X206750000Y-141454299D01*
X206750000Y-141454299D02*
X206654762Y-141597156D01*
X206654762Y-141597156D02*
X206559524Y-141692394D01*
X206559524Y-141692394D02*
X206464286Y-141740013D01*
%TO.C,SW309*%
X202464286Y-104406680D02*
X202607143Y-104454299D01*
X202607143Y-104454299D02*
X202845238Y-104454299D01*
X202845238Y-104454299D02*
X202940476Y-104406680D01*
X202940476Y-104406680D02*
X202988095Y-104359060D01*
X202988095Y-104359060D02*
X203035714Y-104263822D01*
X203035714Y-104263822D02*
X203035714Y-104168584D01*
X203035714Y-104168584D02*
X202988095Y-104073346D01*
X202988095Y-104073346D02*
X202940476Y-104025727D01*
X202940476Y-104025727D02*
X202845238Y-103978108D01*
X202845238Y-103978108D02*
X202654762Y-103930489D01*
X202654762Y-103930489D02*
X202559524Y-103882870D01*
X202559524Y-103882870D02*
X202511905Y-103835251D01*
X202511905Y-103835251D02*
X202464286Y-103740013D01*
X202464286Y-103740013D02*
X202464286Y-103644775D01*
X202464286Y-103644775D02*
X202511905Y-103549537D01*
X202511905Y-103549537D02*
X202559524Y-103501918D01*
X202559524Y-103501918D02*
X202654762Y-103454299D01*
X202654762Y-103454299D02*
X202892857Y-103454299D01*
X202892857Y-103454299D02*
X203035714Y-103501918D01*
X203369048Y-103454299D02*
X203607143Y-104454299D01*
X203607143Y-104454299D02*
X203797619Y-103740013D01*
X203797619Y-103740013D02*
X203988095Y-104454299D01*
X203988095Y-104454299D02*
X204226191Y-103454299D01*
X204511905Y-103454299D02*
X205130952Y-103454299D01*
X205130952Y-103454299D02*
X204797619Y-103835251D01*
X204797619Y-103835251D02*
X204940476Y-103835251D01*
X204940476Y-103835251D02*
X205035714Y-103882870D01*
X205035714Y-103882870D02*
X205083333Y-103930489D01*
X205083333Y-103930489D02*
X205130952Y-104025727D01*
X205130952Y-104025727D02*
X205130952Y-104263822D01*
X205130952Y-104263822D02*
X205083333Y-104359060D01*
X205083333Y-104359060D02*
X205035714Y-104406680D01*
X205035714Y-104406680D02*
X204940476Y-104454299D01*
X204940476Y-104454299D02*
X204654762Y-104454299D01*
X204654762Y-104454299D02*
X204559524Y-104406680D01*
X204559524Y-104406680D02*
X204511905Y-104359060D01*
X205750000Y-103454299D02*
X205845238Y-103454299D01*
X205845238Y-103454299D02*
X205940476Y-103501918D01*
X205940476Y-103501918D02*
X205988095Y-103549537D01*
X205988095Y-103549537D02*
X206035714Y-103644775D01*
X206035714Y-103644775D02*
X206083333Y-103835251D01*
X206083333Y-103835251D02*
X206083333Y-104073346D01*
X206083333Y-104073346D02*
X206035714Y-104263822D01*
X206035714Y-104263822D02*
X205988095Y-104359060D01*
X205988095Y-104359060D02*
X205940476Y-104406680D01*
X205940476Y-104406680D02*
X205845238Y-104454299D01*
X205845238Y-104454299D02*
X205750000Y-104454299D01*
X205750000Y-104454299D02*
X205654762Y-104406680D01*
X205654762Y-104406680D02*
X205607143Y-104359060D01*
X205607143Y-104359060D02*
X205559524Y-104263822D01*
X205559524Y-104263822D02*
X205511905Y-104073346D01*
X205511905Y-104073346D02*
X205511905Y-103835251D01*
X205511905Y-103835251D02*
X205559524Y-103644775D01*
X205559524Y-103644775D02*
X205607143Y-103549537D01*
X205607143Y-103549537D02*
X205654762Y-103501918D01*
X205654762Y-103501918D02*
X205750000Y-103454299D01*
X206559524Y-104454299D02*
X206750000Y-104454299D01*
X206750000Y-104454299D02*
X206845238Y-104406680D01*
X206845238Y-104406680D02*
X206892857Y-104359060D01*
X206892857Y-104359060D02*
X206988095Y-104216203D01*
X206988095Y-104216203D02*
X207035714Y-104025727D01*
X207035714Y-104025727D02*
X207035714Y-103644775D01*
X207035714Y-103644775D02*
X206988095Y-103549537D01*
X206988095Y-103549537D02*
X206940476Y-103501918D01*
X206940476Y-103501918D02*
X206845238Y-103454299D01*
X206845238Y-103454299D02*
X206654762Y-103454299D01*
X206654762Y-103454299D02*
X206559524Y-103501918D01*
X206559524Y-103501918D02*
X206511905Y-103549537D01*
X206511905Y-103549537D02*
X206464286Y-103644775D01*
X206464286Y-103644775D02*
X206464286Y-103882870D01*
X206464286Y-103882870D02*
X206511905Y-103978108D01*
X206511905Y-103978108D02*
X206559524Y-104025727D01*
X206559524Y-104025727D02*
X206654762Y-104073346D01*
X206654762Y-104073346D02*
X206845238Y-104073346D01*
X206845238Y-104073346D02*
X206940476Y-104025727D01*
X206940476Y-104025727D02*
X206988095Y-103978108D01*
X206988095Y-103978108D02*
X207035714Y-103882870D01*
%TO.C,SW322*%
X221464286Y-142406680D02*
X221607143Y-142454299D01*
X221607143Y-142454299D02*
X221845238Y-142454299D01*
X221845238Y-142454299D02*
X221940476Y-142406680D01*
X221940476Y-142406680D02*
X221988095Y-142359060D01*
X221988095Y-142359060D02*
X222035714Y-142263822D01*
X222035714Y-142263822D02*
X222035714Y-142168584D01*
X222035714Y-142168584D02*
X221988095Y-142073346D01*
X221988095Y-142073346D02*
X221940476Y-142025727D01*
X221940476Y-142025727D02*
X221845238Y-141978108D01*
X221845238Y-141978108D02*
X221654762Y-141930489D01*
X221654762Y-141930489D02*
X221559524Y-141882870D01*
X221559524Y-141882870D02*
X221511905Y-141835251D01*
X221511905Y-141835251D02*
X221464286Y-141740013D01*
X221464286Y-141740013D02*
X221464286Y-141644775D01*
X221464286Y-141644775D02*
X221511905Y-141549537D01*
X221511905Y-141549537D02*
X221559524Y-141501918D01*
X221559524Y-141501918D02*
X221654762Y-141454299D01*
X221654762Y-141454299D02*
X221892857Y-141454299D01*
X221892857Y-141454299D02*
X222035714Y-141501918D01*
X222369048Y-141454299D02*
X222607143Y-142454299D01*
X222607143Y-142454299D02*
X222797619Y-141740013D01*
X222797619Y-141740013D02*
X222988095Y-142454299D01*
X222988095Y-142454299D02*
X223226191Y-141454299D01*
X223511905Y-141454299D02*
X224130952Y-141454299D01*
X224130952Y-141454299D02*
X223797619Y-141835251D01*
X223797619Y-141835251D02*
X223940476Y-141835251D01*
X223940476Y-141835251D02*
X224035714Y-141882870D01*
X224035714Y-141882870D02*
X224083333Y-141930489D01*
X224083333Y-141930489D02*
X224130952Y-142025727D01*
X224130952Y-142025727D02*
X224130952Y-142263822D01*
X224130952Y-142263822D02*
X224083333Y-142359060D01*
X224083333Y-142359060D02*
X224035714Y-142406680D01*
X224035714Y-142406680D02*
X223940476Y-142454299D01*
X223940476Y-142454299D02*
X223654762Y-142454299D01*
X223654762Y-142454299D02*
X223559524Y-142406680D01*
X223559524Y-142406680D02*
X223511905Y-142359060D01*
X224511905Y-141549537D02*
X224559524Y-141501918D01*
X224559524Y-141501918D02*
X224654762Y-141454299D01*
X224654762Y-141454299D02*
X224892857Y-141454299D01*
X224892857Y-141454299D02*
X224988095Y-141501918D01*
X224988095Y-141501918D02*
X225035714Y-141549537D01*
X225035714Y-141549537D02*
X225083333Y-141644775D01*
X225083333Y-141644775D02*
X225083333Y-141740013D01*
X225083333Y-141740013D02*
X225035714Y-141882870D01*
X225035714Y-141882870D02*
X224464286Y-142454299D01*
X224464286Y-142454299D02*
X225083333Y-142454299D01*
X225464286Y-141549537D02*
X225511905Y-141501918D01*
X225511905Y-141501918D02*
X225607143Y-141454299D01*
X225607143Y-141454299D02*
X225845238Y-141454299D01*
X225845238Y-141454299D02*
X225940476Y-141501918D01*
X225940476Y-141501918D02*
X225988095Y-141549537D01*
X225988095Y-141549537D02*
X226035714Y-141644775D01*
X226035714Y-141644775D02*
X226035714Y-141740013D01*
X226035714Y-141740013D02*
X225988095Y-141882870D01*
X225988095Y-141882870D02*
X225416667Y-142454299D01*
X225416667Y-142454299D02*
X226035714Y-142454299D01*
%TO.C,SW331*%
X178714286Y-180406680D02*
X178857143Y-180454299D01*
X178857143Y-180454299D02*
X179095238Y-180454299D01*
X179095238Y-180454299D02*
X179190476Y-180406680D01*
X179190476Y-180406680D02*
X179238095Y-180359060D01*
X179238095Y-180359060D02*
X179285714Y-180263822D01*
X179285714Y-180263822D02*
X179285714Y-180168584D01*
X179285714Y-180168584D02*
X179238095Y-180073346D01*
X179238095Y-180073346D02*
X179190476Y-180025727D01*
X179190476Y-180025727D02*
X179095238Y-179978108D01*
X179095238Y-179978108D02*
X178904762Y-179930489D01*
X178904762Y-179930489D02*
X178809524Y-179882870D01*
X178809524Y-179882870D02*
X178761905Y-179835251D01*
X178761905Y-179835251D02*
X178714286Y-179740013D01*
X178714286Y-179740013D02*
X178714286Y-179644775D01*
X178714286Y-179644775D02*
X178761905Y-179549537D01*
X178761905Y-179549537D02*
X178809524Y-179501918D01*
X178809524Y-179501918D02*
X178904762Y-179454299D01*
X178904762Y-179454299D02*
X179142857Y-179454299D01*
X179142857Y-179454299D02*
X179285714Y-179501918D01*
X179619048Y-179454299D02*
X179857143Y-180454299D01*
X179857143Y-180454299D02*
X180047619Y-179740013D01*
X180047619Y-179740013D02*
X180238095Y-180454299D01*
X180238095Y-180454299D02*
X180476191Y-179454299D01*
X180761905Y-179454299D02*
X181380952Y-179454299D01*
X181380952Y-179454299D02*
X181047619Y-179835251D01*
X181047619Y-179835251D02*
X181190476Y-179835251D01*
X181190476Y-179835251D02*
X181285714Y-179882870D01*
X181285714Y-179882870D02*
X181333333Y-179930489D01*
X181333333Y-179930489D02*
X181380952Y-180025727D01*
X181380952Y-180025727D02*
X181380952Y-180263822D01*
X181380952Y-180263822D02*
X181333333Y-180359060D01*
X181333333Y-180359060D02*
X181285714Y-180406680D01*
X181285714Y-180406680D02*
X181190476Y-180454299D01*
X181190476Y-180454299D02*
X180904762Y-180454299D01*
X180904762Y-180454299D02*
X180809524Y-180406680D01*
X180809524Y-180406680D02*
X180761905Y-180359060D01*
X181714286Y-179454299D02*
X182333333Y-179454299D01*
X182333333Y-179454299D02*
X182000000Y-179835251D01*
X182000000Y-179835251D02*
X182142857Y-179835251D01*
X182142857Y-179835251D02*
X182238095Y-179882870D01*
X182238095Y-179882870D02*
X182285714Y-179930489D01*
X182285714Y-179930489D02*
X182333333Y-180025727D01*
X182333333Y-180025727D02*
X182333333Y-180263822D01*
X182333333Y-180263822D02*
X182285714Y-180359060D01*
X182285714Y-180359060D02*
X182238095Y-180406680D01*
X182238095Y-180406680D02*
X182142857Y-180454299D01*
X182142857Y-180454299D02*
X181857143Y-180454299D01*
X181857143Y-180454299D02*
X181761905Y-180406680D01*
X181761905Y-180406680D02*
X181714286Y-180359060D01*
X183285714Y-180454299D02*
X182714286Y-180454299D01*
X183000000Y-180454299D02*
X183000000Y-179454299D01*
X183000000Y-179454299D02*
X182904762Y-179597156D01*
X182904762Y-179597156D02*
X182809524Y-179692394D01*
X182809524Y-179692394D02*
X182714286Y-179740013D01*
%TO.C,SW316*%
X221464286Y-123406680D02*
X221607143Y-123454299D01*
X221607143Y-123454299D02*
X221845238Y-123454299D01*
X221845238Y-123454299D02*
X221940476Y-123406680D01*
X221940476Y-123406680D02*
X221988095Y-123359060D01*
X221988095Y-123359060D02*
X222035714Y-123263822D01*
X222035714Y-123263822D02*
X222035714Y-123168584D01*
X222035714Y-123168584D02*
X221988095Y-123073346D01*
X221988095Y-123073346D02*
X221940476Y-123025727D01*
X221940476Y-123025727D02*
X221845238Y-122978108D01*
X221845238Y-122978108D02*
X221654762Y-122930489D01*
X221654762Y-122930489D02*
X221559524Y-122882870D01*
X221559524Y-122882870D02*
X221511905Y-122835251D01*
X221511905Y-122835251D02*
X221464286Y-122740013D01*
X221464286Y-122740013D02*
X221464286Y-122644775D01*
X221464286Y-122644775D02*
X221511905Y-122549537D01*
X221511905Y-122549537D02*
X221559524Y-122501918D01*
X221559524Y-122501918D02*
X221654762Y-122454299D01*
X221654762Y-122454299D02*
X221892857Y-122454299D01*
X221892857Y-122454299D02*
X222035714Y-122501918D01*
X222369048Y-122454299D02*
X222607143Y-123454299D01*
X222607143Y-123454299D02*
X222797619Y-122740013D01*
X222797619Y-122740013D02*
X222988095Y-123454299D01*
X222988095Y-123454299D02*
X223226191Y-122454299D01*
X223511905Y-122454299D02*
X224130952Y-122454299D01*
X224130952Y-122454299D02*
X223797619Y-122835251D01*
X223797619Y-122835251D02*
X223940476Y-122835251D01*
X223940476Y-122835251D02*
X224035714Y-122882870D01*
X224035714Y-122882870D02*
X224083333Y-122930489D01*
X224083333Y-122930489D02*
X224130952Y-123025727D01*
X224130952Y-123025727D02*
X224130952Y-123263822D01*
X224130952Y-123263822D02*
X224083333Y-123359060D01*
X224083333Y-123359060D02*
X224035714Y-123406680D01*
X224035714Y-123406680D02*
X223940476Y-123454299D01*
X223940476Y-123454299D02*
X223654762Y-123454299D01*
X223654762Y-123454299D02*
X223559524Y-123406680D01*
X223559524Y-123406680D02*
X223511905Y-123359060D01*
X225083333Y-123454299D02*
X224511905Y-123454299D01*
X224797619Y-123454299D02*
X224797619Y-122454299D01*
X224797619Y-122454299D02*
X224702381Y-122597156D01*
X224702381Y-122597156D02*
X224607143Y-122692394D01*
X224607143Y-122692394D02*
X224511905Y-122740013D01*
X225940476Y-122454299D02*
X225750000Y-122454299D01*
X225750000Y-122454299D02*
X225654762Y-122501918D01*
X225654762Y-122501918D02*
X225607143Y-122549537D01*
X225607143Y-122549537D02*
X225511905Y-122692394D01*
X225511905Y-122692394D02*
X225464286Y-122882870D01*
X225464286Y-122882870D02*
X225464286Y-123263822D01*
X225464286Y-123263822D02*
X225511905Y-123359060D01*
X225511905Y-123359060D02*
X225559524Y-123406680D01*
X225559524Y-123406680D02*
X225654762Y-123454299D01*
X225654762Y-123454299D02*
X225845238Y-123454299D01*
X225845238Y-123454299D02*
X225940476Y-123406680D01*
X225940476Y-123406680D02*
X225988095Y-123359060D01*
X225988095Y-123359060D02*
X226035714Y-123263822D01*
X226035714Y-123263822D02*
X226035714Y-123025727D01*
X226035714Y-123025727D02*
X225988095Y-122930489D01*
X225988095Y-122930489D02*
X225940476Y-122882870D01*
X225940476Y-122882870D02*
X225845238Y-122835251D01*
X225845238Y-122835251D02*
X225654762Y-122835251D01*
X225654762Y-122835251D02*
X225559524Y-122882870D01*
X225559524Y-122882870D02*
X225511905Y-122930489D01*
X225511905Y-122930489D02*
X225464286Y-123025727D01*
%TO.C,SW328*%
X240464286Y-161406680D02*
X240607143Y-161454299D01*
X240607143Y-161454299D02*
X240845238Y-161454299D01*
X240845238Y-161454299D02*
X240940476Y-161406680D01*
X240940476Y-161406680D02*
X240988095Y-161359060D01*
X240988095Y-161359060D02*
X241035714Y-161263822D01*
X241035714Y-161263822D02*
X241035714Y-161168584D01*
X241035714Y-161168584D02*
X240988095Y-161073346D01*
X240988095Y-161073346D02*
X240940476Y-161025727D01*
X240940476Y-161025727D02*
X240845238Y-160978108D01*
X240845238Y-160978108D02*
X240654762Y-160930489D01*
X240654762Y-160930489D02*
X240559524Y-160882870D01*
X240559524Y-160882870D02*
X240511905Y-160835251D01*
X240511905Y-160835251D02*
X240464286Y-160740013D01*
X240464286Y-160740013D02*
X240464286Y-160644775D01*
X240464286Y-160644775D02*
X240511905Y-160549537D01*
X240511905Y-160549537D02*
X240559524Y-160501918D01*
X240559524Y-160501918D02*
X240654762Y-160454299D01*
X240654762Y-160454299D02*
X240892857Y-160454299D01*
X240892857Y-160454299D02*
X241035714Y-160501918D01*
X241369048Y-160454299D02*
X241607143Y-161454299D01*
X241607143Y-161454299D02*
X241797619Y-160740013D01*
X241797619Y-160740013D02*
X241988095Y-161454299D01*
X241988095Y-161454299D02*
X242226191Y-160454299D01*
X242511905Y-160454299D02*
X243130952Y-160454299D01*
X243130952Y-160454299D02*
X242797619Y-160835251D01*
X242797619Y-160835251D02*
X242940476Y-160835251D01*
X242940476Y-160835251D02*
X243035714Y-160882870D01*
X243035714Y-160882870D02*
X243083333Y-160930489D01*
X243083333Y-160930489D02*
X243130952Y-161025727D01*
X243130952Y-161025727D02*
X243130952Y-161263822D01*
X243130952Y-161263822D02*
X243083333Y-161359060D01*
X243083333Y-161359060D02*
X243035714Y-161406680D01*
X243035714Y-161406680D02*
X242940476Y-161454299D01*
X242940476Y-161454299D02*
X242654762Y-161454299D01*
X242654762Y-161454299D02*
X242559524Y-161406680D01*
X242559524Y-161406680D02*
X242511905Y-161359060D01*
X243511905Y-160549537D02*
X243559524Y-160501918D01*
X243559524Y-160501918D02*
X243654762Y-160454299D01*
X243654762Y-160454299D02*
X243892857Y-160454299D01*
X243892857Y-160454299D02*
X243988095Y-160501918D01*
X243988095Y-160501918D02*
X244035714Y-160549537D01*
X244035714Y-160549537D02*
X244083333Y-160644775D01*
X244083333Y-160644775D02*
X244083333Y-160740013D01*
X244083333Y-160740013D02*
X244035714Y-160882870D01*
X244035714Y-160882870D02*
X243464286Y-161454299D01*
X243464286Y-161454299D02*
X244083333Y-161454299D01*
X244654762Y-160882870D02*
X244559524Y-160835251D01*
X244559524Y-160835251D02*
X244511905Y-160787632D01*
X244511905Y-160787632D02*
X244464286Y-160692394D01*
X244464286Y-160692394D02*
X244464286Y-160644775D01*
X244464286Y-160644775D02*
X244511905Y-160549537D01*
X244511905Y-160549537D02*
X244559524Y-160501918D01*
X244559524Y-160501918D02*
X244654762Y-160454299D01*
X244654762Y-160454299D02*
X244845238Y-160454299D01*
X244845238Y-160454299D02*
X244940476Y-160501918D01*
X244940476Y-160501918D02*
X244988095Y-160549537D01*
X244988095Y-160549537D02*
X245035714Y-160644775D01*
X245035714Y-160644775D02*
X245035714Y-160692394D01*
X245035714Y-160692394D02*
X244988095Y-160787632D01*
X244988095Y-160787632D02*
X244940476Y-160835251D01*
X244940476Y-160835251D02*
X244845238Y-160882870D01*
X244845238Y-160882870D02*
X244654762Y-160882870D01*
X244654762Y-160882870D02*
X244559524Y-160930489D01*
X244559524Y-160930489D02*
X244511905Y-160978108D01*
X244511905Y-160978108D02*
X244464286Y-161073346D01*
X244464286Y-161073346D02*
X244464286Y-161263822D01*
X244464286Y-161263822D02*
X244511905Y-161359060D01*
X244511905Y-161359060D02*
X244559524Y-161406680D01*
X244559524Y-161406680D02*
X244654762Y-161454299D01*
X244654762Y-161454299D02*
X244845238Y-161454299D01*
X244845238Y-161454299D02*
X244940476Y-161406680D01*
X244940476Y-161406680D02*
X244988095Y-161359060D01*
X244988095Y-161359060D02*
X245035714Y-161263822D01*
X245035714Y-161263822D02*
X245035714Y-161073346D01*
X245035714Y-161073346D02*
X244988095Y-160978108D01*
X244988095Y-160978108D02*
X244940476Y-160930489D01*
X244940476Y-160930489D02*
X244845238Y-160882870D01*
%TO.C,SW306*%
X259464286Y-92006680D02*
X259607143Y-92054299D01*
X259607143Y-92054299D02*
X259845238Y-92054299D01*
X259845238Y-92054299D02*
X259940476Y-92006680D01*
X259940476Y-92006680D02*
X259988095Y-91959060D01*
X259988095Y-91959060D02*
X260035714Y-91863822D01*
X260035714Y-91863822D02*
X260035714Y-91768584D01*
X260035714Y-91768584D02*
X259988095Y-91673346D01*
X259988095Y-91673346D02*
X259940476Y-91625727D01*
X259940476Y-91625727D02*
X259845238Y-91578108D01*
X259845238Y-91578108D02*
X259654762Y-91530489D01*
X259654762Y-91530489D02*
X259559524Y-91482870D01*
X259559524Y-91482870D02*
X259511905Y-91435251D01*
X259511905Y-91435251D02*
X259464286Y-91340013D01*
X259464286Y-91340013D02*
X259464286Y-91244775D01*
X259464286Y-91244775D02*
X259511905Y-91149537D01*
X259511905Y-91149537D02*
X259559524Y-91101918D01*
X259559524Y-91101918D02*
X259654762Y-91054299D01*
X259654762Y-91054299D02*
X259892857Y-91054299D01*
X259892857Y-91054299D02*
X260035714Y-91101918D01*
X260369048Y-91054299D02*
X260607143Y-92054299D01*
X260607143Y-92054299D02*
X260797619Y-91340013D01*
X260797619Y-91340013D02*
X260988095Y-92054299D01*
X260988095Y-92054299D02*
X261226191Y-91054299D01*
X261511905Y-91054299D02*
X262130952Y-91054299D01*
X262130952Y-91054299D02*
X261797619Y-91435251D01*
X261797619Y-91435251D02*
X261940476Y-91435251D01*
X261940476Y-91435251D02*
X262035714Y-91482870D01*
X262035714Y-91482870D02*
X262083333Y-91530489D01*
X262083333Y-91530489D02*
X262130952Y-91625727D01*
X262130952Y-91625727D02*
X262130952Y-91863822D01*
X262130952Y-91863822D02*
X262083333Y-91959060D01*
X262083333Y-91959060D02*
X262035714Y-92006680D01*
X262035714Y-92006680D02*
X261940476Y-92054299D01*
X261940476Y-92054299D02*
X261654762Y-92054299D01*
X261654762Y-92054299D02*
X261559524Y-92006680D01*
X261559524Y-92006680D02*
X261511905Y-91959060D01*
X262750000Y-91054299D02*
X262845238Y-91054299D01*
X262845238Y-91054299D02*
X262940476Y-91101918D01*
X262940476Y-91101918D02*
X262988095Y-91149537D01*
X262988095Y-91149537D02*
X263035714Y-91244775D01*
X263035714Y-91244775D02*
X263083333Y-91435251D01*
X263083333Y-91435251D02*
X263083333Y-91673346D01*
X263083333Y-91673346D02*
X263035714Y-91863822D01*
X263035714Y-91863822D02*
X262988095Y-91959060D01*
X262988095Y-91959060D02*
X262940476Y-92006680D01*
X262940476Y-92006680D02*
X262845238Y-92054299D01*
X262845238Y-92054299D02*
X262750000Y-92054299D01*
X262750000Y-92054299D02*
X262654762Y-92006680D01*
X262654762Y-92006680D02*
X262607143Y-91959060D01*
X262607143Y-91959060D02*
X262559524Y-91863822D01*
X262559524Y-91863822D02*
X262511905Y-91673346D01*
X262511905Y-91673346D02*
X262511905Y-91435251D01*
X262511905Y-91435251D02*
X262559524Y-91244775D01*
X262559524Y-91244775D02*
X262607143Y-91149537D01*
X262607143Y-91149537D02*
X262654762Y-91101918D01*
X262654762Y-91101918D02*
X262750000Y-91054299D01*
X263940476Y-91054299D02*
X263750000Y-91054299D01*
X263750000Y-91054299D02*
X263654762Y-91101918D01*
X263654762Y-91101918D02*
X263607143Y-91149537D01*
X263607143Y-91149537D02*
X263511905Y-91292394D01*
X263511905Y-91292394D02*
X263464286Y-91482870D01*
X263464286Y-91482870D02*
X263464286Y-91863822D01*
X263464286Y-91863822D02*
X263511905Y-91959060D01*
X263511905Y-91959060D02*
X263559524Y-92006680D01*
X263559524Y-92006680D02*
X263654762Y-92054299D01*
X263654762Y-92054299D02*
X263845238Y-92054299D01*
X263845238Y-92054299D02*
X263940476Y-92006680D01*
X263940476Y-92006680D02*
X263988095Y-91959060D01*
X263988095Y-91959060D02*
X264035714Y-91863822D01*
X264035714Y-91863822D02*
X264035714Y-91625727D01*
X264035714Y-91625727D02*
X263988095Y-91530489D01*
X263988095Y-91530489D02*
X263940476Y-91482870D01*
X263940476Y-91482870D02*
X263845238Y-91435251D01*
X263845238Y-91435251D02*
X263654762Y-91435251D01*
X263654762Y-91435251D02*
X263559524Y-91482870D01*
X263559524Y-91482870D02*
X263511905Y-91530489D01*
X263511905Y-91530489D02*
X263464286Y-91625727D01*
%TO.C,SW317*%
X240464286Y-123406680D02*
X240607143Y-123454299D01*
X240607143Y-123454299D02*
X240845238Y-123454299D01*
X240845238Y-123454299D02*
X240940476Y-123406680D01*
X240940476Y-123406680D02*
X240988095Y-123359060D01*
X240988095Y-123359060D02*
X241035714Y-123263822D01*
X241035714Y-123263822D02*
X241035714Y-123168584D01*
X241035714Y-123168584D02*
X240988095Y-123073346D01*
X240988095Y-123073346D02*
X240940476Y-123025727D01*
X240940476Y-123025727D02*
X240845238Y-122978108D01*
X240845238Y-122978108D02*
X240654762Y-122930489D01*
X240654762Y-122930489D02*
X240559524Y-122882870D01*
X240559524Y-122882870D02*
X240511905Y-122835251D01*
X240511905Y-122835251D02*
X240464286Y-122740013D01*
X240464286Y-122740013D02*
X240464286Y-122644775D01*
X240464286Y-122644775D02*
X240511905Y-122549537D01*
X240511905Y-122549537D02*
X240559524Y-122501918D01*
X240559524Y-122501918D02*
X240654762Y-122454299D01*
X240654762Y-122454299D02*
X240892857Y-122454299D01*
X240892857Y-122454299D02*
X241035714Y-122501918D01*
X241369048Y-122454299D02*
X241607143Y-123454299D01*
X241607143Y-123454299D02*
X241797619Y-122740013D01*
X241797619Y-122740013D02*
X241988095Y-123454299D01*
X241988095Y-123454299D02*
X242226191Y-122454299D01*
X242511905Y-122454299D02*
X243130952Y-122454299D01*
X243130952Y-122454299D02*
X242797619Y-122835251D01*
X242797619Y-122835251D02*
X242940476Y-122835251D01*
X242940476Y-122835251D02*
X243035714Y-122882870D01*
X243035714Y-122882870D02*
X243083333Y-122930489D01*
X243083333Y-122930489D02*
X243130952Y-123025727D01*
X243130952Y-123025727D02*
X243130952Y-123263822D01*
X243130952Y-123263822D02*
X243083333Y-123359060D01*
X243083333Y-123359060D02*
X243035714Y-123406680D01*
X243035714Y-123406680D02*
X242940476Y-123454299D01*
X242940476Y-123454299D02*
X242654762Y-123454299D01*
X242654762Y-123454299D02*
X242559524Y-123406680D01*
X242559524Y-123406680D02*
X242511905Y-123359060D01*
X244083333Y-123454299D02*
X243511905Y-123454299D01*
X243797619Y-123454299D02*
X243797619Y-122454299D01*
X243797619Y-122454299D02*
X243702381Y-122597156D01*
X243702381Y-122597156D02*
X243607143Y-122692394D01*
X243607143Y-122692394D02*
X243511905Y-122740013D01*
X244416667Y-122454299D02*
X245083333Y-122454299D01*
X245083333Y-122454299D02*
X244654762Y-123454299D01*
%TO.C,SW319*%
X159714286Y-142406680D02*
X159857143Y-142454299D01*
X159857143Y-142454299D02*
X160095238Y-142454299D01*
X160095238Y-142454299D02*
X160190476Y-142406680D01*
X160190476Y-142406680D02*
X160238095Y-142359060D01*
X160238095Y-142359060D02*
X160285714Y-142263822D01*
X160285714Y-142263822D02*
X160285714Y-142168584D01*
X160285714Y-142168584D02*
X160238095Y-142073346D01*
X160238095Y-142073346D02*
X160190476Y-142025727D01*
X160190476Y-142025727D02*
X160095238Y-141978108D01*
X160095238Y-141978108D02*
X159904762Y-141930489D01*
X159904762Y-141930489D02*
X159809524Y-141882870D01*
X159809524Y-141882870D02*
X159761905Y-141835251D01*
X159761905Y-141835251D02*
X159714286Y-141740013D01*
X159714286Y-141740013D02*
X159714286Y-141644775D01*
X159714286Y-141644775D02*
X159761905Y-141549537D01*
X159761905Y-141549537D02*
X159809524Y-141501918D01*
X159809524Y-141501918D02*
X159904762Y-141454299D01*
X159904762Y-141454299D02*
X160142857Y-141454299D01*
X160142857Y-141454299D02*
X160285714Y-141501918D01*
X160619048Y-141454299D02*
X160857143Y-142454299D01*
X160857143Y-142454299D02*
X161047619Y-141740013D01*
X161047619Y-141740013D02*
X161238095Y-142454299D01*
X161238095Y-142454299D02*
X161476191Y-141454299D01*
X161761905Y-141454299D02*
X162380952Y-141454299D01*
X162380952Y-141454299D02*
X162047619Y-141835251D01*
X162047619Y-141835251D02*
X162190476Y-141835251D01*
X162190476Y-141835251D02*
X162285714Y-141882870D01*
X162285714Y-141882870D02*
X162333333Y-141930489D01*
X162333333Y-141930489D02*
X162380952Y-142025727D01*
X162380952Y-142025727D02*
X162380952Y-142263822D01*
X162380952Y-142263822D02*
X162333333Y-142359060D01*
X162333333Y-142359060D02*
X162285714Y-142406680D01*
X162285714Y-142406680D02*
X162190476Y-142454299D01*
X162190476Y-142454299D02*
X161904762Y-142454299D01*
X161904762Y-142454299D02*
X161809524Y-142406680D01*
X161809524Y-142406680D02*
X161761905Y-142359060D01*
X163333333Y-142454299D02*
X162761905Y-142454299D01*
X163047619Y-142454299D02*
X163047619Y-141454299D01*
X163047619Y-141454299D02*
X162952381Y-141597156D01*
X162952381Y-141597156D02*
X162857143Y-141692394D01*
X162857143Y-141692394D02*
X162761905Y-141740013D01*
X163809524Y-142454299D02*
X164000000Y-142454299D01*
X164000000Y-142454299D02*
X164095238Y-142406680D01*
X164095238Y-142406680D02*
X164142857Y-142359060D01*
X164142857Y-142359060D02*
X164238095Y-142216203D01*
X164238095Y-142216203D02*
X164285714Y-142025727D01*
X164285714Y-142025727D02*
X164285714Y-141644775D01*
X164285714Y-141644775D02*
X164238095Y-141549537D01*
X164238095Y-141549537D02*
X164190476Y-141501918D01*
X164190476Y-141501918D02*
X164095238Y-141454299D01*
X164095238Y-141454299D02*
X163904762Y-141454299D01*
X163904762Y-141454299D02*
X163809524Y-141501918D01*
X163809524Y-141501918D02*
X163761905Y-141549537D01*
X163761905Y-141549537D02*
X163714286Y-141644775D01*
X163714286Y-141644775D02*
X163714286Y-141882870D01*
X163714286Y-141882870D02*
X163761905Y-141978108D01*
X163761905Y-141978108D02*
X163809524Y-142025727D01*
X163809524Y-142025727D02*
X163904762Y-142073346D01*
X163904762Y-142073346D02*
X164095238Y-142073346D01*
X164095238Y-142073346D02*
X164190476Y-142025727D01*
X164190476Y-142025727D02*
X164238095Y-141978108D01*
X164238095Y-141978108D02*
X164285714Y-141882870D01*
%TO.C,SW329*%
X259464286Y-170906680D02*
X259607143Y-170954299D01*
X259607143Y-170954299D02*
X259845238Y-170954299D01*
X259845238Y-170954299D02*
X259940476Y-170906680D01*
X259940476Y-170906680D02*
X259988095Y-170859060D01*
X259988095Y-170859060D02*
X260035714Y-170763822D01*
X260035714Y-170763822D02*
X260035714Y-170668584D01*
X260035714Y-170668584D02*
X259988095Y-170573346D01*
X259988095Y-170573346D02*
X259940476Y-170525727D01*
X259940476Y-170525727D02*
X259845238Y-170478108D01*
X259845238Y-170478108D02*
X259654762Y-170430489D01*
X259654762Y-170430489D02*
X259559524Y-170382870D01*
X259559524Y-170382870D02*
X259511905Y-170335251D01*
X259511905Y-170335251D02*
X259464286Y-170240013D01*
X259464286Y-170240013D02*
X259464286Y-170144775D01*
X259464286Y-170144775D02*
X259511905Y-170049537D01*
X259511905Y-170049537D02*
X259559524Y-170001918D01*
X259559524Y-170001918D02*
X259654762Y-169954299D01*
X259654762Y-169954299D02*
X259892857Y-169954299D01*
X259892857Y-169954299D02*
X260035714Y-170001918D01*
X260369048Y-169954299D02*
X260607143Y-170954299D01*
X260607143Y-170954299D02*
X260797619Y-170240013D01*
X260797619Y-170240013D02*
X260988095Y-170954299D01*
X260988095Y-170954299D02*
X261226191Y-169954299D01*
X261511905Y-169954299D02*
X262130952Y-169954299D01*
X262130952Y-169954299D02*
X261797619Y-170335251D01*
X261797619Y-170335251D02*
X261940476Y-170335251D01*
X261940476Y-170335251D02*
X262035714Y-170382870D01*
X262035714Y-170382870D02*
X262083333Y-170430489D01*
X262083333Y-170430489D02*
X262130952Y-170525727D01*
X262130952Y-170525727D02*
X262130952Y-170763822D01*
X262130952Y-170763822D02*
X262083333Y-170859060D01*
X262083333Y-170859060D02*
X262035714Y-170906680D01*
X262035714Y-170906680D02*
X261940476Y-170954299D01*
X261940476Y-170954299D02*
X261654762Y-170954299D01*
X261654762Y-170954299D02*
X261559524Y-170906680D01*
X261559524Y-170906680D02*
X261511905Y-170859060D01*
X262511905Y-170049537D02*
X262559524Y-170001918D01*
X262559524Y-170001918D02*
X262654762Y-169954299D01*
X262654762Y-169954299D02*
X262892857Y-169954299D01*
X262892857Y-169954299D02*
X262988095Y-170001918D01*
X262988095Y-170001918D02*
X263035714Y-170049537D01*
X263035714Y-170049537D02*
X263083333Y-170144775D01*
X263083333Y-170144775D02*
X263083333Y-170240013D01*
X263083333Y-170240013D02*
X263035714Y-170382870D01*
X263035714Y-170382870D02*
X262464286Y-170954299D01*
X262464286Y-170954299D02*
X263083333Y-170954299D01*
X263559524Y-170954299D02*
X263750000Y-170954299D01*
X263750000Y-170954299D02*
X263845238Y-170906680D01*
X263845238Y-170906680D02*
X263892857Y-170859060D01*
X263892857Y-170859060D02*
X263988095Y-170716203D01*
X263988095Y-170716203D02*
X264035714Y-170525727D01*
X264035714Y-170525727D02*
X264035714Y-170144775D01*
X264035714Y-170144775D02*
X263988095Y-170049537D01*
X263988095Y-170049537D02*
X263940476Y-170001918D01*
X263940476Y-170001918D02*
X263845238Y-169954299D01*
X263845238Y-169954299D02*
X263654762Y-169954299D01*
X263654762Y-169954299D02*
X263559524Y-170001918D01*
X263559524Y-170001918D02*
X263511905Y-170049537D01*
X263511905Y-170049537D02*
X263464286Y-170144775D01*
X263464286Y-170144775D02*
X263464286Y-170382870D01*
X263464286Y-170382870D02*
X263511905Y-170478108D01*
X263511905Y-170478108D02*
X263559524Y-170525727D01*
X263559524Y-170525727D02*
X263654762Y-170573346D01*
X263654762Y-170573346D02*
X263845238Y-170573346D01*
X263845238Y-170573346D02*
X263940476Y-170525727D01*
X263940476Y-170525727D02*
X263988095Y-170478108D01*
X263988095Y-170478108D02*
X264035714Y-170382870D01*
%TO.C,SW301*%
X159714286Y-92006680D02*
X159857143Y-92054299D01*
X159857143Y-92054299D02*
X160095238Y-92054299D01*
X160095238Y-92054299D02*
X160190476Y-92006680D01*
X160190476Y-92006680D02*
X160238095Y-91959060D01*
X160238095Y-91959060D02*
X160285714Y-91863822D01*
X160285714Y-91863822D02*
X160285714Y-91768584D01*
X160285714Y-91768584D02*
X160238095Y-91673346D01*
X160238095Y-91673346D02*
X160190476Y-91625727D01*
X160190476Y-91625727D02*
X160095238Y-91578108D01*
X160095238Y-91578108D02*
X159904762Y-91530489D01*
X159904762Y-91530489D02*
X159809524Y-91482870D01*
X159809524Y-91482870D02*
X159761905Y-91435251D01*
X159761905Y-91435251D02*
X159714286Y-91340013D01*
X159714286Y-91340013D02*
X159714286Y-91244775D01*
X159714286Y-91244775D02*
X159761905Y-91149537D01*
X159761905Y-91149537D02*
X159809524Y-91101918D01*
X159809524Y-91101918D02*
X159904762Y-91054299D01*
X159904762Y-91054299D02*
X160142857Y-91054299D01*
X160142857Y-91054299D02*
X160285714Y-91101918D01*
X160619048Y-91054299D02*
X160857143Y-92054299D01*
X160857143Y-92054299D02*
X161047619Y-91340013D01*
X161047619Y-91340013D02*
X161238095Y-92054299D01*
X161238095Y-92054299D02*
X161476191Y-91054299D01*
X161761905Y-91054299D02*
X162380952Y-91054299D01*
X162380952Y-91054299D02*
X162047619Y-91435251D01*
X162047619Y-91435251D02*
X162190476Y-91435251D01*
X162190476Y-91435251D02*
X162285714Y-91482870D01*
X162285714Y-91482870D02*
X162333333Y-91530489D01*
X162333333Y-91530489D02*
X162380952Y-91625727D01*
X162380952Y-91625727D02*
X162380952Y-91863822D01*
X162380952Y-91863822D02*
X162333333Y-91959060D01*
X162333333Y-91959060D02*
X162285714Y-92006680D01*
X162285714Y-92006680D02*
X162190476Y-92054299D01*
X162190476Y-92054299D02*
X161904762Y-92054299D01*
X161904762Y-92054299D02*
X161809524Y-92006680D01*
X161809524Y-92006680D02*
X161761905Y-91959060D01*
X163000000Y-91054299D02*
X163095238Y-91054299D01*
X163095238Y-91054299D02*
X163190476Y-91101918D01*
X163190476Y-91101918D02*
X163238095Y-91149537D01*
X163238095Y-91149537D02*
X163285714Y-91244775D01*
X163285714Y-91244775D02*
X163333333Y-91435251D01*
X163333333Y-91435251D02*
X163333333Y-91673346D01*
X163333333Y-91673346D02*
X163285714Y-91863822D01*
X163285714Y-91863822D02*
X163238095Y-91959060D01*
X163238095Y-91959060D02*
X163190476Y-92006680D01*
X163190476Y-92006680D02*
X163095238Y-92054299D01*
X163095238Y-92054299D02*
X163000000Y-92054299D01*
X163000000Y-92054299D02*
X162904762Y-92006680D01*
X162904762Y-92006680D02*
X162857143Y-91959060D01*
X162857143Y-91959060D02*
X162809524Y-91863822D01*
X162809524Y-91863822D02*
X162761905Y-91673346D01*
X162761905Y-91673346D02*
X162761905Y-91435251D01*
X162761905Y-91435251D02*
X162809524Y-91244775D01*
X162809524Y-91244775D02*
X162857143Y-91149537D01*
X162857143Y-91149537D02*
X162904762Y-91101918D01*
X162904762Y-91101918D02*
X163000000Y-91054299D01*
X164285714Y-92054299D02*
X163714286Y-92054299D01*
X164000000Y-92054299D02*
X164000000Y-91054299D01*
X164000000Y-91054299D02*
X163904762Y-91197156D01*
X163904762Y-91197156D02*
X163809524Y-91292394D01*
X163809524Y-91292394D02*
X163714286Y-91340013D01*
%TO.C,SW311*%
X240464286Y-104406680D02*
X240607143Y-104454299D01*
X240607143Y-104454299D02*
X240845238Y-104454299D01*
X240845238Y-104454299D02*
X240940476Y-104406680D01*
X240940476Y-104406680D02*
X240988095Y-104359060D01*
X240988095Y-104359060D02*
X241035714Y-104263822D01*
X241035714Y-104263822D02*
X241035714Y-104168584D01*
X241035714Y-104168584D02*
X240988095Y-104073346D01*
X240988095Y-104073346D02*
X240940476Y-104025727D01*
X240940476Y-104025727D02*
X240845238Y-103978108D01*
X240845238Y-103978108D02*
X240654762Y-103930489D01*
X240654762Y-103930489D02*
X240559524Y-103882870D01*
X240559524Y-103882870D02*
X240511905Y-103835251D01*
X240511905Y-103835251D02*
X240464286Y-103740013D01*
X240464286Y-103740013D02*
X240464286Y-103644775D01*
X240464286Y-103644775D02*
X240511905Y-103549537D01*
X240511905Y-103549537D02*
X240559524Y-103501918D01*
X240559524Y-103501918D02*
X240654762Y-103454299D01*
X240654762Y-103454299D02*
X240892857Y-103454299D01*
X240892857Y-103454299D02*
X241035714Y-103501918D01*
X241369048Y-103454299D02*
X241607143Y-104454299D01*
X241607143Y-104454299D02*
X241797619Y-103740013D01*
X241797619Y-103740013D02*
X241988095Y-104454299D01*
X241988095Y-104454299D02*
X242226191Y-103454299D01*
X242511905Y-103454299D02*
X243130952Y-103454299D01*
X243130952Y-103454299D02*
X242797619Y-103835251D01*
X242797619Y-103835251D02*
X242940476Y-103835251D01*
X242940476Y-103835251D02*
X243035714Y-103882870D01*
X243035714Y-103882870D02*
X243083333Y-103930489D01*
X243083333Y-103930489D02*
X243130952Y-104025727D01*
X243130952Y-104025727D02*
X243130952Y-104263822D01*
X243130952Y-104263822D02*
X243083333Y-104359060D01*
X243083333Y-104359060D02*
X243035714Y-104406680D01*
X243035714Y-104406680D02*
X242940476Y-104454299D01*
X242940476Y-104454299D02*
X242654762Y-104454299D01*
X242654762Y-104454299D02*
X242559524Y-104406680D01*
X242559524Y-104406680D02*
X242511905Y-104359060D01*
X244083333Y-104454299D02*
X243511905Y-104454299D01*
X243797619Y-104454299D02*
X243797619Y-103454299D01*
X243797619Y-103454299D02*
X243702381Y-103597156D01*
X243702381Y-103597156D02*
X243607143Y-103692394D01*
X243607143Y-103692394D02*
X243511905Y-103740013D01*
X245035714Y-104454299D02*
X244464286Y-104454299D01*
X244750000Y-104454299D02*
X244750000Y-103454299D01*
X244750000Y-103454299D02*
X244654762Y-103597156D01*
X244654762Y-103597156D02*
X244559524Y-103692394D01*
X244559524Y-103692394D02*
X244464286Y-103740013D01*
%TO.C,SW326*%
X202464286Y-161406680D02*
X202607143Y-161454299D01*
X202607143Y-161454299D02*
X202845238Y-161454299D01*
X202845238Y-161454299D02*
X202940476Y-161406680D01*
X202940476Y-161406680D02*
X202988095Y-161359060D01*
X202988095Y-161359060D02*
X203035714Y-161263822D01*
X203035714Y-161263822D02*
X203035714Y-161168584D01*
X203035714Y-161168584D02*
X202988095Y-161073346D01*
X202988095Y-161073346D02*
X202940476Y-161025727D01*
X202940476Y-161025727D02*
X202845238Y-160978108D01*
X202845238Y-160978108D02*
X202654762Y-160930489D01*
X202654762Y-160930489D02*
X202559524Y-160882870D01*
X202559524Y-160882870D02*
X202511905Y-160835251D01*
X202511905Y-160835251D02*
X202464286Y-160740013D01*
X202464286Y-160740013D02*
X202464286Y-160644775D01*
X202464286Y-160644775D02*
X202511905Y-160549537D01*
X202511905Y-160549537D02*
X202559524Y-160501918D01*
X202559524Y-160501918D02*
X202654762Y-160454299D01*
X202654762Y-160454299D02*
X202892857Y-160454299D01*
X202892857Y-160454299D02*
X203035714Y-160501918D01*
X203369048Y-160454299D02*
X203607143Y-161454299D01*
X203607143Y-161454299D02*
X203797619Y-160740013D01*
X203797619Y-160740013D02*
X203988095Y-161454299D01*
X203988095Y-161454299D02*
X204226191Y-160454299D01*
X204511905Y-160454299D02*
X205130952Y-160454299D01*
X205130952Y-160454299D02*
X204797619Y-160835251D01*
X204797619Y-160835251D02*
X204940476Y-160835251D01*
X204940476Y-160835251D02*
X205035714Y-160882870D01*
X205035714Y-160882870D02*
X205083333Y-160930489D01*
X205083333Y-160930489D02*
X205130952Y-161025727D01*
X205130952Y-161025727D02*
X205130952Y-161263822D01*
X205130952Y-161263822D02*
X205083333Y-161359060D01*
X205083333Y-161359060D02*
X205035714Y-161406680D01*
X205035714Y-161406680D02*
X204940476Y-161454299D01*
X204940476Y-161454299D02*
X204654762Y-161454299D01*
X204654762Y-161454299D02*
X204559524Y-161406680D01*
X204559524Y-161406680D02*
X204511905Y-161359060D01*
X205511905Y-160549537D02*
X205559524Y-160501918D01*
X205559524Y-160501918D02*
X205654762Y-160454299D01*
X205654762Y-160454299D02*
X205892857Y-160454299D01*
X205892857Y-160454299D02*
X205988095Y-160501918D01*
X205988095Y-160501918D02*
X206035714Y-160549537D01*
X206035714Y-160549537D02*
X206083333Y-160644775D01*
X206083333Y-160644775D02*
X206083333Y-160740013D01*
X206083333Y-160740013D02*
X206035714Y-160882870D01*
X206035714Y-160882870D02*
X205464286Y-161454299D01*
X205464286Y-161454299D02*
X206083333Y-161454299D01*
X206940476Y-160454299D02*
X206750000Y-160454299D01*
X206750000Y-160454299D02*
X206654762Y-160501918D01*
X206654762Y-160501918D02*
X206607143Y-160549537D01*
X206607143Y-160549537D02*
X206511905Y-160692394D01*
X206511905Y-160692394D02*
X206464286Y-160882870D01*
X206464286Y-160882870D02*
X206464286Y-161263822D01*
X206464286Y-161263822D02*
X206511905Y-161359060D01*
X206511905Y-161359060D02*
X206559524Y-161406680D01*
X206559524Y-161406680D02*
X206654762Y-161454299D01*
X206654762Y-161454299D02*
X206845238Y-161454299D01*
X206845238Y-161454299D02*
X206940476Y-161406680D01*
X206940476Y-161406680D02*
X206988095Y-161359060D01*
X206988095Y-161359060D02*
X207035714Y-161263822D01*
X207035714Y-161263822D02*
X207035714Y-161025727D01*
X207035714Y-161025727D02*
X206988095Y-160930489D01*
X206988095Y-160930489D02*
X206940476Y-160882870D01*
X206940476Y-160882870D02*
X206845238Y-160835251D01*
X206845238Y-160835251D02*
X206654762Y-160835251D01*
X206654762Y-160835251D02*
X206559524Y-160882870D01*
X206559524Y-160882870D02*
X206511905Y-160930489D01*
X206511905Y-160930489D02*
X206464286Y-161025727D01*
%TO.C,SW327*%
X221464286Y-161406680D02*
X221607143Y-161454299D01*
X221607143Y-161454299D02*
X221845238Y-161454299D01*
X221845238Y-161454299D02*
X221940476Y-161406680D01*
X221940476Y-161406680D02*
X221988095Y-161359060D01*
X221988095Y-161359060D02*
X222035714Y-161263822D01*
X222035714Y-161263822D02*
X222035714Y-161168584D01*
X222035714Y-161168584D02*
X221988095Y-161073346D01*
X221988095Y-161073346D02*
X221940476Y-161025727D01*
X221940476Y-161025727D02*
X221845238Y-160978108D01*
X221845238Y-160978108D02*
X221654762Y-160930489D01*
X221654762Y-160930489D02*
X221559524Y-160882870D01*
X221559524Y-160882870D02*
X221511905Y-160835251D01*
X221511905Y-160835251D02*
X221464286Y-160740013D01*
X221464286Y-160740013D02*
X221464286Y-160644775D01*
X221464286Y-160644775D02*
X221511905Y-160549537D01*
X221511905Y-160549537D02*
X221559524Y-160501918D01*
X221559524Y-160501918D02*
X221654762Y-160454299D01*
X221654762Y-160454299D02*
X221892857Y-160454299D01*
X221892857Y-160454299D02*
X222035714Y-160501918D01*
X222369048Y-160454299D02*
X222607143Y-161454299D01*
X222607143Y-161454299D02*
X222797619Y-160740013D01*
X222797619Y-160740013D02*
X222988095Y-161454299D01*
X222988095Y-161454299D02*
X223226191Y-160454299D01*
X223511905Y-160454299D02*
X224130952Y-160454299D01*
X224130952Y-160454299D02*
X223797619Y-160835251D01*
X223797619Y-160835251D02*
X223940476Y-160835251D01*
X223940476Y-160835251D02*
X224035714Y-160882870D01*
X224035714Y-160882870D02*
X224083333Y-160930489D01*
X224083333Y-160930489D02*
X224130952Y-161025727D01*
X224130952Y-161025727D02*
X224130952Y-161263822D01*
X224130952Y-161263822D02*
X224083333Y-161359060D01*
X224083333Y-161359060D02*
X224035714Y-161406680D01*
X224035714Y-161406680D02*
X223940476Y-161454299D01*
X223940476Y-161454299D02*
X223654762Y-161454299D01*
X223654762Y-161454299D02*
X223559524Y-161406680D01*
X223559524Y-161406680D02*
X223511905Y-161359060D01*
X224511905Y-160549537D02*
X224559524Y-160501918D01*
X224559524Y-160501918D02*
X224654762Y-160454299D01*
X224654762Y-160454299D02*
X224892857Y-160454299D01*
X224892857Y-160454299D02*
X224988095Y-160501918D01*
X224988095Y-160501918D02*
X225035714Y-160549537D01*
X225035714Y-160549537D02*
X225083333Y-160644775D01*
X225083333Y-160644775D02*
X225083333Y-160740013D01*
X225083333Y-160740013D02*
X225035714Y-160882870D01*
X225035714Y-160882870D02*
X224464286Y-161454299D01*
X224464286Y-161454299D02*
X225083333Y-161454299D01*
X225416667Y-160454299D02*
X226083333Y-160454299D01*
X226083333Y-160454299D02*
X225654762Y-161454299D01*
D13*
%TO.C,SW314*%
X173900000Y-123900000D02*
X173900000Y-138100000D01*
X173900000Y-138100000D02*
X188100000Y-138100000D01*
X188100000Y-123900000D02*
X173900000Y-123900000D01*
X188100000Y-138100000D02*
X188100000Y-123900000D01*
%TO.C,SW313*%
X154900000Y-123900000D02*
X154900000Y-138100000D01*
X154900000Y-138100000D02*
X169100000Y-138100000D01*
X169100000Y-123900000D02*
X154900000Y-123900000D01*
X169100000Y-138100000D02*
X169100000Y-123900000D01*
%TO.C,SW318*%
X254650000Y-133400000D02*
X254650000Y-147600000D01*
X254650000Y-147600000D02*
X268850000Y-147600000D01*
X268850000Y-133400000D02*
X254650000Y-133400000D01*
X268850000Y-147600000D02*
X268850000Y-133400000D01*
%TO.C,SW310*%
X216650000Y-104900000D02*
X216650000Y-119100000D01*
X216650000Y-119100000D02*
X230850000Y-119100000D01*
X230850000Y-104900000D02*
X216650000Y-104900000D01*
X230850000Y-119100000D02*
X230850000Y-104900000D01*
%TO.C,SW308*%
X173900000Y-104900000D02*
X173900000Y-119100000D01*
X173900000Y-119100000D02*
X188100000Y-119100000D01*
X188100000Y-104900000D02*
X173900000Y-104900000D01*
X188100000Y-119100000D02*
X188100000Y-104900000D01*
%TO.C,SW304*%
X216650000Y-76400000D02*
X216650000Y-90600000D01*
X216650000Y-90600000D02*
X230850000Y-90600000D01*
X230850000Y-76400000D02*
X216650000Y-76400000D01*
X230850000Y-90600000D02*
X230850000Y-76400000D01*
%TO.C,SW307*%
X154900000Y-104900000D02*
X154900000Y-119100000D01*
X154900000Y-119100000D02*
X169100000Y-119100000D01*
X169100000Y-104900000D02*
X154900000Y-104900000D01*
X169100000Y-119100000D02*
X169100000Y-104900000D01*
%TO.C,SW305*%
X235650000Y-76400000D02*
X235650000Y-90600000D01*
X235650000Y-90600000D02*
X249850000Y-90600000D01*
X249850000Y-76400000D02*
X235650000Y-76400000D01*
X249850000Y-90600000D02*
X249850000Y-76400000D01*
%TO.C,SW333*%
X235650000Y-180900000D02*
X235650000Y-195100000D01*
X235650000Y-195100000D02*
X249850000Y-195100000D01*
X249850000Y-180900000D02*
X235650000Y-180900000D01*
X249850000Y-195100000D02*
X249850000Y-180900000D01*
%TO.C,SW332*%
X207150000Y-180900000D02*
X207150000Y-195100000D01*
X207150000Y-195100000D02*
X221350000Y-195100000D01*
X221350000Y-180900000D02*
X207150000Y-180900000D01*
X221350000Y-195100000D02*
X221350000Y-180900000D01*
%TO.C,SW330*%
X154900000Y-180900000D02*
X154900000Y-195100000D01*
X154900000Y-195100000D02*
X169100000Y-195100000D01*
X169100000Y-180900000D02*
X154900000Y-180900000D01*
X169100000Y-195100000D02*
X169100000Y-180900000D01*
%TO.C,SW325*%
X173900000Y-161900000D02*
X173900000Y-176100000D01*
X173900000Y-176100000D02*
X188100000Y-176100000D01*
X188100000Y-161900000D02*
X173900000Y-161900000D01*
X188100000Y-176100000D02*
X188100000Y-161900000D01*
%TO.C,J101*%
X177820000Y-99920000D02*
X177820000Y-101250000D01*
X176490000Y-99920000D02*
X177820000Y-99920000D01*
X175220000Y-99920000D02*
X165000000Y-99920000D01*
X175220000Y-99920000D02*
X175220000Y-102580000D01*
X165000000Y-99920000D02*
X165000000Y-102580000D01*
X175220000Y-102580000D02*
X165000000Y-102580000D01*
%TO.C,SW312*%
X254650000Y-104900000D02*
X254650000Y-119100000D01*
X254650000Y-119100000D02*
X268850000Y-119100000D01*
X268850000Y-104900000D02*
X254650000Y-104900000D01*
X268850000Y-119100000D02*
X268850000Y-104900000D01*
%TO.C,SW320*%
X173900000Y-142900000D02*
X173900000Y-157100000D01*
X173900000Y-157100000D02*
X188100000Y-157100000D01*
X188100000Y-142900000D02*
X173900000Y-142900000D01*
X188100000Y-157100000D02*
X188100000Y-142900000D01*
%TO.C,SW323*%
X235650000Y-142900000D02*
X235650000Y-157100000D01*
X235650000Y-157100000D02*
X249850000Y-157100000D01*
X249850000Y-142900000D02*
X235650000Y-142900000D01*
X249850000Y-157100000D02*
X249850000Y-142900000D01*
%TO.C,SW315*%
X197650000Y-123900000D02*
X197650000Y-138100000D01*
X197650000Y-138100000D02*
X211850000Y-138100000D01*
X211850000Y-123900000D02*
X197650000Y-123900000D01*
X211850000Y-138100000D02*
X211850000Y-123900000D01*
%TO.C,SW303*%
X197650000Y-76400000D02*
X197650000Y-90600000D01*
X197650000Y-90600000D02*
X211850000Y-90600000D01*
X211850000Y-76400000D02*
X197650000Y-76400000D01*
X211850000Y-90600000D02*
X211850000Y-76400000D01*
%TO.C,SW324*%
X154900000Y-161900000D02*
X154900000Y-176100000D01*
X154900000Y-176100000D02*
X169100000Y-176100000D01*
X169100000Y-161900000D02*
X154900000Y-161900000D01*
X169100000Y-176100000D02*
X169100000Y-161900000D01*
%TO.C,J103*%
X218270000Y-94430000D02*
X218270000Y-93100000D01*
X219600000Y-94430000D02*
X218270000Y-94430000D01*
X220870000Y-94430000D02*
X228550000Y-94430000D01*
X220870000Y-94430000D02*
X220870000Y-91770000D01*
X228550000Y-94430000D02*
X228550000Y-91770000D01*
X220870000Y-91770000D02*
X228550000Y-91770000D01*
%TO.C,SW302*%
X173900000Y-76400000D02*
X173900000Y-90600000D01*
X173900000Y-90600000D02*
X188100000Y-90600000D01*
X188100000Y-76400000D02*
X173900000Y-76400000D01*
X188100000Y-90600000D02*
X188100000Y-76400000D01*
%TO.C,SW321*%
X197650000Y-142900000D02*
X197650000Y-157100000D01*
X197650000Y-157100000D02*
X211850000Y-157100000D01*
X211850000Y-142900000D02*
X197650000Y-142900000D01*
X211850000Y-157100000D02*
X211850000Y-142900000D01*
%TO.C,SW309*%
X197650000Y-104900000D02*
X197650000Y-119100000D01*
X197650000Y-119100000D02*
X211850000Y-119100000D01*
X211850000Y-104900000D02*
X197650000Y-104900000D01*
X211850000Y-119100000D02*
X211850000Y-104900000D01*
%TO.C,SW322*%
X216650000Y-142900000D02*
X216650000Y-157100000D01*
X216650000Y-157100000D02*
X230850000Y-157100000D01*
X230850000Y-142900000D02*
X216650000Y-142900000D01*
X230850000Y-157100000D02*
X230850000Y-142900000D01*
%TO.C,SW331*%
X173900000Y-180900000D02*
X173900000Y-195100000D01*
X173900000Y-195100000D02*
X188100000Y-195100000D01*
X188100000Y-180900000D02*
X173900000Y-180900000D01*
X188100000Y-195100000D02*
X188100000Y-180900000D01*
%TO.C,SW316*%
X216650000Y-123900000D02*
X216650000Y-138100000D01*
X216650000Y-138100000D02*
X230850000Y-138100000D01*
X230850000Y-123900000D02*
X216650000Y-123900000D01*
X230850000Y-138100000D02*
X230850000Y-123900000D01*
%TO.C,SW328*%
X235650000Y-161900000D02*
X235650000Y-176100000D01*
X235650000Y-176100000D02*
X249850000Y-176100000D01*
X249850000Y-161900000D02*
X235650000Y-161900000D01*
X249850000Y-176100000D02*
X249850000Y-161900000D01*
%TO.C,SW306*%
X254650000Y-76400000D02*
X254650000Y-90600000D01*
X254650000Y-90600000D02*
X268850000Y-90600000D01*
X268850000Y-76400000D02*
X254650000Y-76400000D01*
X268850000Y-90600000D02*
X268850000Y-76400000D01*
%TO.C,SW317*%
X235650000Y-123900000D02*
X235650000Y-138100000D01*
X235650000Y-138100000D02*
X249850000Y-138100000D01*
X249850000Y-123900000D02*
X235650000Y-123900000D01*
X249850000Y-138100000D02*
X249850000Y-123900000D01*
%TO.C,SW319*%
X154900000Y-142900000D02*
X154900000Y-157100000D01*
X154900000Y-157100000D02*
X169100000Y-157100000D01*
X169100000Y-142900000D02*
X154900000Y-142900000D01*
X169100000Y-157100000D02*
X169100000Y-142900000D01*
%TO.C,SW329*%
X254650000Y-171400000D02*
X254650000Y-185600000D01*
X254650000Y-185600000D02*
X268850000Y-185600000D01*
X268850000Y-171400000D02*
X254650000Y-171400000D01*
X268850000Y-185600000D02*
X268850000Y-171400000D01*
%TO.C,SW301*%
X154900000Y-76400000D02*
X154900000Y-90600000D01*
X154900000Y-90600000D02*
X169100000Y-90600000D01*
X169100000Y-76400000D02*
X154900000Y-76400000D01*
X169100000Y-90600000D02*
X169100000Y-76400000D01*
%TO.C,SW311*%
X235650000Y-104900000D02*
X235650000Y-119100000D01*
X235650000Y-119100000D02*
X249850000Y-119100000D01*
X249850000Y-104900000D02*
X235650000Y-104900000D01*
X249850000Y-119100000D02*
X249850000Y-104900000D01*
%TO.C,SW326*%
X197650000Y-161900000D02*
X197650000Y-176100000D01*
X197650000Y-176100000D02*
X211850000Y-176100000D01*
X211850000Y-161900000D02*
X197650000Y-161900000D01*
X211850000Y-176100000D02*
X211850000Y-161900000D01*
%TO.C,SW327*%
X216650000Y-161900000D02*
X216650000Y-176100000D01*
X216650000Y-176100000D02*
X230850000Y-176100000D01*
X230850000Y-161900000D02*
X216650000Y-161900000D01*
X230850000Y-176100000D02*
X230850000Y-161900000D01*
%TD*%
G36*
X242408039Y-93669685D02*
G01*
X242453794Y-93722489D01*
X242465000Y-93774000D01*
X242464999Y-97949999D01*
X242465000Y-97950000D01*
X242841000Y-97950000D01*
X242908039Y-97969685D01*
X242953794Y-98022489D01*
X242965000Y-98074000D01*
X242965000Y-102126000D01*
X242945315Y-102193039D01*
X242892511Y-102238794D01*
X242841000Y-102250000D01*
X240689000Y-102250000D01*
X240621961Y-102230315D01*
X240576206Y-102177511D01*
X240565000Y-102126000D01*
X240565000Y-99167857D01*
X240864286Y-99167857D01*
X240864286Y-101032143D01*
X242665715Y-101032143D01*
X242665715Y-99167857D01*
X240864286Y-99167857D01*
X240565000Y-99167857D01*
X240565000Y-93774000D01*
X240584685Y-93706961D01*
X240637489Y-93661206D01*
X240689000Y-93650000D01*
X242341000Y-93650000D01*
X242408039Y-93669685D01*
G37*
G36*
X245108039Y-93669685D02*
G01*
X245153794Y-93722489D01*
X245165000Y-93774000D01*
X245165000Y-97950000D01*
X245541000Y-97950000D01*
X245608039Y-97969685D01*
X245653794Y-98022489D01*
X245665000Y-98074000D01*
X245665000Y-102126000D01*
X245645315Y-102193039D01*
X245592511Y-102238794D01*
X245541000Y-102250000D01*
X243389000Y-102250000D01*
X243321961Y-102230315D01*
X243276206Y-102177511D01*
X243265000Y-102126000D01*
X243265000Y-99167857D01*
X243721429Y-99167857D01*
X243721429Y-101032143D01*
X245208572Y-101032143D01*
X245208572Y-99167857D01*
X243721429Y-99167857D01*
X243265000Y-99167857D01*
X243265000Y-98074000D01*
X243284685Y-98006961D01*
X243337489Y-97961206D01*
X243389000Y-97950000D01*
X243770000Y-97950000D01*
X243770000Y-93774000D01*
X243789685Y-93706961D01*
X243842489Y-93661206D01*
X243894000Y-93650000D01*
X245041000Y-93650000D01*
X245108039Y-93669685D01*
G37*
G36*
X247808039Y-93669685D02*
G01*
X247853794Y-93722489D01*
X247865000Y-93774000D01*
X247865000Y-97950000D01*
X248241000Y-97950000D01*
X248308039Y-97969685D01*
X248353794Y-98022489D01*
X248365000Y-98074000D01*
X248365000Y-102126000D01*
X248345315Y-102193039D01*
X248292511Y-102238794D01*
X248241000Y-102250000D01*
X246089000Y-102250000D01*
X246021961Y-102230315D01*
X245976206Y-102177511D01*
X245965000Y-102126000D01*
X245965000Y-99142857D01*
X246369048Y-99142857D01*
X246369048Y-101007143D01*
X247960953Y-101007143D01*
X247960953Y-99142857D01*
X246369048Y-99142857D01*
X245965000Y-99142857D01*
X245965000Y-98074000D01*
X245984685Y-98006961D01*
X246037489Y-97961206D01*
X246089000Y-97950000D01*
X246465000Y-97950000D01*
X246465000Y-93774000D01*
X246484685Y-93706961D01*
X246537489Y-93661206D01*
X246589000Y-93650000D01*
X247741000Y-93650000D01*
X247808039Y-93669685D01*
G37*
G36*
X251008039Y-93669685D02*
G01*
X251053794Y-93722489D01*
X251065000Y-93774000D01*
X251065000Y-102126000D01*
X251045315Y-102193039D01*
X250992511Y-102238794D01*
X250941000Y-102250000D01*
X248789000Y-102250000D01*
X248721961Y-102230315D01*
X248676206Y-102177511D01*
X248665000Y-102126000D01*
X248665000Y-99142857D01*
X249042857Y-99142857D01*
X249042857Y-101007143D01*
X250687143Y-101007143D01*
X250687143Y-99142857D01*
X249042857Y-99142857D01*
X248665000Y-99142857D01*
X248665000Y-98074000D01*
X248684685Y-98006961D01*
X248737489Y-97961206D01*
X248789000Y-97950000D01*
X249165000Y-97950000D01*
X249165000Y-93774000D01*
X249184685Y-93706961D01*
X249237489Y-93661206D01*
X249289000Y-93650000D01*
X250941000Y-93650000D01*
X251008039Y-93669685D01*
G37*
M02*
