%TF.GenerationSoftware,KiCad,Pcbnew,7.0.5-0*%
%TF.CreationDate,2023-06-18T09:02:34-05:00*%
%TF.ProjectId,Nifty Numpad,4e696674-7920-44e7-956d-7061642e6b69,rev?*%
%TF.SameCoordinates,Original*%
%TF.FileFunction,Profile,NP*%
%FSLAX46Y46*%
G04 Gerber Fmt 4.6, Leading zero omitted, Abs format (unit mm)*
G04 Created by KiCad (PCBNEW 7.0.5-0) date 2023-06-18 09:02:34*
%MOMM*%
%LPD*%
G01*
G04 APERTURE LIST*
%TA.AperFunction,Profile*%
%ADD10C,0.050000*%
%TD*%
%TA.AperFunction,Profile*%
%ADD11C,0.100000*%
%TD*%
G04 APERTURE END LIST*
D10*
X198345000Y-70700000D02*
X198345000Y-69650000D01*
X198345000Y-70700000D02*
G75*
G03*
X201845000Y-74200000I3500000J0D01*
G01*
X269750000Y-74200000D02*
X201845000Y-74200000D01*
X271050000Y-75500000D02*
G75*
G03*
X269750000Y-74200000I-1300000J0D01*
G01*
X271050000Y-196000000D02*
X271050000Y-75500000D01*
X269750000Y-197300000D02*
G75*
G03*
X271050000Y-196000000I0J1300000D01*
G01*
X154000000Y-197300000D02*
X269750000Y-197300000D01*
X152700000Y-196000000D02*
G75*
G03*
X154000000Y-197300000I1300000J0D01*
G01*
X152700000Y-75500000D02*
X152700000Y-196000000D01*
X154000000Y-74200000D02*
G75*
G03*
X152700000Y-75500000I0J-1300000D01*
G01*
X183905000Y-74200000D02*
X154000000Y-74200000D01*
X183905000Y-74200000D02*
G75*
G03*
X187405000Y-70700000I0J3500000D01*
G01*
X187405000Y-69650000D02*
X187405000Y-70700000D01*
X189405000Y-67650000D02*
G75*
G03*
X187405000Y-69650000I0J-2000000D01*
G01*
X196345000Y-67650000D02*
X189405000Y-67650000D01*
X198345000Y-69650000D02*
G75*
G03*
X196345000Y-67650000I-2000000J0D01*
G01*
D11*
%TO.C,D229*%
X259850000Y-181300000D02*
X263650000Y-181300000D01*
X259850000Y-184700000D02*
X259850000Y-181300000D01*
X263650000Y-181300000D02*
X263650000Y-184700000D01*
X263650000Y-184700000D02*
X259850000Y-184700000D01*
%TO.C,D217*%
X240850000Y-133800000D02*
X244650000Y-133800000D01*
X240850000Y-137200000D02*
X240850000Y-133800000D01*
X244650000Y-133800000D02*
X244650000Y-137200000D01*
X244650000Y-137200000D02*
X240850000Y-137200000D01*
%TO.C,D220*%
X179100000Y-152800000D02*
X182900000Y-152800000D01*
X179100000Y-156200000D02*
X179100000Y-152800000D01*
X182900000Y-152800000D02*
X182900000Y-156200000D01*
X182900000Y-156200000D02*
X179100000Y-156200000D01*
%TO.C,D205*%
X240850000Y-86300000D02*
X244650000Y-86300000D01*
X240850000Y-89700000D02*
X240850000Y-86300000D01*
X244650000Y-86300000D02*
X244650000Y-89700000D01*
X244650000Y-89700000D02*
X240850000Y-89700000D01*
%TO.C,D215*%
X202850000Y-133800000D02*
X206650000Y-133800000D01*
X202850000Y-137200000D02*
X202850000Y-133800000D01*
X206650000Y-133800000D02*
X206650000Y-137200000D01*
X206650000Y-137200000D02*
X202850000Y-137200000D01*
%TO.C,D202*%
X179100000Y-86300000D02*
X182900000Y-86300000D01*
X179100000Y-89700000D02*
X179100000Y-86300000D01*
X182900000Y-86300000D02*
X182900000Y-89700000D01*
X182900000Y-89700000D02*
X179100000Y-89700000D01*
%TO.C,D201*%
X160100000Y-86300000D02*
X163900000Y-86300000D01*
X160100000Y-89700000D02*
X160100000Y-86300000D01*
X163900000Y-86300000D02*
X163900000Y-89700000D01*
X163900000Y-89700000D02*
X160100000Y-89700000D01*
%TO.C,D212*%
X259850000Y-114800000D02*
X263650000Y-114800000D01*
X259850000Y-118200000D02*
X259850000Y-114800000D01*
X263650000Y-114800000D02*
X263650000Y-118200000D01*
X263650000Y-118200000D02*
X259850000Y-118200000D01*
%TO.C,D226*%
X202850000Y-171800000D02*
X206650000Y-171800000D01*
X202850000Y-175200000D02*
X202850000Y-171800000D01*
X206650000Y-171800000D02*
X206650000Y-175200000D01*
X206650000Y-175200000D02*
X202850000Y-175200000D01*
%TO.C,D219*%
X160100000Y-152800000D02*
X163900000Y-152800000D01*
X160100000Y-156200000D02*
X160100000Y-152800000D01*
X163900000Y-152800000D02*
X163900000Y-156200000D01*
X163900000Y-156200000D02*
X160100000Y-156200000D01*
%TO.C,D204*%
X221850000Y-86300000D02*
X225650000Y-86300000D01*
X221850000Y-89700000D02*
X221850000Y-86300000D01*
X225650000Y-86300000D02*
X225650000Y-89700000D01*
X225650000Y-89700000D02*
X221850000Y-89700000D01*
%TO.C,D211*%
X240850000Y-114800000D02*
X244650000Y-114800000D01*
X240850000Y-118200000D02*
X240850000Y-114800000D01*
X244650000Y-114800000D02*
X244650000Y-118200000D01*
X244650000Y-118200000D02*
X240850000Y-118200000D01*
%TO.C,D206*%
X259850000Y-86300000D02*
X263650000Y-86300000D01*
X259850000Y-89700000D02*
X259850000Y-86300000D01*
X263650000Y-86300000D02*
X263650000Y-89700000D01*
X263650000Y-89700000D02*
X259850000Y-89700000D01*
%TO.C,D224*%
X160100000Y-171800000D02*
X163900000Y-171800000D01*
X160100000Y-175200000D02*
X160100000Y-171800000D01*
X163900000Y-171800000D02*
X163900000Y-175200000D01*
X163900000Y-175200000D02*
X160100000Y-175200000D01*
%TO.C,D232*%
X212350000Y-190800000D02*
X216150000Y-190800000D01*
X212350000Y-194200000D02*
X212350000Y-190800000D01*
X216150000Y-190800000D02*
X216150000Y-194200000D01*
X216150000Y-194200000D02*
X212350000Y-194200000D01*
%TO.C,D213*%
X160100000Y-133800000D02*
X163900000Y-133800000D01*
X160100000Y-137200000D02*
X160100000Y-133800000D01*
X163900000Y-133800000D02*
X163900000Y-137200000D01*
X163900000Y-137200000D02*
X160100000Y-137200000D01*
%TO.C,D233*%
X240850000Y-190800000D02*
X244650000Y-190800000D01*
X240850000Y-194200000D02*
X240850000Y-190800000D01*
X244650000Y-190800000D02*
X244650000Y-194200000D01*
X244650000Y-194200000D02*
X240850000Y-194200000D01*
%TO.C,D207*%
X160100000Y-114800000D02*
X163900000Y-114800000D01*
X160100000Y-118200000D02*
X160100000Y-114800000D01*
X163900000Y-114800000D02*
X163900000Y-118200000D01*
X163900000Y-118200000D02*
X160100000Y-118200000D01*
%TO.C,D231*%
X179100000Y-190800000D02*
X182900000Y-190800000D01*
X179100000Y-194200000D02*
X179100000Y-190800000D01*
X182900000Y-190800000D02*
X182900000Y-194200000D01*
X182900000Y-194200000D02*
X179100000Y-194200000D01*
%TO.C,D218*%
X259850000Y-143300000D02*
X263650000Y-143300000D01*
X259850000Y-146700000D02*
X259850000Y-143300000D01*
X263650000Y-143300000D02*
X263650000Y-146700000D01*
X263650000Y-146700000D02*
X259850000Y-146700000D01*
%TO.C,D222*%
X221850000Y-152800000D02*
X225650000Y-152800000D01*
X221850000Y-156200000D02*
X221850000Y-152800000D01*
X225650000Y-152800000D02*
X225650000Y-156200000D01*
X225650000Y-156200000D02*
X221850000Y-156200000D01*
%TO.C,D230*%
X160100000Y-190800000D02*
X163900000Y-190800000D01*
X160100000Y-194200000D02*
X160100000Y-190800000D01*
X163900000Y-190800000D02*
X163900000Y-194200000D01*
X163900000Y-194200000D02*
X160100000Y-194200000D01*
%TO.C,D221*%
X202850000Y-152800000D02*
X206650000Y-152800000D01*
X202850000Y-156200000D02*
X202850000Y-152800000D01*
X206650000Y-152800000D02*
X206650000Y-156200000D01*
X206650000Y-156200000D02*
X202850000Y-156200000D01*
%TO.C,D227*%
X221850000Y-171800000D02*
X225650000Y-171800000D01*
X221850000Y-175200000D02*
X221850000Y-171800000D01*
X225650000Y-171800000D02*
X225650000Y-175200000D01*
X225650000Y-175200000D02*
X221850000Y-175200000D01*
%TO.C,D209*%
X202850000Y-114800000D02*
X206650000Y-114800000D01*
X202850000Y-118200000D02*
X202850000Y-114800000D01*
X206650000Y-114800000D02*
X206650000Y-118200000D01*
X206650000Y-118200000D02*
X202850000Y-118200000D01*
%TO.C,D210*%
X221850000Y-114800000D02*
X225650000Y-114800000D01*
X221850000Y-118200000D02*
X221850000Y-114800000D01*
X225650000Y-114800000D02*
X225650000Y-118200000D01*
X225650000Y-118200000D02*
X221850000Y-118200000D01*
%TO.C,D228*%
X240850000Y-171800000D02*
X244650000Y-171800000D01*
X240850000Y-175200000D02*
X240850000Y-171800000D01*
X244650000Y-171800000D02*
X244650000Y-175200000D01*
X244650000Y-175200000D02*
X240850000Y-175200000D01*
%TO.C,D223*%
X240850000Y-152800000D02*
X244650000Y-152800000D01*
X240850000Y-156200000D02*
X240850000Y-152800000D01*
X244650000Y-152800000D02*
X244650000Y-156200000D01*
X244650000Y-156200000D02*
X240850000Y-156200000D01*
%TO.C,D208*%
X179100000Y-114800000D02*
X182900000Y-114800000D01*
X179100000Y-118200000D02*
X179100000Y-114800000D01*
X182900000Y-114800000D02*
X182900000Y-118200000D01*
X182900000Y-118200000D02*
X179100000Y-118200000D01*
%TO.C,D216*%
X221850000Y-133800000D02*
X225650000Y-133800000D01*
X221850000Y-137200000D02*
X221850000Y-133800000D01*
X225650000Y-133800000D02*
X225650000Y-137200000D01*
X225650000Y-137200000D02*
X221850000Y-137200000D01*
%TO.C,D203*%
X202850000Y-86300000D02*
X206650000Y-86300000D01*
X202850000Y-89700000D02*
X202850000Y-86300000D01*
X206650000Y-86300000D02*
X206650000Y-89700000D01*
X206650000Y-89700000D02*
X202850000Y-89700000D01*
%TO.C,D214*%
X179100000Y-133800000D02*
X182900000Y-133800000D01*
X179100000Y-137200000D02*
X179100000Y-133800000D01*
X182900000Y-133800000D02*
X182900000Y-137200000D01*
X182900000Y-137200000D02*
X179100000Y-137200000D01*
%TO.C,D225*%
X179100000Y-171800000D02*
X182900000Y-171800000D01*
X179100000Y-175200000D02*
X179100000Y-171800000D01*
X182900000Y-171800000D02*
X182900000Y-175200000D01*
X182900000Y-175200000D02*
X179100000Y-175200000D01*
%TD*%
M02*
