0
SECTION
2
HEADER
9
$INSUNITS
70
4
9
$ACADVER
1
AC1014
9
$HANDSEED
5
FFFF
0
ENDSEC
0
SECTION
2
TABLES
0
TABLE
2
VPORT
5
8
100
AcDbSymbolTable
0
ENDTAB
0
TABLE
2
LTYPE
5
5
100
AcDbSymbolTable
0
LTYPE
5
14
100
AcDbSymbolTableRecord
100
AcDbLinetypeTableRecord
2
BYBLOCK
70
0
0
LTYPE
5
15
100
AcDbSymbolTableRecord
100
AcDbLinetypeTableRecord
2
BYLAYER
70
0
0
ENDTAB
0
TABLE
2
LAYER
5
2
100
AcDbSymbolTable
70
2
0
LAYER
5
50
100
AcDbSymbolTableRecord
100
AcDbLayerTableRecord
2
0
70
0
6
CONTINUOUS
0
ENDTAB
0
TABLE
2
STYLE
5
3
100
AcDbSymbolTable
70
1
0
STYLE
5
11
100
AcDbSymbolTableRecord
100
AcDbTextStyleTableRecord
2
STANDARD
70
0
0
ENDTAB
0
TABLE
2
VIEW
5
6
100
AcDbSymbolTable
70
0
0
ENDTAB
0
TABLE
2
UCS
5
7
100
AcDbSymbolTable
70
0
0
ENDTAB
0
TABLE
2
APPID
5
9
100
AcDbSymbolTable
70
2
0
APPID
5
12
100
AcDbSymbolTableRecord
100
AcDbRegAppTableRecord
2
ACAD
70
0
0
ENDTAB
0
TABLE
2
DIMSTYLE
5
A
100
AcDbSymbolTable
70
1
0
ENDTAB
0
TABLE
2
BLOCK_RECORD
5
1
100
AcDbSymbolTable
70
1
0
BLOCK_RECORD
5
1F
100
AcDbSymbolTableRecord
100
AcDbBlockTableRecord
2
*MODEL_SPACE
0
BLOCK_RECORD
5
1B
100
AcDbSymbolTableRecord
100
AcDbBlockTableRecord
2
*PAPER_SPACE
0
ENDTAB
0
ENDSEC
0
SECTION
2
BLOCKS
0
BLOCK
5
20
100
AcDbEntity
100
AcDbBlockBegin
2
*MODEL_SPACE
0
ENDBLK
5
21
100
AcDbEntity
100
AcDbBlockEnd
0
BLOCK
5
1C
100
AcDbEntity
100
AcDbBlockBegin
2
*PAPER_SPACE
0
ENDBLK
5
1D
100
AcDbEntity
100
AcDbBlockEnd
0
ENDSEC
0
SECTION
2
ENTITIES
0
LWPOLYLINE
5
100
100
AcDbEntity
8
0
100
AcDbPolyline
90
36
70
1
43
0.0
10
111.25
20
30.075000000000003
10
104.98000000000002
20
30.075000000000003
10
104.98000000000002
20
31.899999999999995
10
103.78
20
31.899999999999995
10
103.78
20
34.900000000000006
10
104.98000000000002
20
34.900000000000006
10
104.98000000000002
20
36.725000000000001
10
111.25
20
36.725000000000001
10
111.25
20
37.599999999999994
10
114.05000000000001
20
37.599999999999994
10
114.05000000000001
20
36.725000000000001
10
117.28000000000002
20
36.725000000000001
10
117.28000000000002
20
30.075000000000003
10
114.05000000000001
20
30.075000000000003
10
114.05000000000001
20
28.499999999999996
10
118.75
20
28.499999999999996
10
118.75
20
14.500000000000002
10
114.05000000000001
20
14.500000000000002
10
114.05000000000001
20
12.925000000000004
10
117.28000000000002
20
12.925000000000004
10
117.28000000000002
20
6.2750000000000039
10
114.05000000000001
20
6.2750000000000039
10
114.05000000000001
20
5.4000000000000004
10
111.25
20
5.4000000000000004
10
111.25
20
6.2750000000000039
10
104.98000000000002
20
6.2750000000000039
10
104.98000000000002
20
8.100000000000005
10
103.78
20
8.100000000000005
10
103.78
20
11.100000000000003
10
104.98000000000002
20
11.100000000000003
10
104.98000000000002
20
12.925000000000004
10
111.25
20
12.925000000000004
10
111.25
20
14.500000000000002
10
104.75000000000001
20
14.500000000000002
10
104.75000000000001
20
28.499999999999996
10
111.25
20
28.499999999999996
0
LWPOLYLINE
5
101
100
AcDbEntity
8
0
100
AcDbPolyline
90
4
70
1
43
0.0
10
85.750000000000014
20
5
10
85.750000000000014
20
19.000000000000004
10
99.750000000000014
20
19.000000000000004
10
99.750000000000014
20
5
0
LWPOLYLINE
5
102
100
AcDbEntity
8
0
100
AcDbPolyline
90
4
70
1
43
0.0
10
104.75000000000001
20
81
10
104.75000000000001
20
95
10
118.75
20
95
10
118.75
20
81
0
LWPOLYLINE
5
103
100
AcDbEntity
8
0
100
AcDbPolyline
90
36
70
1
43
0.0
10
49.024999999999999
20
5.2299999999999969
10
49.024999999999999
20
11.500000000000004
10
48.150000000000006
20
11.500000000000004
10
48.150000000000006
20
14.299999999999997
10
49.024999999999999
20
14.299999999999997
10
49.024999999999999
20
17.530000000000001
10
55.674999999999997
20
17.530000000000001
10
55.674999999999997
20
14.299999999999997
10
57.250000000000007
20
14.299999999999997
10
57.250000000000007
20
19.000000000000004
10
71.25
20
19.000000000000004
10
71.25
20
14.299999999999997
10
72.825000000000003
20
14.299999999999997
10
72.825000000000003
20
17.530000000000001
10
79.474999999999994
20
17.530000000000001
10
79.474999999999994
20
14.299999999999997
10
80.349999999999994
20
14.299999999999997
10
80.349999999999994
20
11.500000000000004
10
79.474999999999994
20
11.500000000000004
10
79.474999999999994
20
5.2299999999999969
10
77.650000000000006
20
5.2299999999999969
10
77.650000000000006
20
4.0300000000000047
10
74.650000000000006
20
4.0300000000000047
10
74.650000000000006
20
5.2299999999999969
10
72.825000000000003
20
5.2299999999999969
10
72.825000000000003
20
11.500000000000004
10
71.25
20
11.500000000000004
10
71.25
20
5
10
57.250000000000007
20
5
10
57.250000000000007
20
11.500000000000004
10
55.674999999999997
20
11.500000000000004
10
55.674999999999997
20
5.2299999999999969
10
53.850000000000009
20
5.2299999999999969
10
53.850000000000009
20
4.0300000000000047
10
50.850000000000009
20
4.0300000000000047
10
50.850000000000009
20
5.2299999999999969
0
LWPOLYLINE
5
104
100
AcDbEntity
8
0
100
AcDbPolyline
90
4
70
1
43
0.0
10
66.75
20
43
10
66.75
20
57
10
80.750000000000014
20
57
10
80.750000000000014
20
43
0
LWPOLYLINE
5
105
100
AcDbEntity
8
0
100
AcDbPolyline
90
4
70
1
43
0.0
10
66.75
20
123.50000000000001
10
80.750000000000014
20
123.50000000000001
10
80.750000000000014
20
109.50000000000001
10
66.75
20
109.50000000000001
0
LWPOLYLINE
5
106
100
AcDbEntity
8
0
100
AcDbPolyline
90
4
70
1
43
0.0
10
24.000000000000004
20
19.000000000000004
10
38.000000000000007
20
19.000000000000004
10
38.000000000000007
20
5
10
24.000000000000004
20
5
0
LWPOLYLINE
5
107
100
AcDbEntity
8
0
100
AcDbPolyline
90
4
70
1
43
0.0
10
85.750000000000014
20
123.50000000000001
10
99.750000000000014
20
123.50000000000001
10
99.750000000000014
20
109.50000000000001
10
85.750000000000014
20
109.50000000000001
0
LWPOLYLINE
5
108
100
AcDbEntity
8
0
100
AcDbPolyline
90
4
70
1
43
0.0
10
19.000000000000004
20
109.50000000000001
10
5
20
109.50000000000001
10
5
20
123.50000000000001
10
19.000000000000004
20
123.50000000000001
0
LWPOLYLINE
5
109
100
AcDbEntity
8
0
100
AcDbPolyline
90
4
70
1
43
0.0
10
99.750000000000014
20
24.000000000000004
10
85.750000000000014
20
24.000000000000004
10
85.750000000000014
20
38.000000000000007
10
99.750000000000014
20
38.000000000000007
0
LWPOLYLINE
5
110
100
AcDbEntity
8
0
100
AcDbPolyline
90
36
70
1
43
0.0
10
117.28000000000002
20
68.075000000000017
10
114.05000000000001
20
68.075000000000017
10
114.05000000000001
20
66.5
10
118.75
20
66.5
10
118.75
20
52.5
10
114.05000000000001
20
52.5
10
114.05000000000001
20
50.925000000000004
10
117.28000000000002
20
50.925000000000004
10
117.28000000000002
20
44.275000000000006
10
114.05000000000001
20
44.275000000000006
10
114.05000000000001
20
43.399999999999999
10
111.25
20
43.399999999999999
10
111.25
20
44.275000000000006
10
104.98000000000002
20
44.275000000000006
10
104.98000000000002
20
46.100000000000001
10
103.78
20
46.100000000000001
10
103.78
20
49.100000000000001
10
104.98000000000002
20
49.100000000000001
10
104.98000000000002
20
50.925000000000004
10
111.25
20
50.925000000000004
10
111.25
20
52.5
10
104.75000000000001
20
52.5
10
104.75000000000001
20
66.5
10
111.25
20
66.5
10
111.25
20
68.075000000000017
10
104.98000000000002
20
68.075000000000017
10
104.98000000000002
20
69.900000000000006
10
103.78
20
69.900000000000006
10
103.78
20
72.900000000000006
10
104.98000000000002
20
72.900000000000006
10
104.98000000000002
20
74.724999999999994
10
111.25
20
74.724999999999994
10
111.25
20
75.599999999999994
10
114.05000000000001
20
75.599999999999994
10
114.05000000000001
20
74.724999999999994
10
117.28000000000002
20
74.724999999999994
0
LWPOLYLINE
5
111
100
AcDbEntity
8
0
100
AcDbPolyline
90
4
70
1
43
0.0
10
38.000000000000007
20
109.50000000000001
10
24.000000000000004
20
109.50000000000001
10
24.000000000000004
20
123.50000000000001
10
38.000000000000007
20
123.50000000000001
0
LWPOLYLINE
5
112
100
AcDbEntity
8
0
100
AcDbPolyline
90
4
70
1
43
0.0
10
66.75
20
62
10
66.75
20
76
10
80.750000000000014
20
76
10
80.750000000000014
20
62
0
LWPOLYLINE
5
113
100
AcDbEntity
8
0
100
AcDbPolyline
90
4
70
1
43
0.0
10
5
20
81
10
5
20
95
10
19.000000000000004
20
95
10
19.000000000000004
20
81
0
LWPOLYLINE
5
114
100
AcDbEntity
8
0
100
AcDbPolyline
90
4
70
1
43
0.0
10
5
20
43
10
5
20
57
10
19.000000000000004
20
57
10
19.000000000000004
20
43
0
LWPOLYLINE
5
115
100
AcDbEntity
8
0
100
AcDbPolyline
90
4
70
1
43
0.0
10
47.75
20
109.50000000000001
10
47.75
20
123.50000000000001
10
61.750000000000007
20
123.50000000000001
10
61.750000000000007
20
109.50000000000001
0
LWPOLYLINE
5
116
100
AcDbEntity
8
0
100
AcDbPolyline
90
4
70
1
43
0.0
10
19.000000000000004
20
76
10
19.000000000000004
20
62
10
5
20
62
10
5
20
76
0
LWPOLYLINE
5
117
100
AcDbEntity
8
0
100
AcDbPolyline
90
4
70
1
43
0.0
10
38.000000000000007
20
76
10
38.000000000000007
20
62
10
24.000000000000004
20
62
10
24.000000000000004
20
76
0
LWPOLYLINE
5
118
100
AcDbEntity
8
0
100
AcDbPolyline
90
4
70
1
43
0.0
10
80.750000000000014
20
95
10
80.750000000000014
20
81
10
66.75
20
81
10
66.75
20
95
0
LWPOLYLINE
5
119
100
AcDbEntity
8
0
100
AcDbPolyline
90
4
70
1
43
0.0
10
99.750000000000014
20
57
10
99.750000000000014
20
43
10
85.750000000000014
20
43
10
85.750000000000014
20
57
0
LWPOLYLINE
5
120
100
AcDbEntity
8
0
100
AcDbPolyline
90
4
70
1
43
0.0
10
38.000000000000007
20
43
10
24.000000000000004
20
43
10
24.000000000000004
20
57
10
38.000000000000007
20
57
0
LWPOLYLINE
5
121
100
AcDbEntity
8
0
100
AcDbPolyline
90
4
70
1
43
0.0
10
38.000000000000007
20
81
10
24.000000000000004
20
81
10
24.000000000000004
20
95
10
38.000000000000007
20
95
0
LWPOLYLINE
5
122
100
AcDbEntity
8
0
100
AcDbPolyline
90
4
70
1
43
0.0
10
24.000000000000004
20
38.000000000000007
10
38.000000000000007
20
38.000000000000007
10
38.000000000000007
20
24.000000000000004
10
24.000000000000004
20
24.000000000000004
0
LWPOLYLINE
5
123
100
AcDbEntity
8
0
100
AcDbPolyline
90
4
70
1
43
0.0
10
47.75
20
81
10
47.75
20
95
10
61.750000000000007
20
95
10
61.750000000000007
20
81
0
LWPOLYLINE
5
124
100
AcDbEntity
8
0
100
AcDbPolyline
90
4
70
1
43
0.0
10
47.75
20
43
10
47.75
20
57
10
61.750000000000007
20
57
10
61.750000000000007
20
43
0
LWPOLYLINE
5
125
100
AcDbEntity
8
0
100
AcDbPolyline
90
4
70
1
43
0.0
10
80.750000000000014
20
24.000000000000004
10
66.75
20
24.000000000000004
10
66.75
20
38.000000000000007
10
80.750000000000014
20
38.000000000000007
0
LWPOLYLINE
5
126
100
AcDbEntity
8
0
100
AcDbPolyline
90
4
70
1
43
0.0
10
5
20
19.000000000000004
10
19.000000000000004
20
19.000000000000004
10
19.000000000000004
20
5
10
5
20
5
0
LWPOLYLINE
5
127
100
AcDbEntity
8
0
100
AcDbPolyline
90
4
70
1
43
0.0
10
47.75
20
38.000000000000007
10
61.750000000000007
20
38.000000000000007
10
61.750000000000007
20
24.000000000000004
10
47.75
20
24.000000000000004
0
LWPOLYLINE
5
128
100
AcDbEntity
8
0
100
AcDbPolyline
90
4
70
1
43
0.0
10
104.75000000000001
20
123.50000000000001
10
118.75
20
123.50000000000001
10
118.75
20
109.50000000000001
10
104.75000000000001
20
109.50000000000001
0
LWPOLYLINE
5
129
100
AcDbEntity
8
0
100
AcDbPolyline
90
4
70
1
43
0.0
10
99.750000000000014
20
62
10
85.750000000000014
20
62
10
85.750000000000014
20
76
10
99.750000000000014
20
76
0
LWPOLYLINE
5
130
100
AcDbEntity
8
0
100
AcDbPolyline
90
4
70
1
43
0.0
10
5
20
38.000000000000007
10
19.000000000000004
20
38.000000000000007
10
19.000000000000004
20
24.000000000000004
10
5
20
24.000000000000004
0
LWPOLYLINE
5
131
100
AcDbEntity
8
0
100
AcDbPolyline
90
4
70
1
43
0.0
10
61.750000000000007
20
76
10
61.750000000000007
20
62
10
47.75
20
62
10
47.75
20
76
0
LWPOLYLINE
5
132
100
AcDbEntity
8
0
100
AcDbPolyline
90
4
70
1
43
0.0
10
99.750000000000014
20
81
10
85.750000000000014
20
81
10
85.750000000000014
20
95
10
99.750000000000014
20
95
0
LWPOLYLINE
5
133
100
AcDbEntity
8
0
100
AcDbPolyline
90
8
70
1
43
0.0
10
4.0000000000000036
20
128.50000000000003
42
0.41421356237309437
10
8.8817841970012523e-15
20
124.50000000000003
10
0
20
4.0000000000000036
42
0.41421356237309509
10
4.0000000000000009
20
3.3306690738754696e-15
10
119.75
20
0
42
0.41421356237309248
10
123.75
20
4.0000000000000009
10
123.75
20
124.50000000000001
42
0.41421356237309109
10
119.75000000000001
20
128.50000000000003
0
CIRCLE
5
134
100
AcDbEntity
8
0
100
AcDbCircle
10
12.000000000000002
20
102.25000000000001
30
0
40
1.3500000000000001
210
0
220
-0
230
1
0
CIRCLE
5
135
100
AcDbEntity
8
0
100
AcDbCircle
10
64.25
20
102.25000000000001
30
0
40
1.3499999999999979
210
0
220
-0
230
1
0
CIRCLE
5
136
100
AcDbEntity
8
0
100
AcDbCircle
10
111.75
20
102.25000000000001
30
0
40
1.3499999999999979
210
0
220
-0
230
1
0
CIRCLE
5
137
100
AcDbEntity
8
0
100
AcDbCircle
10
42.875000000000007
20
50
30
0
40
1.3499999999999979
210
0
220
-0
230
1
0
CIRCLE
5
138
100
AcDbEntity
8
0
100
AcDbCircle
10
42.875000000000007
20
12.000000000000002
30
0
40
1.3499999999999979
210
0
220
-0
230
1
0
ENDSEC
0
SECTION
2
OBJECTS
0
DICTIONARY
5
C
100
AcDbDictionary
3
ACAD_GROUP
350
D
3
ACAD_MLINESTYLE
350
17
0
DICTIONARY
5
D
100
AcDbDictionary
0
DICTIONARY
5
1A
330
C
100
AcDbDictionary
0
DICTIONARY
5
17
100
AcDbDictionary
0
ENDSEC
0
EOF
