M48
INCH
T1C0.0118
T2C0.0157
T3C0.0236
T4C0.0394
%
G90
G05
T1
X7.2913Y-4.0049
X7.4173Y-3.9114
X7.4173Y-4.0935
X7.4212Y-3.7884
X7.4228Y-3.8404
X7.4924Y-3.9301
X7.5108Y-3.8258
X7.5607Y-3.9246
X7.6201Y-3.7461
X7.6743Y-3.7992
X7.6836Y-3.8339
X7.7953Y-4.0118
X7.8671Y-4.1919
X7.9291Y-4.0453
X8.1577Y-3.5765
X8.5236Y-4.0898
X9.2717Y-4.0335
X10.0197Y-4.064
T2
X6.0398Y-3.0515
X6.0398Y-3.2887
X6.0398Y-3.3678
X6.0398Y-3.4469
X6.0398Y-3.5259
X6.0398Y-3.605
X6.0398Y-3.6841
X6.0398Y-3.7631
X6.0398Y-3.8422
X6.0398Y-3.9213
X6.0398Y-4.0003
X6.0398Y-4.0794
X6.0398Y-4.1585
X6.0398Y-4.2375
X6.0398Y-4.3957
X6.0398Y-4.4747
X6.0398Y-4.5538
X6.0398Y-4.6329
X6.0398Y-4.7119
X6.0398Y-4.791
X6.0398Y-4.8701
X6.0398Y-4.9491
X6.0398Y-5.1864
X6.0398Y-5.2654
X6.0398Y-5.3445
X6.0398Y-5.4236
X6.0398Y-5.5026
X6.0398Y-5.5817
X6.0398Y-5.6608
X6.0398Y-5.898
X6.0398Y-5.977
X6.0398Y-6.0561
X6.0398Y-6.1352
X6.0398Y-6.2142
X6.0398Y-6.2933
X6.0398Y-6.3724
X6.0398Y-6.4514
X6.0398Y-6.6886
X6.0398Y-6.7677
X6.0398Y-6.8468
X6.0398Y-6.9259
X6.0398Y-7.0049
X6.0398Y-7.084
X6.0398Y-7.1631
X6.0398Y-7.4003
X6.0398Y-7.4793
X6.0398Y-7.5584
X6.0398Y-7.6375
X6.0472Y-2.9567
X6.0472Y-7.7323
X6.0925Y-3.5827
X6.0925Y-4.687
X6.0925Y-5.435
X6.0925Y-6.1831
X6.0925Y-6.9311
X6.0925Y-7.7008
X6.0935Y-4.0423
X6.1299Y-3.0441
X6.1299Y-3.4441
X6.1299Y-3.6441
X6.1299Y-3.7441
X6.1299Y-3.8441
X6.1299Y-3.9441
X6.1299Y-4.1441
X6.1299Y-4.5441
X6.1299Y-4.7441
X6.1299Y-4.8441
X6.1299Y-4.9441
X6.1299Y-5.5441
X6.1299Y-5.6441
X6.1299Y-6.0441
X6.1299Y-6.2441
X6.1299Y-6.3441
X6.1299Y-6.4441
X6.1299Y-7.0441
X6.1299Y-7.1441
X6.1299Y-7.5441
X6.1429Y-7.7398
X6.1467Y-2.9492
X6.2185Y-3.435
X6.2185Y-4.5571
X6.2185Y-7.5492
X6.2205Y-5.3051
X6.2229Y-7.7398
X6.2299Y-3.0441
X6.2299Y-3.3441
X6.2299Y-3.7441
X6.2299Y-3.8441
X6.2299Y-3.9441
X6.2299Y-4.1441
X6.2299Y-4.8441
X6.2299Y-4.9441
X6.2299Y-5.2441
X6.2299Y-5.5441
X6.2299Y-5.6441
X6.2299Y-6.2441
X6.2299Y-6.3441
X6.2299Y-6.4441
X6.2299Y-6.7441
X6.2299Y-7.0441
X6.2299Y-7.1441
X6.2305Y-2.9492
X6.2736Y-6.0079
X6.3028Y-7.7398
X6.3142Y-2.9492
X6.3299Y-3.0441
X6.3299Y-3.1441
X6.3299Y-4.1441
X6.3299Y-4.2441
X6.3299Y-4.7441
X6.3299Y-4.8441
X6.3299Y-5.5441
X6.3299Y-6.2441
X6.3299Y-6.3441
X6.3299Y-6.9441
X6.3299Y-7.0441
X6.3299Y-7.1441
X6.3299Y-7.2441
X6.3828Y-7.7398
X6.398Y-2.9492
X6.4596Y-3.3642
X6.4627Y-7.7398
X6.4817Y-2.9492
X6.499Y-3.3642
X6.5384Y-3.3642
X6.5427Y-7.7398
X6.5591Y-3.5433
X6.5591Y-4.6654
X6.5591Y-5.4134
X6.5591Y-6.1614
X6.5591Y-6.9094
X6.5591Y-7.5689
X6.5655Y-2.9492
X6.5778Y-3.3642
X6.6171Y-3.3642
X6.6226Y-7.7398
X6.6492Y-2.9492
X6.7026Y-7.7398
X6.7299Y-3.5441
X6.7299Y-3.6441
X6.7299Y-3.8441
X6.7299Y-4.0441
X6.7299Y-4.2441
X6.7299Y-4.3441
X6.7299Y-4.4441
X6.7299Y-4.6441
X6.7299Y-4.7441
X6.7299Y-4.9441
X6.7299Y-5.0441
X6.7299Y-5.1441
X6.7299Y-5.2441
X6.7299Y-5.4441
X6.7299Y-5.6441
X6.7299Y-5.7441
X6.7299Y-5.8441
X6.7299Y-5.9441
X6.7299Y-6.1441
X6.7299Y-6.2441
X6.7299Y-6.4441
X6.7299Y-6.5441
X6.7299Y-6.6441
X6.7299Y-6.7441
X6.7299Y-6.9441
X6.7299Y-7.0441
X6.7299Y-7.1441
X6.7299Y-7.2441
X6.7299Y-7.3441
X6.7299Y-7.4441
X6.7299Y-7.6441
X6.733Y-2.9492
X6.7825Y-7.7398
X6.8167Y-2.9492
X6.8406Y-3.5827
X6.8406Y-4.687
X6.8406Y-5.435
X6.8406Y-6.1831
X6.8406Y-6.9311
X6.8425Y-7.6732
X6.8625Y-7.7398
X6.9004Y-2.9492
X6.9299Y-3.5441
X6.9299Y-3.6441
X6.9299Y-3.7441
X6.9299Y-3.8441
X6.9299Y-4.6441
X6.9299Y-4.7441
X6.9299Y-4.9441
X6.9299Y-5.2441
X6.9299Y-5.4441
X6.9299Y-5.6441
X6.9299Y-6.1441
X6.9299Y-6.2441
X6.9299Y-6.4441
X6.9299Y-6.7441
X6.9299Y-6.9441
X6.9299Y-7.0441
X6.9299Y-7.1441
X6.9299Y-7.6441
X6.9424Y-7.7398
X6.9665Y-3.435
X6.9665Y-4.5571
X6.9665Y-5.3051
X6.9665Y-6.0531
X6.9665Y-6.8012
X6.9665Y-7.5492
X6.9842Y-2.9492
X7.0224Y-7.7398
X7.0299Y-4.7441
X7.0299Y-4.9441
X7.0299Y-5.6441
X7.0299Y-6.2441
X7.0299Y-6.4441
X7.0299Y-7.0441
X7.0299Y-7.1441
X7.0472Y-3.9547
X7.0492Y-3.6122
X7.0679Y-2.9492
X7.1023Y-7.7398
X7.122Y-3.6811
X7.125Y-4.0345
X7.1517Y-2.9492
X7.1592Y-3.8486
X7.1801Y-4.0345
X7.1823Y-7.7398
X7.2067Y-3.3642
X7.2382Y-3.9557
X7.2411Y-3.6791
X7.2461Y-3.3642
X7.2618Y-3.315
X7.2622Y-7.7398
X7.2666Y-2.9469
X7.3071Y-4.6654
X7.3071Y-5.4134
X7.3071Y-6.1614
X7.3071Y-6.9094
X7.3071Y-7.5689
X7.3248Y-3.3642
X7.3422Y-7.7398
X7.3455Y-2.9114
X7.3553Y-3.1752
X7.3642Y-3.3642
X7.3927Y-6.3593
X7.3967Y-7.1073
X7.4055Y-2.7933
X7.4221Y-7.7398
X7.4291Y-3.378
X7.4291Y-3.4921
X7.4299Y-4.9441
X7.4299Y-5.0441
X7.4299Y-5.1441
X7.4299Y-5.2441
X7.4299Y-5.4441
X7.4299Y-5.6441
X7.4299Y-5.7441
X7.4299Y-5.8441
X7.4299Y-5.9441
X7.4299Y-6.1441
X7.4299Y-6.2441
X7.4299Y-6.4441
X7.4299Y-6.5441
X7.4299Y-6.6441
X7.4299Y-6.7441
X7.4299Y-6.9441
X7.4299Y-7.0441
X7.4299Y-7.2441
X7.4299Y-7.3441
X7.4299Y-7.4441
X7.4299Y-7.6441
X7.4724Y-4.0551
X7.4724Y-4.1122
X7.4764Y-3.4488
X7.4783Y-3.4094
X7.4793Y-3.629
X7.4793Y-3.2884
X7.4793Y-3.3455
X7.5021Y-7.7398
X7.5059Y-3.3799
X7.5217Y-3.5335
X7.5299Y-2.7441
X7.5299Y-4.4441
X7.5299Y-4.9441
X7.5299Y-5.0441
X7.5299Y-5.1441
X7.5299Y-5.2441
X7.5299Y-5.4441
X7.5299Y-5.6441
X7.5299Y-5.7441
X7.5299Y-6.1441
X7.5299Y-6.2441
X7.5299Y-6.4441
X7.5299Y-6.5441
X7.5299Y-6.6441
X7.5299Y-6.7441
X7.5299Y-6.9441
X7.5299Y-7.0441
X7.5299Y-7.1441
X7.5299Y-7.2441
X7.5299Y-7.5441
X7.5299Y-7.6441
X7.5315Y-3.1437
X7.5315Y-3.1852
X7.5315Y-3.2262
X7.5315Y-3.2673
X7.5315Y-3.3084
X7.5315Y-3.3495
X7.5492Y-3.7992
X7.5492Y-3.8402
X7.561Y-3.4429
X7.582Y-7.7398
X7.5839Y-3.5335
X7.5886Y-3.4134
X7.5925Y-3.7992
X7.5925Y-3.8402
X7.5925Y-3.8799
X7.5965Y-4.1486
X7.5984Y-3.6093
X7.6142Y-4.6417
X7.6164Y-3.3842
X7.6181Y-3.4488
X7.6189Y-3.1836
X7.6189Y-3.2238
X7.6189Y-3.264
X7.6189Y-3.3042
X7.6189Y-3.3444
X7.6299Y-2.7441
X7.6299Y-4.4441
X7.6299Y-4.9441
X7.6299Y-5.0441
X7.6299Y-5.1441
X7.6299Y-5.2441
X7.6299Y-5.3441
X7.6299Y-5.4441
X7.6299Y-5.6441
X7.6299Y-5.7441
X7.6299Y-6.1441
X7.6299Y-6.2441
X7.6299Y-6.4441
X7.6299Y-6.5441
X7.6299Y-6.6441
X7.6299Y-6.7441
X7.6299Y-6.8441
X7.6299Y-6.9441
X7.6299Y-7.0441
X7.6299Y-7.1441
X7.6299Y-7.2441
X7.6299Y-7.5441
X7.6299Y-7.6441
X7.6358Y-3.0561
X7.6358Y-3.7992
X7.6358Y-3.8402
X7.6358Y-3.8799
X7.662Y-7.7398
X7.6634Y-4.3445
X7.6811Y-3.876
X7.6821Y-3.9173
X7.6831Y-3.4488
X7.715Y-4.8638
X7.7299Y-3.3441
X7.7299Y-3.5441
X7.7299Y-6.2441
X7.7299Y-6.4441
X7.7299Y-6.6441
X7.7299Y-6.7441
X7.7299Y-6.8441
X7.7299Y-7.0441
X7.7299Y-7.1441
X7.7299Y-7.2441
X7.7299Y-7.3441
X7.7299Y-7.5441
X7.7299Y-7.6441
X7.7419Y-7.7398
X7.748Y-5.6102
X7.7756Y-4.685
X7.7756Y-5.4331
X7.7756Y-6.1811
X7.7756Y-6.9291
X7.7811Y-2.7923
X7.8081Y-2.874
X7.813Y-3.685
X7.8209Y-4.0748
X7.8219Y-7.7398
X7.8299Y-3.4441
X7.8299Y-4.5441
X7.8299Y-4.9441
X7.8299Y-5.2441
X7.8299Y-5.3441
X7.8299Y-5.6441
X7.8299Y-6.2441
X7.8299Y-6.4441
X7.8299Y-6.7441
X7.8299Y-6.8441
X7.8346Y-4.0059
X7.8425Y-2.9914
X7.8445Y-7.624
X7.8677Y-2.9291
X7.878Y-4.0748
X7.8868Y-4.0059
X7.9016Y-3.435
X7.9016Y-4.5571
X7.9016Y-5.3051
X7.9016Y-6.0531
X7.9016Y-6.8012
X7.9018Y-7.7398
X7.9299Y-4.4441
X7.9299Y-4.7441
X7.9299Y-4.9441
X7.9299Y-5.1441
X7.9299Y-5.2441
X7.9299Y-5.6441
X7.9299Y-5.9441
X7.9299Y-6.2441
X7.9299Y-6.4441
X7.9299Y-6.6441
X7.9299Y-6.7441
X7.9299Y-7.0441
X7.9299Y-7.1441
X7.9299Y-7.2441
X7.9299Y-7.3441
X7.9299Y-7.4441
X7.9502Y-2.9492
X7.9508Y-3.6909
X7.9508Y-3.8425
X7.9567Y-3.5374
X7.9818Y-7.7398
X8.0059Y-3.7421
X8.0295Y-3.8799
X8.0324Y-2.9492
X8.0617Y-7.7398
X8.1133Y-2.9492
X8.1407Y-3.3642
X8.1417Y-7.7398
X8.1457Y-3.6961
X8.1801Y-3.3642
X8.1942Y-2.9492
X8.2195Y-3.3642
X8.2216Y-7.7398
X8.2421Y-3.5433
X8.2421Y-4.6654
X8.2421Y-5.4134
X8.2421Y-6.1614
X8.2421Y-6.9094
X8.2589Y-3.3642
X8.275Y-2.9492
X8.2756Y-7.5492
X8.2982Y-3.3642
X8.3016Y-7.7398
X8.3559Y-2.9492
X8.3815Y-7.7398
X8.4299Y-3.5441
X8.4299Y-3.6441
X8.4299Y-4.1441
X8.4299Y-4.2441
X8.4299Y-4.3441
X8.4299Y-4.4441
X8.4299Y-4.6441
X8.4299Y-4.7441
X8.4299Y-4.9441
X8.4299Y-5.0441
X8.4299Y-5.1441
X8.4299Y-5.2441
X8.4299Y-5.4441
X8.4299Y-5.6441
X8.4299Y-5.7441
X8.4299Y-5.8441
X8.4299Y-5.9441
X8.4299Y-6.1441
X8.4299Y-6.2441
X8.4299Y-6.4441
X8.4299Y-6.5441
X8.4299Y-6.6441
X8.4299Y-6.7441
X8.4299Y-6.9441
X8.4299Y-7.0441
X8.4299Y-7.1441
X8.4299Y-7.2441
X8.4368Y-2.9492
X8.4615Y-7.7398
X8.5176Y-2.9492
X8.5236Y-3.5807
X8.5236Y-4.685
X8.5236Y-5.4331
X8.5236Y-6.1811
X8.5236Y-6.9291
X8.5299Y-7.0441
X8.5414Y-7.7398
X8.5985Y-2.9492
X8.6214Y-7.7398
X8.6299Y-3.5441
X8.6299Y-4.1441
X8.6299Y-4.6441
X8.6299Y-4.7441
X8.6299Y-4.9441
X8.6299Y-5.2441
X8.6299Y-5.4441
X8.6299Y-5.6441
X8.6299Y-6.1441
X8.6299Y-6.2441
X8.6299Y-6.4441
X8.6299Y-6.7441
X8.6299Y-6.9441
X8.6299Y-7.0441
X8.6496Y-3.435
X8.6496Y-4.5571
X8.6496Y-5.3051
X8.6496Y-6.0531
X8.6496Y-6.8012
X8.6793Y-2.9492
X8.7013Y-7.7398
X8.7299Y-3.7441
X8.7299Y-4.1441
X8.7299Y-4.2441
X8.7299Y-4.7441
X8.7299Y-4.9441
X8.7299Y-5.6441
X8.7299Y-6.2441
X8.7299Y-6.4441
X8.7299Y-7.0441
X8.7299Y-7.3441
X8.7299Y-7.6441
X8.7588Y-7.5768
X8.7602Y-2.9492
X8.7813Y-7.7398
X8.8411Y-2.9492
X8.8612Y-7.7398
X8.8986Y-3.3642
X8.9219Y-2.9492
X8.938Y-3.3642
X8.9412Y-7.7398
X8.9774Y-3.3642
X8.9902Y-3.5433
X8.9902Y-4.6654
X8.9902Y-5.4134
X8.9902Y-6.1614
X8.9902Y-6.9094
X9.0028Y-2.9492
X9.0167Y-3.3642
X9.0211Y-7.7398
X9.0561Y-3.3642
X9.0837Y-2.9492
X9.101Y-7.7398
X9.1299Y-3.5441
X9.1299Y-3.6441
X9.1299Y-3.7441
X9.1299Y-3.8441
X9.1299Y-3.9441
X9.1299Y-4.1441
X9.1299Y-4.2441
X9.1299Y-4.3441
X9.1299Y-4.4441
X9.1299Y-4.6441
X9.1299Y-4.7441
X9.1299Y-4.9441
X9.1299Y-5.0441
X9.1299Y-5.1441
X9.1299Y-5.2441
X9.1299Y-5.4441
X9.1299Y-5.6441
X9.1299Y-5.7441
X9.1299Y-5.8441
X9.1299Y-5.9441
X9.1299Y-6.1441
X9.1299Y-6.2441
X9.1299Y-6.4441
X9.1299Y-6.5441
X9.1299Y-6.6441
X9.1299Y-6.7441
X9.1299Y-6.9441
X9.1299Y-7.0441
X9.1299Y-7.1441
X9.1299Y-7.2441
X9.1299Y-7.3441
X9.1299Y-7.4441
X9.1299Y-7.6441
X9.1645Y-2.9492
X9.181Y-7.7398
X9.2299Y-3.6441
X9.2299Y-3.7441
X9.2299Y-3.8441
X9.2299Y-3.9441
X9.2299Y-4.1441
X9.2299Y-4.4441
X9.2299Y-4.7441
X9.2299Y-4.9441
X9.2299Y-5.1441
X9.2299Y-5.6441
X9.2299Y-5.9441
X9.2299Y-6.2441
X9.2299Y-6.4441
X9.2299Y-6.6441
X9.2299Y-7.0441
X9.2299Y-7.1441
X9.2299Y-7.4441
X9.2454Y-2.9492
X9.2609Y-7.7398
X9.2717Y-3.5827
X9.2717Y-4.687
X9.2717Y-5.435
X9.2717Y-6.1831
X9.2717Y-6.9311
X9.2736Y-7.6791
X9.3263Y-2.9492
X9.3299Y-3.5441
X9.3299Y-3.6441
X9.3299Y-3.7441
X9.3299Y-3.8441
X9.3299Y-3.9441
X9.3299Y-4.1441
X9.3299Y-4.6441
X9.3299Y-4.7441
X9.3299Y-4.9441
X9.3299Y-5.2441
X9.3299Y-5.3441
X9.3299Y-5.4441
X9.3299Y-5.6441
X9.3299Y-6.1441
X9.3299Y-6.2441
X9.3299Y-6.4441
X9.3299Y-6.7441
X9.3299Y-6.8441
X9.3299Y-6.9441
X9.3299Y-7.0441
X9.3299Y-7.1441
X9.3299Y-7.6441
X9.3409Y-7.7398
X9.3976Y-3.435
X9.3976Y-4.5571
X9.3976Y-5.3051
X9.3976Y-6.0531
X9.3976Y-6.8012
X9.3976Y-7.5492
X9.4071Y-2.9492
X9.4208Y-7.7398
X9.4299Y-3.9441
X9.4299Y-4.1441
X9.4299Y-4.4441
X9.4299Y-4.7441
X9.4299Y-4.9441
X9.4299Y-5.1441
X9.4299Y-5.2441
X9.4299Y-5.6441
X9.4299Y-5.9441
X9.4299Y-6.2441
X9.4299Y-6.4441
X9.4299Y-6.6441
X9.4299Y-6.7441
X9.4299Y-7.0441
X9.4299Y-7.1441
X9.4299Y-7.4441
X9.488Y-2.9492
X9.5008Y-7.7398
X9.5688Y-2.9492
X9.5807Y-7.7398
X9.6398Y-3.3642
X9.6497Y-2.9492
X9.6607Y-7.7398
X9.6791Y-3.3642
X9.7185Y-3.3642
X9.7306Y-2.9492
X9.7382Y-3.5433
X9.7382Y-4.6654
X9.7382Y-5.4134
X9.7382Y-6.1614
X9.7382Y-6.9094
X9.7382Y-7.563
X9.7406Y-7.7398
X9.7579Y-3.3642
X9.7972Y-3.3642
X9.8114Y-2.9492
X9.8206Y-7.7398
X9.8923Y-2.9492
X9.9005Y-7.7398
X9.9213Y-3.9441
X9.9299Y-3.5441
X9.9299Y-3.6441
X9.9299Y-3.7441
X9.9299Y-4.1441
X9.9299Y-4.2441
X9.9299Y-4.3441
X9.9299Y-4.4441
X9.9299Y-4.6441
X9.9299Y-4.7441
X9.9299Y-5.0441
X9.9299Y-5.1441
X9.9299Y-5.2441
X9.9299Y-5.3441
X9.9299Y-5.4441
X9.9299Y-5.5441
X9.9299Y-5.9441
X9.9299Y-6.0441
X9.9299Y-6.1441
X9.9299Y-6.2441
X9.9299Y-6.3441
X9.9299Y-6.5441
X9.9299Y-6.6441
X9.9299Y-6.7441
X9.9299Y-6.8441
X9.9299Y-6.9441
X9.9299Y-7.0441
X9.9299Y-7.2441
X9.9299Y-7.3441
X9.9299Y-7.4441
X9.9299Y-7.5441
X9.9299Y-7.6441
X9.9732Y-2.9492
X9.9805Y-7.7398
X10.0197Y-3.5669
X10.0197Y-4.687
X10.0197Y-5.8169
X10.0197Y-7.3228
X10.0299Y-7.4441
X10.0299Y-7.5441
X10.0299Y-7.6441
X10.054Y-2.9492
X10.0604Y-7.7398
X10.065Y-4.7756
X10.1299Y-3.5441
X10.1299Y-3.6441
X10.1299Y-3.6988
X10.1299Y-4.0441
X10.1299Y-4.1441
X10.1299Y-4.6441
X10.1299Y-4.7441
X10.1299Y-5.0441
X10.1299Y-5.1441
X10.1299Y-5.2441
X10.1299Y-5.3441
X10.1299Y-5.6441
X10.1299Y-5.9441
X10.1299Y-6.4075
X10.1299Y-6.5441
X10.1299Y-6.6441
X10.1299Y-6.7441
X10.1299Y-7.1441
X10.1299Y-7.3441
X10.1299Y-7.4441
X10.1299Y-7.5441
X10.1299Y-7.6441
X10.1349Y-2.9492
X10.1404Y-7.7398
X10.1457Y-3.435
X10.1457Y-4.5571
X10.2158Y-2.9492
X10.2203Y-7.7398
X10.2299Y-4.0441
X10.2299Y-4.1441
X10.2299Y-4.2441
X10.2299Y-4.7441
X10.2299Y-4.9441
X10.2299Y-5.1441
X10.2299Y-5.2441
X10.2299Y-5.3441
X10.2299Y-6.4441
X10.2299Y-6.6441
X10.2299Y-6.7441
X10.2299Y-6.8441
X10.2299Y-7.3441
X10.2299Y-7.4441
X10.2299Y-7.5441
X10.2966Y-2.9492
X10.3003Y-7.7398
X10.3775Y-2.9492
X10.3802Y-7.7398
X10.3878Y-3.3642
X10.4272Y-3.3642
X10.4584Y-2.9492
X10.4602Y-7.7398
X10.4665Y-3.3642
X10.4862Y-3.5433
X10.4862Y-4.6654
X10.4862Y-5.7874
X10.4862Y-7.2835
X10.5059Y-3.3642
X10.5392Y-2.9492
X10.5401Y-7.7398
X10.5453Y-3.3642
X10.6378Y-2.9587
X10.6378Y-7.7303
X10.6433Y-3.0515
X10.6433Y-3.1306
X10.6433Y-3.2096
X10.6433Y-3.2887
X10.6433Y-3.3678
X10.6433Y-3.4469
X10.6433Y-3.5259
X10.6433Y-3.605
X10.6433Y-3.6841
X10.6433Y-3.7631
X10.6433Y-3.8422
X10.6433Y-3.9213
X10.6433Y-4.0003
X10.6433Y-4.0794
X10.6433Y-4.1585
X10.6433Y-4.2375
X10.6433Y-4.3166
X10.6433Y-4.3957
X10.6433Y-4.4747
X10.6433Y-4.5538
X10.6433Y-4.6329
X10.6433Y-4.7119
X10.6433Y-4.791
X10.6433Y-4.8701
X10.6433Y-4.9491
X10.6433Y-5.0282
X10.6433Y-5.1073
X10.6433Y-5.1864
X10.6433Y-5.2654
X10.6433Y-5.3445
X10.6433Y-5.4236
X10.6433Y-5.5026
X10.6433Y-5.5817
X10.6433Y-5.6608
X10.6433Y-5.7398
X10.6433Y-5.8189
X10.6433Y-5.898
X10.6433Y-5.977
X10.6433Y-6.0561
X10.6433Y-6.1352
X10.6433Y-6.2142
X10.6433Y-6.2933
X10.6433Y-6.3724
X10.6433Y-6.4514
X10.6433Y-6.5305
X10.6433Y-6.6096
X10.6433Y-6.6886
X10.6433Y-6.7677
X10.6433Y-6.8468
X10.6433Y-6.9259
X10.6433Y-7.0049
X10.6433Y-7.084
X10.6433Y-7.1631
X10.6433Y-7.2421
X10.6433Y-7.3212
X10.6433Y-7.4003
X10.6433Y-7.4793
X10.6433Y-7.5584
X10.6433Y-7.6375
T4
X6.5484Y-3.9862
X6.6484Y-3.9862
X6.7484Y-3.9862
X6.8484Y-3.9862
X6.9484Y-3.9862
X8.6457Y-3.6654
X8.7457Y-3.6654
X8.8457Y-3.6654
X8.9457Y-3.6654
T3
G00X7.4234Y-2.7106
M15
G01X7.4234Y-2.7421
M16
G05
G00X7.4234Y-2.8693
M15
G01X7.4234Y-2.9126
M16
G05
G00X7.7636Y-2.7106
M15
G01X7.7636Y-2.7421
M16
G05
G00X7.7636Y-2.8693
M15
G01X7.7636Y-2.9126
M16
G05
T0
M30
