%TF.GenerationSoftware,KiCad,Pcbnew,7.0.5-0*%
%TF.CreationDate,2023-08-05T14:47:29-05:00*%
%TF.ProjectId,Nifty Numpad,4e696674-7920-44e7-956d-7061642e6b69,rev?*%
%TF.SameCoordinates,Original*%
%TF.FileFunction,Soldermask,Bot*%
%TF.FilePolarity,Negative*%
%FSLAX46Y46*%
G04 Gerber Fmt 4.6, Leading zero omitted, Abs format (unit mm)*
G04 Created by KiCad (PCBNEW 7.0.5-0) date 2023-08-05 14:47:29*
%MOMM*%
%LPD*%
G01*
G04 APERTURE LIST*
G04 Aperture macros list*
%AMRoundRect*
0 Rectangle with rounded corners*
0 $1 Rounding radius*
0 $2 $3 $4 $5 $6 $7 $8 $9 X,Y pos of 4 corners*
0 Add a 4 corners polygon primitive as box body*
4,1,4,$2,$3,$4,$5,$6,$7,$8,$9,$2,$3,0*
0 Add four circle primitives for the rounded corners*
1,1,$1+$1,$2,$3*
1,1,$1+$1,$4,$5*
1,1,$1+$1,$6,$7*
1,1,$1+$1,$8,$9*
0 Add four rect primitives between the rounded corners*
20,1,$1+$1,$2,$3,$4,$5,0*
20,1,$1+$1,$4,$5,$6,$7,0*
20,1,$1+$1,$6,$7,$8,$9,0*
20,1,$1+$1,$8,$9,$2,$3,0*%
G04 Aperture macros list end*
%ADD10C,2.000000*%
%ADD11C,0.010000*%
%ADD12RoundRect,0.205000X-0.395000X-0.205000X0.395000X-0.205000X0.395000X0.205000X-0.395000X0.205000X0*%
%ADD13C,1.750000*%
%ADD14C,3.050000*%
%ADD15C,4.000000*%
%ADD16RoundRect,0.250000X-1.025000X-1.000000X1.025000X-1.000000X1.025000X1.000000X-1.025000X1.000000X0*%
%ADD17C,6.000000*%
%ADD18R,1.700000X1.700000*%
%ADD19O,1.700000X1.700000*%
%ADD20R,2.000000X4.500000*%
%ADD21RoundRect,0.225000X0.225000X0.250000X-0.225000X0.250000X-0.225000X-0.250000X0.225000X-0.250000X0*%
%ADD22RoundRect,0.225000X0.375000X-0.225000X0.375000X0.225000X-0.375000X0.225000X-0.375000X-0.225000X0*%
%ADD23C,0.650000*%
%ADD24R,0.600000X1.450000*%
%ADD25R,0.300000X1.450000*%
%ADD26O,1.000000X1.800000*%
%ADD27O,1.000000X2.100000*%
%ADD28RoundRect,0.200000X-0.275000X0.200000X-0.275000X-0.200000X0.275000X-0.200000X0.275000X0.200000X0*%
%ADD29RoundRect,0.225000X0.250000X-0.225000X0.250000X0.225000X-0.250000X0.225000X-0.250000X-0.225000X0*%
%ADD30RoundRect,0.225000X-0.225000X-0.250000X0.225000X-0.250000X0.225000X0.250000X-0.225000X0.250000X0*%
%ADD31RoundRect,0.225000X-0.250000X0.225000X-0.250000X-0.225000X0.250000X-0.225000X0.250000X0.225000X0*%
%ADD32R,0.650000X0.400000*%
%ADD33RoundRect,0.050000X0.387500X0.050000X-0.387500X0.050000X-0.387500X-0.050000X0.387500X-0.050000X0*%
%ADD34RoundRect,0.050000X0.050000X0.387500X-0.050000X0.387500X-0.050000X-0.387500X0.050000X-0.387500X0*%
%ADD35R,3.200000X3.200000*%
%ADD36RoundRect,0.375000X0.625000X0.375000X-0.625000X0.375000X-0.625000X-0.375000X0.625000X-0.375000X0*%
%ADD37RoundRect,0.150000X-0.825000X-0.150000X0.825000X-0.150000X0.825000X0.150000X-0.825000X0.150000X0*%
%ADD38RoundRect,0.200000X0.275000X-0.200000X0.275000X0.200000X-0.275000X0.200000X-0.275000X-0.200000X0*%
%ADD39RoundRect,0.375000X-0.625000X-0.375000X0.625000X-0.375000X0.625000X0.375000X-0.625000X0.375000X0*%
%ADD40R,0.700000X1.000000*%
%ADD41R,0.700000X0.600000*%
%ADD42RoundRect,0.200000X0.200000X0.275000X-0.200000X0.275000X-0.200000X-0.275000X0.200000X-0.275000X0*%
G04 APERTURE END LIST*
D10*
X154000000Y-197300000D02*
X269750000Y-197300000D01*
X152700000Y-75500000D02*
X152700000Y-77700000D01*
X152700000Y-177100000D02*
X152700000Y-182200000D01*
X269750000Y-197300000D02*
G75*
G03*
X271050000Y-196000000I0J1300000D01*
G01*
X152700000Y-120100000D02*
X152700000Y-125200000D01*
X154000000Y-74200000D02*
G75*
G03*
X152700000Y-75500000I0J-1300000D01*
G01*
X152700000Y-158100000D02*
X152700000Y-163200000D01*
X269750000Y-74200000D02*
X201970000Y-74200000D01*
X152700000Y-139100000D02*
X152700000Y-144200000D01*
X271050000Y-75500000D02*
G75*
G03*
X269750000Y-74200000I-1300000J0D01*
G01*
X152700000Y-91600000D02*
X152700000Y-106200000D01*
X152700000Y-196000000D02*
G75*
G03*
X154000000Y-197300000I1300000J0D01*
G01*
X271050000Y-196000000D02*
X271050000Y-75500000D01*
X183780000Y-74200000D02*
X154000000Y-74200000D01*
%TO.C,G\u002A\u002A\u002A*%
D11*
X262758994Y-158831296D02*
X262867254Y-158854735D01*
X263046035Y-158898779D01*
X263271510Y-158957708D01*
X263551971Y-159040950D01*
X264018282Y-159225398D01*
X264391243Y-159440792D01*
X264662155Y-159682599D01*
X264836748Y-159929556D01*
X264943523Y-160215131D01*
X264941574Y-160487601D01*
X264833036Y-160743876D01*
X264620042Y-160980866D01*
X264304726Y-161195481D01*
X263889222Y-161384633D01*
X263375664Y-161545232D01*
X263242144Y-161577088D01*
X262936826Y-161639720D01*
X262563764Y-161707385D01*
X262151232Y-161775503D01*
X261727504Y-161839492D01*
X261320854Y-161894769D01*
X260959556Y-161936754D01*
X260910122Y-161941412D01*
X260616240Y-161958462D01*
X260256001Y-161966570D01*
X259859256Y-161966282D01*
X259455855Y-161958141D01*
X259075649Y-161942690D01*
X258748488Y-161920473D01*
X258504223Y-161892035D01*
X258416592Y-161877222D01*
X257715844Y-161713935D01*
X257093099Y-161484956D01*
X256553543Y-161193028D01*
X256102360Y-160840896D01*
X255744735Y-160431304D01*
X255721718Y-160398673D01*
X255562400Y-160167050D01*
X255473426Y-160023130D01*
X255455658Y-159965702D01*
X255509961Y-159993559D01*
X255637195Y-160105491D01*
X255838225Y-160300290D01*
X255920583Y-160380199D01*
X256473235Y-160836718D01*
X257074073Y-161197066D01*
X257742223Y-161473024D01*
X257925239Y-161532107D01*
X258160038Y-161595733D01*
X258388211Y-161637150D01*
X258649588Y-161662994D01*
X258984000Y-161679901D01*
X259093204Y-161683608D01*
X259512751Y-161685080D01*
X259860186Y-161658224D01*
X260167065Y-161597258D01*
X260464945Y-161496400D01*
X260785382Y-161349869D01*
X261107091Y-161158924D01*
X261538375Y-160801271D01*
X261932937Y-160351079D01*
X262281771Y-159819083D01*
X262575870Y-159216018D01*
X262583931Y-159196613D01*
X262659375Y-159015465D01*
X262714465Y-158884016D01*
X262737765Y-158829559D01*
X262758994Y-158831296D01*
G36*
X262758994Y-158831296D02*
G01*
X262867254Y-158854735D01*
X263046035Y-158898779D01*
X263271510Y-158957708D01*
X263551971Y-159040950D01*
X264018282Y-159225398D01*
X264391243Y-159440792D01*
X264662155Y-159682599D01*
X264836748Y-159929556D01*
X264943523Y-160215131D01*
X264941574Y-160487601D01*
X264833036Y-160743876D01*
X264620042Y-160980866D01*
X264304726Y-161195481D01*
X263889222Y-161384633D01*
X263375664Y-161545232D01*
X263242144Y-161577088D01*
X262936826Y-161639720D01*
X262563764Y-161707385D01*
X262151232Y-161775503D01*
X261727504Y-161839492D01*
X261320854Y-161894769D01*
X260959556Y-161936754D01*
X260910122Y-161941412D01*
X260616240Y-161958462D01*
X260256001Y-161966570D01*
X259859256Y-161966282D01*
X259455855Y-161958141D01*
X259075649Y-161942690D01*
X258748488Y-161920473D01*
X258504223Y-161892035D01*
X258416592Y-161877222D01*
X257715844Y-161713935D01*
X257093099Y-161484956D01*
X256553543Y-161193028D01*
X256102360Y-160840896D01*
X255744735Y-160431304D01*
X255721718Y-160398673D01*
X255562400Y-160167050D01*
X255473426Y-160023130D01*
X255455658Y-159965702D01*
X255509961Y-159993559D01*
X255637195Y-160105491D01*
X255838225Y-160300290D01*
X255920583Y-160380199D01*
X256473235Y-160836718D01*
X257074073Y-161197066D01*
X257742223Y-161473024D01*
X257925239Y-161532107D01*
X258160038Y-161595733D01*
X258388211Y-161637150D01*
X258649588Y-161662994D01*
X258984000Y-161679901D01*
X259093204Y-161683608D01*
X259512751Y-161685080D01*
X259860186Y-161658224D01*
X260167065Y-161597258D01*
X260464945Y-161496400D01*
X260785382Y-161349869D01*
X261107091Y-161158924D01*
X261538375Y-160801271D01*
X261932937Y-160351079D01*
X262281771Y-159819083D01*
X262575870Y-159216018D01*
X262583931Y-159196613D01*
X262659375Y-159015465D01*
X262714465Y-158884016D01*
X262737765Y-158829559D01*
X262758994Y-158831296D01*
G37*
X262429847Y-152257217D02*
X262671099Y-152805757D01*
X262855546Y-153446001D01*
X262903785Y-153726235D01*
X262943549Y-154119650D01*
X262968519Y-154575021D01*
X262978218Y-155066036D01*
X262972167Y-155566386D01*
X262962222Y-155782146D01*
X262949887Y-156049760D01*
X262910900Y-156489848D01*
X262908836Y-156507468D01*
X262854534Y-156897198D01*
X262782170Y-157316106D01*
X262697807Y-157735914D01*
X262607505Y-158128340D01*
X262517327Y-158465104D01*
X262433333Y-158717925D01*
X262371575Y-158875629D01*
X262193021Y-158672267D01*
X262099430Y-158574966D01*
X261792622Y-158357997D01*
X261439396Y-158241790D01*
X261043741Y-158226679D01*
X260609650Y-158312997D01*
X260141111Y-158501077D01*
X259725934Y-158746137D01*
X259286382Y-159120734D01*
X258907075Y-159588158D01*
X258644240Y-160039948D01*
X258460765Y-160536364D01*
X258376382Y-161057889D01*
X258374381Y-161085789D01*
X258355442Y-161278958D01*
X258333258Y-161415404D01*
X258312221Y-161467111D01*
X258309235Y-161467076D01*
X258186667Y-161445844D01*
X257991673Y-161392443D01*
X257755021Y-161317159D01*
X257507478Y-161230276D01*
X257279810Y-161142077D01*
X257102784Y-161062847D01*
X256547398Y-160742026D01*
X256039699Y-160352971D01*
X255628062Y-159922337D01*
X255316978Y-159454875D01*
X255110936Y-158955333D01*
X255055218Y-158686070D01*
X255021162Y-158328180D01*
X255014276Y-157937797D01*
X255035171Y-157554950D01*
X255084458Y-157219667D01*
X255153782Y-156895111D01*
X255520164Y-156895111D01*
X255560138Y-156894577D01*
X255965613Y-156829115D01*
X256353677Y-156660502D01*
X256712060Y-156397546D01*
X257028493Y-156049057D01*
X257271756Y-155654575D01*
X260451354Y-155654575D01*
X260478870Y-156005116D01*
X260575357Y-156334388D01*
X260735453Y-156616233D01*
X260953792Y-156824497D01*
X261177243Y-156927412D01*
X261412778Y-156940719D01*
X261628701Y-156859534D01*
X261814558Y-156693471D01*
X261959897Y-156452143D01*
X262054264Y-156145164D01*
X262087205Y-155782146D01*
X262087117Y-155768859D01*
X262047921Y-155412851D01*
X261946698Y-155111375D01*
X261796421Y-154870723D01*
X261610066Y-154697189D01*
X261400607Y-154597065D01*
X261181019Y-154576647D01*
X260964277Y-154642225D01*
X260763355Y-154800094D01*
X260591228Y-155056547D01*
X260498174Y-155308920D01*
X260451354Y-155654575D01*
X257271756Y-155654575D01*
X257290706Y-155623845D01*
X257356056Y-155490373D01*
X257427661Y-155318958D01*
X257467432Y-155161167D01*
X257484556Y-154974854D01*
X257488223Y-154717878D01*
X257487394Y-154567959D01*
X257478829Y-154361446D01*
X257455348Y-154216224D01*
X257410115Y-154098924D01*
X257336296Y-153976179D01*
X257289730Y-153912458D01*
X257148761Y-153764750D01*
X257011740Y-153670189D01*
X256996877Y-153663504D01*
X256885083Y-153604853D01*
X256839454Y-153565221D01*
X256841073Y-153560983D01*
X256888984Y-153493485D01*
X256993421Y-153360203D01*
X257140918Y-153178054D01*
X257318014Y-152963953D01*
X257351511Y-152924045D01*
X257758501Y-152480461D01*
X258873237Y-152480461D01*
X258888450Y-152650355D01*
X258938845Y-152763378D01*
X259031388Y-152820307D01*
X259206089Y-152834121D01*
X259400225Y-152771727D01*
X259582311Y-152639200D01*
X259652346Y-152560023D01*
X259755718Y-152364402D01*
X259767537Y-152186039D01*
X259700449Y-152043339D01*
X259567101Y-151954705D01*
X259380137Y-151938541D01*
X259152204Y-152013251D01*
X259019981Y-152104249D01*
X258929229Y-152207096D01*
X258894084Y-152304375D01*
X258873237Y-152480461D01*
X257758501Y-152480461D01*
X257874212Y-152354346D01*
X258398151Y-151880662D01*
X258919108Y-151504890D01*
X259432863Y-151228926D01*
X259935198Y-151054663D01*
X260421892Y-150983999D01*
X260888727Y-151018828D01*
X261331482Y-151161046D01*
X261380120Y-151184101D01*
X261782872Y-151444162D01*
X262133276Y-151802610D01*
X262383413Y-152186039D01*
X262429847Y-152257217D01*
G36*
X262429847Y-152257217D02*
G01*
X262671099Y-152805757D01*
X262855546Y-153446001D01*
X262903785Y-153726235D01*
X262943549Y-154119650D01*
X262968519Y-154575021D01*
X262978218Y-155066036D01*
X262972167Y-155566386D01*
X262962222Y-155782146D01*
X262949887Y-156049760D01*
X262910900Y-156489848D01*
X262908836Y-156507468D01*
X262854534Y-156897198D01*
X262782170Y-157316106D01*
X262697807Y-157735914D01*
X262607505Y-158128340D01*
X262517327Y-158465104D01*
X262433333Y-158717925D01*
X262371575Y-158875629D01*
X262193021Y-158672267D01*
X262099430Y-158574966D01*
X261792622Y-158357997D01*
X261439396Y-158241790D01*
X261043741Y-158226679D01*
X260609650Y-158312997D01*
X260141111Y-158501077D01*
X259725934Y-158746137D01*
X259286382Y-159120734D01*
X258907075Y-159588158D01*
X258644240Y-160039948D01*
X258460765Y-160536364D01*
X258376382Y-161057889D01*
X258374381Y-161085789D01*
X258355442Y-161278958D01*
X258333258Y-161415404D01*
X258312221Y-161467111D01*
X258309235Y-161467076D01*
X258186667Y-161445844D01*
X257991673Y-161392443D01*
X257755021Y-161317159D01*
X257507478Y-161230276D01*
X257279810Y-161142077D01*
X257102784Y-161062847D01*
X256547398Y-160742026D01*
X256039699Y-160352971D01*
X255628062Y-159922337D01*
X255316978Y-159454875D01*
X255110936Y-158955333D01*
X255055218Y-158686070D01*
X255021162Y-158328180D01*
X255014276Y-157937797D01*
X255035171Y-157554950D01*
X255084458Y-157219667D01*
X255153782Y-156895111D01*
X255520164Y-156895111D01*
X255560138Y-156894577D01*
X255965613Y-156829115D01*
X256353677Y-156660502D01*
X256712060Y-156397546D01*
X257028493Y-156049057D01*
X257271756Y-155654575D01*
X260451354Y-155654575D01*
X260478870Y-156005116D01*
X260575357Y-156334388D01*
X260735453Y-156616233D01*
X260953792Y-156824497D01*
X261177243Y-156927412D01*
X261412778Y-156940719D01*
X261628701Y-156859534D01*
X261814558Y-156693471D01*
X261959897Y-156452143D01*
X262054264Y-156145164D01*
X262087205Y-155782146D01*
X262087117Y-155768859D01*
X262047921Y-155412851D01*
X261946698Y-155111375D01*
X261796421Y-154870723D01*
X261610066Y-154697189D01*
X261400607Y-154597065D01*
X261181019Y-154576647D01*
X260964277Y-154642225D01*
X260763355Y-154800094D01*
X260591228Y-155056547D01*
X260498174Y-155308920D01*
X260451354Y-155654575D01*
X257271756Y-155654575D01*
X257290706Y-155623845D01*
X257356056Y-155490373D01*
X257427661Y-155318958D01*
X257467432Y-155161167D01*
X257484556Y-154974854D01*
X257488223Y-154717878D01*
X257487394Y-154567959D01*
X257478829Y-154361446D01*
X257455348Y-154216224D01*
X257410115Y-154098924D01*
X257336296Y-153976179D01*
X257289730Y-153912458D01*
X257148761Y-153764750D01*
X257011740Y-153670189D01*
X256996877Y-153663504D01*
X256885083Y-153604853D01*
X256839454Y-153565221D01*
X256841073Y-153560983D01*
X256888984Y-153493485D01*
X256993421Y-153360203D01*
X257140918Y-153178054D01*
X257318014Y-152963953D01*
X257351511Y-152924045D01*
X257758501Y-152480461D01*
X258873237Y-152480461D01*
X258888450Y-152650355D01*
X258938845Y-152763378D01*
X259031388Y-152820307D01*
X259206089Y-152834121D01*
X259400225Y-152771727D01*
X259582311Y-152639200D01*
X259652346Y-152560023D01*
X259755718Y-152364402D01*
X259767537Y-152186039D01*
X259700449Y-152043339D01*
X259567101Y-151954705D01*
X259380137Y-151938541D01*
X259152204Y-152013251D01*
X259019981Y-152104249D01*
X258929229Y-152207096D01*
X258894084Y-152304375D01*
X258873237Y-152480461D01*
X257758501Y-152480461D01*
X257874212Y-152354346D01*
X258398151Y-151880662D01*
X258919108Y-151504890D01*
X259432863Y-151228926D01*
X259935198Y-151054663D01*
X260421892Y-150983999D01*
X260888727Y-151018828D01*
X261331482Y-151161046D01*
X261380120Y-151184101D01*
X261782872Y-151444162D01*
X262133276Y-151802610D01*
X262383413Y-152186039D01*
X262429847Y-152257217D01*
G37*
%TD*%
D12*
%TO.C,D229*%
X264400000Y-183750000D03*
X264400000Y-182250000D03*
X259100000Y-182250000D03*
X259100000Y-183750000D03*
%TD*%
%TO.C,D217*%
X245400000Y-136250000D03*
X245400000Y-134750000D03*
X240100000Y-134750000D03*
X240100000Y-136250000D03*
%TD*%
%TO.C,D220*%
X183650000Y-155250000D03*
X183650000Y-153750000D03*
X178350000Y-153750000D03*
X178350000Y-155250000D03*
%TD*%
%TO.C,D205*%
X245400000Y-88750000D03*
X245400000Y-87250000D03*
X240100000Y-87250000D03*
X240100000Y-88750000D03*
%TD*%
%TO.C,D215*%
X207400000Y-136250000D03*
X207400000Y-134750000D03*
X202100000Y-134750000D03*
X202100000Y-136250000D03*
%TD*%
%TO.C,D202*%
X183650000Y-88750000D03*
X183650000Y-87250000D03*
X178350000Y-87250000D03*
X178350000Y-88750000D03*
%TD*%
%TO.C,D201*%
X164650000Y-88750000D03*
X164650000Y-87250000D03*
X159350000Y-87250000D03*
X159350000Y-88750000D03*
%TD*%
%TO.C,D212*%
X264400000Y-117250000D03*
X264400000Y-115750000D03*
X259100000Y-115750000D03*
X259100000Y-117250000D03*
%TD*%
%TO.C,D226*%
X207400000Y-174250000D03*
X207400000Y-172750000D03*
X202100000Y-172750000D03*
X202100000Y-174250000D03*
%TD*%
%TO.C,D219*%
X164650000Y-155250000D03*
X164650000Y-153750000D03*
X159350000Y-153750000D03*
X159350000Y-155250000D03*
%TD*%
%TO.C,D204*%
X226400000Y-88750000D03*
X226400000Y-87250000D03*
X221100000Y-87250000D03*
X221100000Y-88750000D03*
%TD*%
%TO.C,D211*%
X245400000Y-117250000D03*
X245400000Y-115750000D03*
X240100000Y-115750000D03*
X240100000Y-117250000D03*
%TD*%
%TO.C,D206*%
X264400000Y-88750000D03*
X264400000Y-87250000D03*
X259100000Y-87250000D03*
X259100000Y-88750000D03*
%TD*%
%TO.C,D224*%
X164650000Y-174250000D03*
X164650000Y-172750000D03*
X159350000Y-172750000D03*
X159350000Y-174250000D03*
%TD*%
%TO.C,D232*%
X216900000Y-193250000D03*
X216900000Y-191750000D03*
X211600000Y-191750000D03*
X211600000Y-193250000D03*
%TD*%
%TO.C,D213*%
X164650000Y-136250000D03*
X164650000Y-134750000D03*
X159350000Y-134750000D03*
X159350000Y-136250000D03*
%TD*%
%TO.C,D233*%
X245400000Y-193250000D03*
X245400000Y-191750000D03*
X240100000Y-191750000D03*
X240100000Y-193250000D03*
%TD*%
%TO.C,D207*%
X164650000Y-117250000D03*
X164650000Y-115750000D03*
X159350000Y-115750000D03*
X159350000Y-117250000D03*
%TD*%
%TO.C,D231*%
X183650000Y-193250000D03*
X183650000Y-191750000D03*
X178350000Y-191750000D03*
X178350000Y-193250000D03*
%TD*%
%TO.C,D218*%
X264400000Y-145750000D03*
X264400000Y-144250000D03*
X259100000Y-144250000D03*
X259100000Y-145750000D03*
%TD*%
%TO.C,D222*%
X226400000Y-155250000D03*
X226400000Y-153750000D03*
X221100000Y-153750000D03*
X221100000Y-155250000D03*
%TD*%
%TO.C,D230*%
X164650000Y-193250000D03*
X164650000Y-191750000D03*
X159350000Y-191750000D03*
X159350000Y-193250000D03*
%TD*%
%TO.C,D221*%
X207400000Y-155250000D03*
X207400000Y-153750000D03*
X202100000Y-153750000D03*
X202100000Y-155250000D03*
%TD*%
%TO.C,D227*%
X226400000Y-174250000D03*
X226400000Y-172750000D03*
X221100000Y-172750000D03*
X221100000Y-174250000D03*
%TD*%
%TO.C,D209*%
X207400000Y-117250000D03*
X207400000Y-115750000D03*
X202100000Y-115750000D03*
X202100000Y-117250000D03*
%TD*%
%TO.C,D210*%
X226400000Y-117250000D03*
X226400000Y-115750000D03*
X221100000Y-115750000D03*
X221100000Y-117250000D03*
%TD*%
%TO.C,D228*%
X245400000Y-174250000D03*
X245400000Y-172750000D03*
X240100000Y-172750000D03*
X240100000Y-174250000D03*
%TD*%
%TO.C,D223*%
X245400000Y-155250000D03*
X245400000Y-153750000D03*
X240100000Y-153750000D03*
X240100000Y-155250000D03*
%TD*%
%TO.C,D216*%
X226400000Y-136250000D03*
X226400000Y-134750000D03*
X221100000Y-134750000D03*
X221100000Y-136250000D03*
%TD*%
%TO.C,D203*%
X207400000Y-88750000D03*
X207400000Y-87250000D03*
X202100000Y-87250000D03*
X202100000Y-88750000D03*
%TD*%
%TO.C,D214*%
X183650000Y-136250000D03*
X183650000Y-134750000D03*
X178350000Y-134750000D03*
X178350000Y-136250000D03*
%TD*%
%TO.C,D225*%
X183650000Y-174250000D03*
X183650000Y-172750000D03*
X178350000Y-172750000D03*
X178350000Y-174250000D03*
%TD*%
%TO.C,D208*%
X183650000Y-117250000D03*
X183650000Y-115750000D03*
X178350000Y-115750000D03*
X178350000Y-117250000D03*
%TD*%
D13*
%TO.C,SW314*%
X175920000Y-131000000D03*
D14*
X177190000Y-128460000D03*
D15*
X181000000Y-131000000D03*
D14*
X183540000Y-125920000D03*
D13*
X186080000Y-131000000D03*
D16*
X173915000Y-128460000D03*
X186842000Y-125920000D03*
%TD*%
D17*
%TO.C,H105*%
X192875000Y-188000000D03*
%TD*%
D13*
%TO.C,SW313*%
X156920000Y-131000000D03*
D14*
X158190000Y-128460000D03*
D15*
X162000000Y-131000000D03*
D14*
X164540000Y-125920000D03*
D13*
X167080000Y-131000000D03*
D16*
X154915000Y-128460000D03*
X167842000Y-125920000D03*
%TD*%
D13*
%TO.C,SW318*%
X256670000Y-140500000D03*
D14*
X257940000Y-137960000D03*
D15*
X261750000Y-140500000D03*
D14*
X264290000Y-135420000D03*
D13*
X266830000Y-140500000D03*
D16*
X254665000Y-137960000D03*
X267592000Y-135420000D03*
%TD*%
D13*
%TO.C,SW310*%
X218670000Y-112000000D03*
D14*
X219940000Y-109460000D03*
D15*
X223750000Y-112000000D03*
D14*
X226290000Y-106920000D03*
D13*
X228830000Y-112000000D03*
D16*
X216665000Y-109460000D03*
X229592000Y-106920000D03*
%TD*%
D13*
%TO.C,SW308*%
X175920000Y-112000000D03*
D14*
X177190000Y-109460000D03*
D15*
X181000000Y-112000000D03*
D14*
X183540000Y-106920000D03*
D13*
X186080000Y-112000000D03*
D16*
X173915000Y-109460000D03*
X186842000Y-106920000D03*
%TD*%
D13*
%TO.C,SW304*%
X218670000Y-83500000D03*
D14*
X219940000Y-80960000D03*
D15*
X223750000Y-83500000D03*
D14*
X226290000Y-78420000D03*
D13*
X228830000Y-83500000D03*
D16*
X216665000Y-80960000D03*
X229592000Y-78420000D03*
%TD*%
D13*
%TO.C,SW307*%
X156920000Y-112000000D03*
D14*
X158190000Y-109460000D03*
D15*
X162000000Y-112000000D03*
D14*
X164540000Y-106920000D03*
D13*
X167080000Y-112000000D03*
D16*
X154915000Y-109460000D03*
X167842000Y-106920000D03*
%TD*%
D13*
%TO.C,SW305*%
X237670000Y-83500000D03*
D14*
X238940000Y-80960000D03*
D15*
X242750000Y-83500000D03*
D14*
X245290000Y-78420000D03*
D13*
X247830000Y-83500000D03*
D16*
X235665000Y-80960000D03*
X248592000Y-78420000D03*
%TD*%
D13*
%TO.C,SW333*%
X237670000Y-188000000D03*
D14*
X238940000Y-185460000D03*
D15*
X242750000Y-188000000D03*
D14*
X245290000Y-182920000D03*
D13*
X247830000Y-188000000D03*
D16*
X235665000Y-185460000D03*
X248592000Y-182920000D03*
%TD*%
D13*
%TO.C,SW332*%
X209170000Y-188000000D03*
D14*
X210440000Y-185460000D03*
D15*
X214250000Y-188000000D03*
D14*
X216790000Y-182920000D03*
D13*
X219330000Y-188000000D03*
D16*
X207165000Y-185460000D03*
X220092000Y-182920000D03*
%TD*%
D13*
%TO.C,SW330*%
X156920000Y-188000000D03*
D14*
X158190000Y-185460000D03*
D15*
X162000000Y-188000000D03*
D14*
X164540000Y-182920000D03*
D13*
X167080000Y-188000000D03*
D16*
X154915000Y-185460000D03*
X167842000Y-182920000D03*
%TD*%
D13*
%TO.C,SW325*%
X175920000Y-169000000D03*
D14*
X177190000Y-166460000D03*
D15*
X181000000Y-169000000D03*
D14*
X183540000Y-163920000D03*
D13*
X186080000Y-169000000D03*
D16*
X173915000Y-166460000D03*
X186842000Y-163920000D03*
%TD*%
D18*
%TO.C,J101*%
X176490000Y-101250000D03*
D19*
X173950000Y-101250000D03*
X171410000Y-101250000D03*
X168870000Y-101250000D03*
X166330000Y-101250000D03*
%TD*%
D13*
%TO.C,SW312*%
X256670000Y-112000000D03*
D14*
X257940000Y-109460000D03*
D15*
X261750000Y-112000000D03*
D14*
X264290000Y-106920000D03*
D13*
X266830000Y-112000000D03*
D16*
X254665000Y-109460000D03*
X267592000Y-106920000D03*
%TD*%
D17*
%TO.C,H102*%
X214250000Y-97750000D03*
%TD*%
D13*
%TO.C,SW320*%
X175920000Y-150000000D03*
D14*
X177190000Y-147460000D03*
D15*
X181000000Y-150000000D03*
D14*
X183540000Y-144920000D03*
D13*
X186080000Y-150000000D03*
D16*
X173915000Y-147460000D03*
X186842000Y-144920000D03*
%TD*%
D13*
%TO.C,SW323*%
X237670000Y-150000000D03*
D14*
X238940000Y-147460000D03*
D15*
X242750000Y-150000000D03*
D14*
X245290000Y-144920000D03*
D13*
X247830000Y-150000000D03*
D16*
X235665000Y-147460000D03*
X248592000Y-144920000D03*
%TD*%
D13*
%TO.C,SW315*%
X199670000Y-131000000D03*
D14*
X200940000Y-128460000D03*
D15*
X204750000Y-131000000D03*
D14*
X207290000Y-125920000D03*
D13*
X209830000Y-131000000D03*
D16*
X197665000Y-128460000D03*
X210592000Y-125920000D03*
%TD*%
D13*
%TO.C,SW303*%
X199670000Y-83500000D03*
D14*
X200940000Y-80960000D03*
D15*
X204750000Y-83500000D03*
D14*
X207290000Y-78420000D03*
D13*
X209830000Y-83500000D03*
D16*
X197665000Y-80960000D03*
X210592000Y-78420000D03*
%TD*%
D17*
%TO.C,H101*%
X162000000Y-97750000D03*
%TD*%
%TO.C,H103*%
X261750000Y-97750000D03*
%TD*%
D13*
%TO.C,SW324*%
X156920000Y-169000000D03*
D14*
X158190000Y-166460000D03*
D15*
X162000000Y-169000000D03*
D14*
X164540000Y-163920000D03*
D13*
X167080000Y-169000000D03*
D16*
X154915000Y-166460000D03*
X167842000Y-163920000D03*
%TD*%
D18*
%TO.C,J103*%
X219600000Y-93100000D03*
D19*
X222140000Y-93100000D03*
X224680000Y-93100000D03*
X227220000Y-93100000D03*
%TD*%
D13*
%TO.C,SW302*%
X175920000Y-83500000D03*
D14*
X177190000Y-80960000D03*
D15*
X181000000Y-83500000D03*
D14*
X183540000Y-78420000D03*
D13*
X186080000Y-83500000D03*
D16*
X173915000Y-80960000D03*
X186842000Y-78420000D03*
%TD*%
D13*
%TO.C,SW321*%
X199670000Y-150000000D03*
D14*
X200940000Y-147460000D03*
D15*
X204750000Y-150000000D03*
D14*
X207290000Y-144920000D03*
D13*
X209830000Y-150000000D03*
D16*
X197665000Y-147460000D03*
X210592000Y-144920000D03*
%TD*%
D13*
%TO.C,SW309*%
X199670000Y-112000000D03*
D14*
X200940000Y-109460000D03*
D15*
X204750000Y-112000000D03*
D14*
X207290000Y-106920000D03*
D13*
X209830000Y-112000000D03*
D16*
X197665000Y-109460000D03*
X210592000Y-106920000D03*
%TD*%
D13*
%TO.C,SW322*%
X218670000Y-150000000D03*
D14*
X219940000Y-147460000D03*
D15*
X223750000Y-150000000D03*
D14*
X226290000Y-144920000D03*
D13*
X228830000Y-150000000D03*
D16*
X216665000Y-147460000D03*
X229592000Y-144920000D03*
%TD*%
D17*
%TO.C,H104*%
X192875000Y-150000000D03*
%TD*%
D13*
%TO.C,SW331*%
X175920000Y-188000000D03*
D14*
X177190000Y-185460000D03*
D15*
X181000000Y-188000000D03*
D14*
X183540000Y-182920000D03*
D13*
X186080000Y-188000000D03*
D16*
X173915000Y-185460000D03*
X186842000Y-182920000D03*
%TD*%
D13*
%TO.C,SW316*%
X218670000Y-131000000D03*
D14*
X219940000Y-128460000D03*
D15*
X223750000Y-131000000D03*
D14*
X226290000Y-125920000D03*
D13*
X228830000Y-131000000D03*
D16*
X216665000Y-128460000D03*
X229592000Y-125920000D03*
%TD*%
D13*
%TO.C,SW328*%
X237670000Y-169000000D03*
D14*
X238940000Y-166460000D03*
D15*
X242750000Y-169000000D03*
D14*
X245290000Y-163920000D03*
D13*
X247830000Y-169000000D03*
D16*
X235665000Y-166460000D03*
X248592000Y-163920000D03*
%TD*%
D13*
%TO.C,SW306*%
X256670000Y-83500000D03*
D14*
X257940000Y-80960000D03*
D15*
X261750000Y-83500000D03*
D14*
X264290000Y-78420000D03*
D13*
X266830000Y-83500000D03*
D16*
X254665000Y-80960000D03*
X267592000Y-78420000D03*
%TD*%
D13*
%TO.C,SW317*%
X237670000Y-131000000D03*
D14*
X238940000Y-128460000D03*
D15*
X242750000Y-131000000D03*
D14*
X245290000Y-125920000D03*
D13*
X247830000Y-131000000D03*
D16*
X235665000Y-128460000D03*
X248592000Y-125920000D03*
%TD*%
D13*
%TO.C,SW319*%
X156920000Y-150000000D03*
D14*
X158190000Y-147460000D03*
D15*
X162000000Y-150000000D03*
D14*
X164540000Y-144920000D03*
D13*
X167080000Y-150000000D03*
D16*
X154915000Y-147460000D03*
X167842000Y-144920000D03*
%TD*%
D13*
%TO.C,SW329*%
X256670000Y-178500000D03*
D14*
X257940000Y-175960000D03*
D15*
X261750000Y-178500000D03*
D14*
X264290000Y-173420000D03*
D13*
X266830000Y-178500000D03*
D16*
X254665000Y-175960000D03*
X267592000Y-173420000D03*
%TD*%
D13*
%TO.C,SW301*%
X156920000Y-83500000D03*
D14*
X158190000Y-80960000D03*
D15*
X162000000Y-83500000D03*
D14*
X164540000Y-78420000D03*
D13*
X167080000Y-83500000D03*
D16*
X154915000Y-80960000D03*
X167842000Y-78420000D03*
%TD*%
D13*
%TO.C,SW311*%
X237670000Y-112000000D03*
D14*
X238940000Y-109460000D03*
D15*
X242750000Y-112000000D03*
D14*
X245290000Y-106920000D03*
D13*
X247830000Y-112000000D03*
D16*
X235665000Y-109460000D03*
X248592000Y-106920000D03*
%TD*%
D13*
%TO.C,SW326*%
X199670000Y-169000000D03*
D14*
X200940000Y-166460000D03*
D15*
X204750000Y-169000000D03*
D14*
X207290000Y-163920000D03*
D13*
X209830000Y-169000000D03*
D16*
X197665000Y-166460000D03*
X210592000Y-163920000D03*
%TD*%
D13*
%TO.C,SW327*%
X218670000Y-169000000D03*
D14*
X219940000Y-166460000D03*
D15*
X223750000Y-169000000D03*
D14*
X226290000Y-163920000D03*
D13*
X228830000Y-169000000D03*
D16*
X216665000Y-166460000D03*
X229592000Y-163920000D03*
%TD*%
D20*
%TO.C,Y101*%
X191100000Y-116350000D03*
X191100000Y-107850000D03*
%TD*%
D21*
%TO.C,C108*%
X187175000Y-93700000D03*
X185625000Y-93700000D03*
%TD*%
%TO.C,C106*%
X187175000Y-97000000D03*
X185625000Y-97000000D03*
%TD*%
D22*
%TO.C,D319*%
X154800000Y-155650000D03*
X154800000Y-152350000D03*
%TD*%
D23*
%TO.C,J102*%
X189985000Y-72930000D03*
X195765000Y-72930000D03*
D24*
X189625000Y-74345000D03*
X190425000Y-74345000D03*
D25*
X191625000Y-74345000D03*
X192625000Y-74345000D03*
X193125000Y-74345000D03*
X194125000Y-74345000D03*
D24*
X195325000Y-74345000D03*
X196125000Y-74345000D03*
X196125000Y-74345000D03*
X195325000Y-74345000D03*
D25*
X194625000Y-74345000D03*
X193625000Y-74345000D03*
X192125000Y-74345000D03*
X191125000Y-74345000D03*
D24*
X190425000Y-74345000D03*
X189625000Y-74345000D03*
D26*
X188555000Y-69250000D03*
D27*
X188555000Y-73430000D03*
D26*
X197195000Y-69250000D03*
D27*
X197195000Y-73430000D03*
%TD*%
D28*
%TO.C,R106*%
X190200000Y-88925000D03*
X190200000Y-90575000D03*
%TD*%
D29*
%TO.C,C115*%
X188650000Y-92125000D03*
X188650000Y-90575000D03*
%TD*%
D30*
%TO.C,C233*%
X247350000Y-193250000D03*
X248900000Y-193250000D03*
%TD*%
%TO.C,C208*%
X185600000Y-117250000D03*
X187150000Y-117250000D03*
%TD*%
%TO.C,C229*%
X266350000Y-183750000D03*
X267900000Y-183750000D03*
%TD*%
%TO.C,C222*%
X228350000Y-155250000D03*
X229900000Y-155250000D03*
%TD*%
D22*
%TO.C,D321*%
X197550000Y-155650000D03*
X197550000Y-152350000D03*
%TD*%
D30*
%TO.C,C224*%
X166600000Y-174250000D03*
X168150000Y-174250000D03*
%TD*%
D29*
%TO.C,C107*%
X193500000Y-90525000D03*
X193500000Y-88975000D03*
%TD*%
D30*
%TO.C,C209*%
X209350000Y-117250000D03*
X210900000Y-117250000D03*
%TD*%
D22*
%TO.C,D302*%
X173800000Y-89150000D03*
X173800000Y-85850000D03*
%TD*%
D28*
%TO.C,R101*%
X195000000Y-76550000D03*
X195000000Y-78200000D03*
%TD*%
D31*
%TO.C,C111*%
X199650000Y-99325000D03*
X199650000Y-100875000D03*
%TD*%
D22*
%TO.C,D323*%
X235550000Y-155650000D03*
X235550000Y-152350000D03*
%TD*%
%TO.C,D316*%
X216550000Y-136650000D03*
X216550000Y-133350000D03*
%TD*%
%TO.C,D326*%
X197550000Y-174650000D03*
X197550000Y-171350000D03*
%TD*%
%TO.C,D332*%
X207050000Y-193650000D03*
X207050000Y-190350000D03*
%TD*%
D30*
%TO.C,C113*%
X182425000Y-101600000D03*
X183975000Y-101600000D03*
%TD*%
D32*
%TO.C,U101*%
X182050000Y-92400000D03*
X182050000Y-91750000D03*
X182050000Y-91100000D03*
X183950000Y-91100000D03*
X183950000Y-92400000D03*
%TD*%
%TO.C,U103*%
X180550000Y-99950000D03*
X180550000Y-99300000D03*
X180550000Y-98650000D03*
X182450000Y-98650000D03*
X182450000Y-99300000D03*
X182450000Y-99950000D03*
%TD*%
D22*
%TO.C,D308*%
X173800000Y-117650000D03*
X173800000Y-114350000D03*
%TD*%
%TO.C,D314*%
X173800000Y-136650000D03*
X173800000Y-133350000D03*
%TD*%
%TO.C,D317*%
X235550000Y-136650000D03*
X235550000Y-133350000D03*
%TD*%
D30*
%TO.C,C228*%
X247350000Y-174250000D03*
X248900000Y-174250000D03*
%TD*%
D29*
%TO.C,C103*%
X185700000Y-92125000D03*
X185700000Y-90575000D03*
%TD*%
D21*
%TO.C,C116*%
X187175000Y-95350000D03*
X185625000Y-95350000D03*
%TD*%
D30*
%TO.C,C225*%
X185600000Y-174250000D03*
X187150000Y-174250000D03*
%TD*%
D31*
%TO.C,C110*%
X192500000Y-102925000D03*
X192500000Y-104475000D03*
%TD*%
D30*
%TO.C,C212*%
X266350000Y-117250000D03*
X267900000Y-117250000D03*
%TD*%
%TO.C,C101*%
X196700000Y-76625000D03*
X198250000Y-76625000D03*
%TD*%
%TO.C,C203*%
X209350000Y-88750000D03*
X210900000Y-88750000D03*
%TD*%
D29*
%TO.C,C105*%
X195150000Y-90525000D03*
X195150000Y-88975000D03*
%TD*%
D22*
%TO.C,D305*%
X235550000Y-89150000D03*
X235550000Y-85850000D03*
%TD*%
D33*
%TO.C,U104*%
X196287500Y-95000000D03*
X196287500Y-95400000D03*
X196287500Y-95800000D03*
X196287500Y-96200000D03*
X196287500Y-96600000D03*
X196287500Y-97000000D03*
X196287500Y-97400000D03*
X196287500Y-97800000D03*
X196287500Y-98200000D03*
X196287500Y-98600000D03*
X196287500Y-99000000D03*
X196287500Y-99400000D03*
X196287500Y-99800000D03*
X196287500Y-100200000D03*
D34*
X195450000Y-101037500D03*
X195050000Y-101037500D03*
X194650000Y-101037500D03*
X194250000Y-101037500D03*
X193850000Y-101037500D03*
X193450000Y-101037500D03*
X193050000Y-101037500D03*
X192650000Y-101037500D03*
X192250000Y-101037500D03*
X191850000Y-101037500D03*
X191450000Y-101037500D03*
X191050000Y-101037500D03*
X190650000Y-101037500D03*
X190250000Y-101037500D03*
D33*
X189412500Y-100200000D03*
X189412500Y-99800000D03*
X189412500Y-99400000D03*
X189412500Y-99000000D03*
X189412500Y-98600000D03*
X189412500Y-98200000D03*
X189412500Y-97800000D03*
X189412500Y-97400000D03*
X189412500Y-97000000D03*
X189412500Y-96600000D03*
X189412500Y-96200000D03*
X189412500Y-95800000D03*
X189412500Y-95400000D03*
X189412500Y-95000000D03*
D34*
X190250000Y-94162500D03*
X190650000Y-94162500D03*
X191050000Y-94162500D03*
X191450000Y-94162500D03*
X191850000Y-94162500D03*
X192250000Y-94162500D03*
X192650000Y-94162500D03*
X193050000Y-94162500D03*
X193450000Y-94162500D03*
X193850000Y-94162500D03*
X194250000Y-94162500D03*
X194650000Y-94162500D03*
X195050000Y-94162500D03*
X195450000Y-94162500D03*
D35*
X192850000Y-97600000D03*
%TD*%
D30*
%TO.C,C205*%
X247350000Y-88750000D03*
X248900000Y-88750000D03*
%TD*%
D22*
%TO.C,D331*%
X173800000Y-193650000D03*
X173800000Y-190350000D03*
%TD*%
D21*
%TO.C,C117*%
X206425000Y-99350000D03*
X204875000Y-99350000D03*
%TD*%
D31*
%TO.C,C112*%
X198000000Y-99325000D03*
X198000000Y-100875000D03*
%TD*%
D22*
%TO.C,D312*%
X254550000Y-117650000D03*
X254550000Y-114350000D03*
%TD*%
%TO.C,D306*%
X254550000Y-89150000D03*
X254550000Y-85850000D03*
%TD*%
D21*
%TO.C,C114*%
X180575000Y-101600000D03*
X179025000Y-101600000D03*
%TD*%
D22*
%TO.C,D303*%
X197550000Y-89150000D03*
X197550000Y-85850000D03*
%TD*%
D30*
%TO.C,C219*%
X166600000Y-155250000D03*
X168150000Y-155250000D03*
%TD*%
D22*
%TO.C,D309*%
X197550000Y-117650000D03*
X197550000Y-114350000D03*
%TD*%
%TO.C,D313*%
X154800000Y-136650000D03*
X154800000Y-133350000D03*
%TD*%
D30*
%TO.C,C231*%
X185600000Y-193250000D03*
X187150000Y-193250000D03*
%TD*%
%TO.C,C223*%
X247350000Y-155250000D03*
X248900000Y-155250000D03*
%TD*%
D22*
%TO.C,D311*%
X235550000Y-117650000D03*
X235550000Y-114350000D03*
%TD*%
%TO.C,D333*%
X235550000Y-193650000D03*
X235550000Y-190350000D03*
%TD*%
D36*
%TO.C,SW101*%
X229750000Y-97900100D03*
X221550000Y-97900100D03*
%TD*%
D22*
%TO.C,D318*%
X254550000Y-146150000D03*
X254550000Y-142850000D03*
%TD*%
D30*
%TO.C,C230*%
X166600000Y-193250000D03*
X168150000Y-193250000D03*
%TD*%
D31*
%TO.C,C104*%
X190850000Y-102925000D03*
X190850000Y-104475000D03*
%TD*%
D30*
%TO.C,C201*%
X166600000Y-88750000D03*
X168150000Y-88750000D03*
%TD*%
D22*
%TO.C,D304*%
X216550000Y-89150000D03*
X216550000Y-85850000D03*
%TD*%
%TO.C,D301*%
X154800000Y-89150000D03*
X154800000Y-85850000D03*
%TD*%
D30*
%TO.C,C207*%
X166600000Y-117250000D03*
X168150000Y-117250000D03*
%TD*%
D37*
%TO.C,U105*%
X200225000Y-97555000D03*
X200225000Y-96285000D03*
X200225000Y-95015000D03*
X200225000Y-93745000D03*
X205175000Y-93745000D03*
X205175000Y-95015000D03*
X205175000Y-96285000D03*
X205175000Y-97555000D03*
%TD*%
D30*
%TO.C,C214*%
X185600000Y-136250000D03*
X187150000Y-136250000D03*
%TD*%
%TO.C,C204*%
X228350000Y-88750000D03*
X229900000Y-88750000D03*
%TD*%
%TO.C,C221*%
X209350000Y-155250000D03*
X210900000Y-155250000D03*
%TD*%
D22*
%TO.C,D325*%
X173800000Y-174650000D03*
X173800000Y-171350000D03*
%TD*%
D30*
%TO.C,C217*%
X247350000Y-136250000D03*
X248900000Y-136250000D03*
%TD*%
D22*
%TO.C,D328*%
X235550000Y-174650000D03*
X235550000Y-171350000D03*
%TD*%
D30*
%TO.C,C211*%
X247350000Y-117250000D03*
X248900000Y-117250000D03*
%TD*%
%TO.C,C210*%
X228350000Y-117250000D03*
X229900000Y-117250000D03*
%TD*%
%TO.C,C226*%
X209350000Y-174250000D03*
X210900000Y-174250000D03*
%TD*%
D28*
%TO.C,R102*%
X189975000Y-76550000D03*
X189975000Y-78200000D03*
%TD*%
D22*
%TO.C,D329*%
X254550000Y-184150000D03*
X254550000Y-180850000D03*
%TD*%
D30*
%TO.C,C215*%
X209350000Y-136250000D03*
X210900000Y-136250000D03*
%TD*%
D38*
%TO.C,R103*%
X202950000Y-100925000D03*
X202950000Y-99275000D03*
%TD*%
D22*
%TO.C,D327*%
X216550000Y-174650000D03*
X216550000Y-171350000D03*
%TD*%
%TO.C,D315*%
X197550000Y-136650000D03*
X197550000Y-133350000D03*
%TD*%
D30*
%TO.C,C227*%
X228350000Y-174250000D03*
X229900000Y-174250000D03*
%TD*%
D38*
%TO.C,R108*%
X194100000Y-104525000D03*
X194100000Y-102875000D03*
%TD*%
D22*
%TO.C,D310*%
X216550000Y-117650000D03*
X216550000Y-114350000D03*
%TD*%
%TO.C,D330*%
X154800000Y-193650000D03*
X154800000Y-190350000D03*
%TD*%
D39*
%TO.C,SW102*%
X170350000Y-95449900D03*
X178550000Y-95449900D03*
%TD*%
D29*
%TO.C,C102*%
X180300000Y-92525000D03*
X180300000Y-90975000D03*
%TD*%
D30*
%TO.C,C220*%
X185600000Y-155250000D03*
X187150000Y-155250000D03*
%TD*%
%TO.C,C213*%
X166600000Y-136250000D03*
X168150000Y-136250000D03*
%TD*%
D40*
%TO.C,U102*%
X191400000Y-78400000D03*
D41*
X191400000Y-76700000D03*
X193400000Y-76700000D03*
X193400000Y-78600000D03*
%TD*%
D30*
%TO.C,C218*%
X266350000Y-145750000D03*
X267900000Y-145750000D03*
%TD*%
D22*
%TO.C,D324*%
X154800000Y-174650000D03*
X154800000Y-171350000D03*
%TD*%
D31*
%TO.C,C119*%
X194650000Y-107775000D03*
X194650000Y-109325000D03*
%TD*%
D22*
%TO.C,D307*%
X154800000Y-117650000D03*
X154800000Y-114350000D03*
%TD*%
%TO.C,D322*%
X216550000Y-155650000D03*
X216550000Y-152350000D03*
%TD*%
D38*
%TO.C,R107*%
X201300000Y-100925000D03*
X201300000Y-99275000D03*
%TD*%
D42*
%TO.C,R104*%
X178850000Y-98650000D03*
X177200000Y-98650000D03*
%TD*%
D30*
%TO.C,C216*%
X228350000Y-136250000D03*
X229900000Y-136250000D03*
%TD*%
%TO.C,C202*%
X185600000Y-88750000D03*
X187150000Y-88750000D03*
%TD*%
%TO.C,C206*%
X266350000Y-88750000D03*
X267900000Y-88750000D03*
%TD*%
D28*
%TO.C,R105*%
X191850000Y-88925000D03*
X191850000Y-90575000D03*
%TD*%
D22*
%TO.C,D320*%
X173800000Y-155650000D03*
X173800000Y-152350000D03*
%TD*%
D31*
%TO.C,C118*%
X194600000Y-116325000D03*
X194600000Y-117875000D03*
%TD*%
D21*
%TO.C,C109*%
X187175000Y-98700000D03*
X185625000Y-98700000D03*
%TD*%
D30*
%TO.C,C232*%
X218850000Y-193250000D03*
X220400000Y-193250000D03*
%TD*%
M02*
