M48
INCH
T1C0.0256
T2C0.0689
T3C0.1201
T4C0.1575
T5C0.2362
%
G90
G05
T1
X7.4797Y-2.8713
X7.7073Y-2.8713
T2
X6.178Y-3.2874
X6.178Y-4.4094
X6.178Y-5.1575
X6.178Y-5.9055
X6.178Y-6.6535
X6.178Y-7.4016
X6.578Y-3.2874
X6.578Y-4.4094
X6.578Y-5.1575
X6.578Y-5.9055
X6.578Y-6.6535
X6.578Y-7.4016
X6.926Y-3.2874
X6.926Y-4.4094
X6.926Y-5.1575
X6.926Y-5.9055
X6.926Y-6.6535
X6.926Y-7.4016
X7.326Y-3.2874
X7.326Y-4.4094
X7.326Y-5.1575
X7.326Y-5.9055
X7.326Y-6.6535
X7.326Y-7.4016
X7.861Y-3.2874
X7.861Y-4.4094
X7.861Y-5.1575
X7.861Y-5.9055
X7.861Y-6.6535
X8.235Y-7.4016
X8.261Y-3.2874
X8.261Y-4.4094
X8.261Y-5.1575
X8.261Y-5.9055
X8.261Y-6.6535
X8.6091Y-3.2874
X8.6091Y-4.4094
X8.6091Y-5.1575
X8.6091Y-5.9055
X8.6091Y-6.6535
X8.635Y-7.4016
X9.0091Y-3.2874
X9.0091Y-4.4094
X9.0091Y-5.1575
X9.0091Y-5.9055
X9.0091Y-6.6535
X9.3571Y-3.2874
X9.3571Y-4.4094
X9.3571Y-5.1575
X9.3571Y-5.9055
X9.3571Y-6.6535
X9.3571Y-7.4016
X9.7571Y-3.2874
X9.7571Y-4.4094
X9.7571Y-5.1575
X9.7571Y-5.9055
X9.7571Y-6.6535
X9.7571Y-7.4016
X10.1051Y-3.2874
X10.1051Y-4.4094
X10.1051Y-5.5315
X10.1051Y-7.0276
X10.5051Y-3.2874
X10.5051Y-4.4094
X10.5051Y-5.5315
X10.5051Y-7.0276
T3
X6.228Y-3.1874
X6.228Y-4.3094
X6.228Y-5.0575
X6.228Y-5.8055
X6.228Y-6.5535
X6.228Y-7.3016
X6.478Y-3.0874
X6.478Y-4.2094
X6.478Y-4.9575
X6.478Y-5.7055
X6.478Y-6.4535
X6.478Y-7.2016
X6.976Y-3.1874
X6.976Y-4.3094
X6.976Y-5.0575
X6.976Y-5.8055
X6.976Y-6.5535
X6.976Y-7.3016
X7.226Y-3.0874
X7.226Y-4.2094
X7.226Y-4.9575
X7.226Y-5.7055
X7.226Y-6.4535
X7.226Y-7.2016
X7.911Y-3.1874
X7.911Y-4.3094
X7.911Y-5.0575
X7.911Y-5.8055
X7.911Y-6.5535
X8.161Y-3.0874
X8.161Y-4.2094
X8.161Y-4.9575
X8.161Y-5.7055
X8.161Y-6.4535
X8.285Y-7.3016
X8.535Y-7.2016
X8.6591Y-3.1874
X8.6591Y-4.3094
X8.6591Y-5.0575
X8.6591Y-5.8055
X8.6591Y-6.5535
X8.9091Y-3.0874
X8.9091Y-4.2094
X8.9091Y-4.9575
X8.9091Y-5.7055
X8.9091Y-6.4535
X9.4071Y-3.1874
X9.4071Y-4.3094
X9.4071Y-5.0575
X9.4071Y-5.8055
X9.4071Y-6.5535
X9.4071Y-7.3016
X9.6571Y-3.0874
X9.6571Y-4.2094
X9.6571Y-4.9575
X9.6571Y-5.7055
X9.6571Y-6.4535
X9.6571Y-7.2016
X10.1551Y-3.1874
X10.1551Y-4.3094
X10.1551Y-5.4315
X10.1551Y-6.9276
X10.4051Y-3.0874
X10.4051Y-4.2094
X10.4051Y-5.3315
X10.4051Y-6.8276
T4
X6.378Y-3.2874
X6.378Y-4.4094
X6.378Y-5.1575
X6.378Y-5.9055
X6.378Y-6.6535
X6.378Y-7.4016
X7.126Y-3.2874
X7.126Y-4.4094
X7.126Y-5.1575
X7.126Y-5.9055
X7.126Y-6.6535
X7.126Y-7.4016
X8.061Y-3.2874
X8.061Y-4.4094
X8.061Y-5.1575
X8.061Y-5.9055
X8.061Y-6.6535
X8.435Y-7.4016
X8.8091Y-3.2874
X8.8091Y-4.4094
X8.8091Y-5.1575
X8.8091Y-5.9055
X8.8091Y-6.6535
X9.5571Y-3.2874
X9.5571Y-4.4094
X9.5571Y-5.1575
X9.5571Y-5.9055
X9.5571Y-6.6535
X9.5571Y-7.4016
X10.3051Y-3.2874
X10.3051Y-4.4094
X10.3051Y-5.5315
X10.3051Y-7.0276
T5
X6.378Y-3.8484
X7.5935Y-5.9055
X7.5935Y-7.4016
X8.435Y-3.8484
X10.3051Y-3.8484
T0
M30
