%TF.GenerationSoftware,KiCad,Pcbnew,7.0.5-0*%
%TF.CreationDate,2023-08-05T16:24:15-05:00*%
%TF.ProjectId,Plate,506c6174-652e-46b6-9963-61645f706362,0*%
%TF.SameCoordinates,Original*%
%TF.FileFunction,Legend,Bot*%
%TF.FilePolarity,Positive*%
%FSLAX46Y46*%
G04 Gerber Fmt 4.6, Leading zero omitted, Abs format (unit mm)*
G04 Created by KiCad (PCBNEW 7.0.5-0) date 2023-08-05 16:24:15*
%MOMM*%
%LPD*%
G01*
G04 APERTURE LIST*
%ADD10C,0.300000*%
%ADD11C,0.600000*%
%ADD12C,2.900000*%
G04 APERTURE END LIST*
D10*
X184883584Y-60799638D02*
X185550251Y-59847257D01*
X186026441Y-60799638D02*
X186026441Y-58799638D01*
X186026441Y-58799638D02*
X185264536Y-58799638D01*
X185264536Y-58799638D02*
X185074060Y-58894876D01*
X185074060Y-58894876D02*
X184978822Y-58990114D01*
X184978822Y-58990114D02*
X184883584Y-59180590D01*
X184883584Y-59180590D02*
X184883584Y-59466304D01*
X184883584Y-59466304D02*
X184978822Y-59656780D01*
X184978822Y-59656780D02*
X185074060Y-59752019D01*
X185074060Y-59752019D02*
X185264536Y-59847257D01*
X185264536Y-59847257D02*
X186026441Y-59847257D01*
X183264536Y-60704400D02*
X183455012Y-60799638D01*
X183455012Y-60799638D02*
X183835965Y-60799638D01*
X183835965Y-60799638D02*
X184026441Y-60704400D01*
X184026441Y-60704400D02*
X184121679Y-60513923D01*
X184121679Y-60513923D02*
X184121679Y-59752019D01*
X184121679Y-59752019D02*
X184026441Y-59561542D01*
X184026441Y-59561542D02*
X183835965Y-59466304D01*
X183835965Y-59466304D02*
X183455012Y-59466304D01*
X183455012Y-59466304D02*
X183264536Y-59561542D01*
X183264536Y-59561542D02*
X183169298Y-59752019D01*
X183169298Y-59752019D02*
X183169298Y-59942495D01*
X183169298Y-59942495D02*
X184121679Y-60132971D01*
X182502631Y-59466304D02*
X182026441Y-60799638D01*
X182026441Y-60799638D02*
X181550250Y-59466304D01*
X180788345Y-60609161D02*
X180693107Y-60704400D01*
X180693107Y-60704400D02*
X180788345Y-60799638D01*
X180788345Y-60799638D02*
X180883583Y-60704400D01*
X180883583Y-60704400D02*
X180788345Y-60609161D01*
X180788345Y-60609161D02*
X180788345Y-60799638D01*
X180788345Y-59561542D02*
X180693107Y-59656780D01*
X180693107Y-59656780D02*
X180788345Y-59752019D01*
X180788345Y-59752019D02*
X180883583Y-59656780D01*
X180883583Y-59656780D02*
X180788345Y-59561542D01*
X180788345Y-59561542D02*
X180788345Y-59752019D01*
X177931202Y-58799638D02*
X177740725Y-58799638D01*
X177740725Y-58799638D02*
X177550249Y-58894876D01*
X177550249Y-58894876D02*
X177455011Y-58990114D01*
X177455011Y-58990114D02*
X177359773Y-59180590D01*
X177359773Y-59180590D02*
X177264535Y-59561542D01*
X177264535Y-59561542D02*
X177264535Y-60037733D01*
X177264535Y-60037733D02*
X177359773Y-60418685D01*
X177359773Y-60418685D02*
X177455011Y-60609161D01*
X177455011Y-60609161D02*
X177550249Y-60704400D01*
X177550249Y-60704400D02*
X177740725Y-60799638D01*
X177740725Y-60799638D02*
X177931202Y-60799638D01*
X177931202Y-60799638D02*
X178121678Y-60704400D01*
X178121678Y-60704400D02*
X178216916Y-60609161D01*
X178216916Y-60609161D02*
X178312154Y-60418685D01*
X178312154Y-60418685D02*
X178407392Y-60037733D01*
X178407392Y-60037733D02*
X178407392Y-59561542D01*
X178407392Y-59561542D02*
X178312154Y-59180590D01*
X178312154Y-59180590D02*
X178216916Y-58990114D01*
X178216916Y-58990114D02*
X178121678Y-58894876D01*
X178121678Y-58894876D02*
X177931202Y-58799638D01*
X186026441Y-64019638D02*
X186026441Y-62019638D01*
X186026441Y-62019638D02*
X185550251Y-62019638D01*
X185550251Y-62019638D02*
X185264536Y-62114876D01*
X185264536Y-62114876D02*
X185074060Y-62305352D01*
X185074060Y-62305352D02*
X184978822Y-62495828D01*
X184978822Y-62495828D02*
X184883584Y-62876780D01*
X184883584Y-62876780D02*
X184883584Y-63162495D01*
X184883584Y-63162495D02*
X184978822Y-63543447D01*
X184978822Y-63543447D02*
X185074060Y-63733923D01*
X185074060Y-63733923D02*
X185264536Y-63924400D01*
X185264536Y-63924400D02*
X185550251Y-64019638D01*
X185550251Y-64019638D02*
X186026441Y-64019638D01*
X183264536Y-63924400D02*
X183455012Y-64019638D01*
X183455012Y-64019638D02*
X183835965Y-64019638D01*
X183835965Y-64019638D02*
X184026441Y-63924400D01*
X184026441Y-63924400D02*
X184121679Y-63733923D01*
X184121679Y-63733923D02*
X184121679Y-62972019D01*
X184121679Y-62972019D02*
X184026441Y-62781542D01*
X184026441Y-62781542D02*
X183835965Y-62686304D01*
X183835965Y-62686304D02*
X183455012Y-62686304D01*
X183455012Y-62686304D02*
X183264536Y-62781542D01*
X183264536Y-62781542D02*
X183169298Y-62972019D01*
X183169298Y-62972019D02*
X183169298Y-63162495D01*
X183169298Y-63162495D02*
X184121679Y-63352971D01*
X182407393Y-63924400D02*
X182216917Y-64019638D01*
X182216917Y-64019638D02*
X181835965Y-64019638D01*
X181835965Y-64019638D02*
X181645488Y-63924400D01*
X181645488Y-63924400D02*
X181550250Y-63733923D01*
X181550250Y-63733923D02*
X181550250Y-63638685D01*
X181550250Y-63638685D02*
X181645488Y-63448209D01*
X181645488Y-63448209D02*
X181835965Y-63352971D01*
X181835965Y-63352971D02*
X182121679Y-63352971D01*
X182121679Y-63352971D02*
X182312155Y-63257733D01*
X182312155Y-63257733D02*
X182407393Y-63067257D01*
X182407393Y-63067257D02*
X182407393Y-62972019D01*
X182407393Y-62972019D02*
X182312155Y-62781542D01*
X182312155Y-62781542D02*
X182121679Y-62686304D01*
X182121679Y-62686304D02*
X181835965Y-62686304D01*
X181835965Y-62686304D02*
X181645488Y-62781542D01*
X180693107Y-64019638D02*
X180693107Y-62686304D01*
X180693107Y-62019638D02*
X180788345Y-62114876D01*
X180788345Y-62114876D02*
X180693107Y-62210114D01*
X180693107Y-62210114D02*
X180597869Y-62114876D01*
X180597869Y-62114876D02*
X180693107Y-62019638D01*
X180693107Y-62019638D02*
X180693107Y-62210114D01*
X178883583Y-62686304D02*
X178883583Y-64305352D01*
X178883583Y-64305352D02*
X178978821Y-64495828D01*
X178978821Y-64495828D02*
X179074059Y-64591066D01*
X179074059Y-64591066D02*
X179264536Y-64686304D01*
X179264536Y-64686304D02*
X179550250Y-64686304D01*
X179550250Y-64686304D02*
X179740726Y-64591066D01*
X178883583Y-63924400D02*
X179074059Y-64019638D01*
X179074059Y-64019638D02*
X179455012Y-64019638D01*
X179455012Y-64019638D02*
X179645488Y-63924400D01*
X179645488Y-63924400D02*
X179740726Y-63829161D01*
X179740726Y-63829161D02*
X179835964Y-63638685D01*
X179835964Y-63638685D02*
X179835964Y-63067257D01*
X179835964Y-63067257D02*
X179740726Y-62876780D01*
X179740726Y-62876780D02*
X179645488Y-62781542D01*
X179645488Y-62781542D02*
X179455012Y-62686304D01*
X179455012Y-62686304D02*
X179074059Y-62686304D01*
X179074059Y-62686304D02*
X178883583Y-62781542D01*
X177931202Y-62686304D02*
X177931202Y-64019638D01*
X177931202Y-62876780D02*
X177835964Y-62781542D01*
X177835964Y-62781542D02*
X177645488Y-62686304D01*
X177645488Y-62686304D02*
X177359773Y-62686304D01*
X177359773Y-62686304D02*
X177169297Y-62781542D01*
X177169297Y-62781542D02*
X177074059Y-62972019D01*
X177074059Y-62972019D02*
X177074059Y-64019638D01*
X175359773Y-63924400D02*
X175550249Y-64019638D01*
X175550249Y-64019638D02*
X175931202Y-64019638D01*
X175931202Y-64019638D02*
X176121678Y-63924400D01*
X176121678Y-63924400D02*
X176216916Y-63733923D01*
X176216916Y-63733923D02*
X176216916Y-62972019D01*
X176216916Y-62972019D02*
X176121678Y-62781542D01*
X176121678Y-62781542D02*
X175931202Y-62686304D01*
X175931202Y-62686304D02*
X175550249Y-62686304D01*
X175550249Y-62686304D02*
X175359773Y-62781542D01*
X175359773Y-62781542D02*
X175264535Y-62972019D01*
X175264535Y-62972019D02*
X175264535Y-63162495D01*
X175264535Y-63162495D02*
X176216916Y-63352971D01*
X173550249Y-64019638D02*
X173550249Y-62019638D01*
X173550249Y-63924400D02*
X173740725Y-64019638D01*
X173740725Y-64019638D02*
X174121678Y-64019638D01*
X174121678Y-64019638D02*
X174312154Y-63924400D01*
X174312154Y-63924400D02*
X174407392Y-63829161D01*
X174407392Y-63829161D02*
X174502630Y-63638685D01*
X174502630Y-63638685D02*
X174502630Y-63067257D01*
X174502630Y-63067257D02*
X174407392Y-62876780D01*
X174407392Y-62876780D02*
X174312154Y-62781542D01*
X174312154Y-62781542D02*
X174121678Y-62686304D01*
X174121678Y-62686304D02*
X173740725Y-62686304D01*
X173740725Y-62686304D02*
X173550249Y-62781542D01*
X171074058Y-64019638D02*
X171074058Y-62019638D01*
X171074058Y-62781542D02*
X170883582Y-62686304D01*
X170883582Y-62686304D02*
X170502629Y-62686304D01*
X170502629Y-62686304D02*
X170312153Y-62781542D01*
X170312153Y-62781542D02*
X170216915Y-62876780D01*
X170216915Y-62876780D02*
X170121677Y-63067257D01*
X170121677Y-63067257D02*
X170121677Y-63638685D01*
X170121677Y-63638685D02*
X170216915Y-63829161D01*
X170216915Y-63829161D02*
X170312153Y-63924400D01*
X170312153Y-63924400D02*
X170502629Y-64019638D01*
X170502629Y-64019638D02*
X170883582Y-64019638D01*
X170883582Y-64019638D02*
X171074058Y-63924400D01*
X169455010Y-62686304D02*
X168978820Y-64019638D01*
X168502629Y-62686304D02*
X168978820Y-64019638D01*
X168978820Y-64019638D02*
X169169296Y-64495828D01*
X169169296Y-64495828D02*
X169264534Y-64591066D01*
X169264534Y-64591066D02*
X169455010Y-64686304D01*
X166216914Y-64019638D02*
X166216914Y-62019638D01*
X165264533Y-63829161D02*
X165169295Y-63924400D01*
X165169295Y-63924400D02*
X165264533Y-64019638D01*
X165264533Y-64019638D02*
X165359771Y-63924400D01*
X165359771Y-63924400D02*
X165264533Y-63829161D01*
X165264533Y-63829161D02*
X165264533Y-64019638D01*
X161645485Y-64019638D02*
X162312152Y-63067257D01*
X162788342Y-64019638D02*
X162788342Y-62019638D01*
X162788342Y-62019638D02*
X162026437Y-62019638D01*
X162026437Y-62019638D02*
X161835961Y-62114876D01*
X161835961Y-62114876D02*
X161740723Y-62210114D01*
X161740723Y-62210114D02*
X161645485Y-62400590D01*
X161645485Y-62400590D02*
X161645485Y-62686304D01*
X161645485Y-62686304D02*
X161740723Y-62876780D01*
X161740723Y-62876780D02*
X161835961Y-62972019D01*
X161835961Y-62972019D02*
X162026437Y-63067257D01*
X162026437Y-63067257D02*
X162788342Y-63067257D01*
X160026437Y-63924400D02*
X160216913Y-64019638D01*
X160216913Y-64019638D02*
X160597866Y-64019638D01*
X160597866Y-64019638D02*
X160788342Y-63924400D01*
X160788342Y-63924400D02*
X160883580Y-63733923D01*
X160883580Y-63733923D02*
X160883580Y-62972019D01*
X160883580Y-62972019D02*
X160788342Y-62781542D01*
X160788342Y-62781542D02*
X160597866Y-62686304D01*
X160597866Y-62686304D02*
X160216913Y-62686304D01*
X160216913Y-62686304D02*
X160026437Y-62781542D01*
X160026437Y-62781542D02*
X159931199Y-62972019D01*
X159931199Y-62972019D02*
X159931199Y-63162495D01*
X159931199Y-63162495D02*
X160883580Y-63352971D01*
X159264532Y-64019638D02*
X158216913Y-62686304D01*
X159264532Y-62686304D02*
X158216913Y-64019638D01*
D11*
X185590978Y-56356657D02*
X185590978Y-53356657D01*
X185590978Y-53356657D02*
X183876692Y-56356657D01*
X183876692Y-56356657D02*
X183876692Y-53356657D01*
X182448121Y-56356657D02*
X182448121Y-54356657D01*
X182448121Y-53356657D02*
X182590978Y-53499514D01*
X182590978Y-53499514D02*
X182448121Y-53642371D01*
X182448121Y-53642371D02*
X182305264Y-53499514D01*
X182305264Y-53499514D02*
X182448121Y-53356657D01*
X182448121Y-53356657D02*
X182448121Y-53642371D01*
X181448121Y-54356657D02*
X180305264Y-54356657D01*
X181019550Y-56356657D02*
X181019550Y-53785228D01*
X181019550Y-53785228D02*
X180876693Y-53499514D01*
X180876693Y-53499514D02*
X180590978Y-53356657D01*
X180590978Y-53356657D02*
X180305264Y-53356657D01*
X179733835Y-54356657D02*
X178590978Y-54356657D01*
X179305264Y-53356657D02*
X179305264Y-55928085D01*
X179305264Y-55928085D02*
X179162407Y-56213800D01*
X179162407Y-56213800D02*
X178876692Y-56356657D01*
X178876692Y-56356657D02*
X178590978Y-56356657D01*
X177876692Y-54356657D02*
X177162406Y-56356657D01*
X176448121Y-54356657D02*
X177162406Y-56356657D01*
X177162406Y-56356657D02*
X177448121Y-57070942D01*
X177448121Y-57070942D02*
X177590978Y-57213800D01*
X177590978Y-57213800D02*
X177876692Y-57356657D01*
X173019550Y-56356657D02*
X173019550Y-53356657D01*
X173019550Y-53356657D02*
X171305264Y-56356657D01*
X171305264Y-56356657D02*
X171305264Y-53356657D01*
X168590979Y-54356657D02*
X168590979Y-56356657D01*
X169876693Y-54356657D02*
X169876693Y-55928085D01*
X169876693Y-55928085D02*
X169733836Y-56213800D01*
X169733836Y-56213800D02*
X169448121Y-56356657D01*
X169448121Y-56356657D02*
X169019550Y-56356657D01*
X169019550Y-56356657D02*
X168733836Y-56213800D01*
X168733836Y-56213800D02*
X168590979Y-56070942D01*
X167162407Y-56356657D02*
X167162407Y-54356657D01*
X167162407Y-54642371D02*
X167019550Y-54499514D01*
X167019550Y-54499514D02*
X166733835Y-54356657D01*
X166733835Y-54356657D02*
X166305264Y-54356657D01*
X166305264Y-54356657D02*
X166019550Y-54499514D01*
X166019550Y-54499514D02*
X165876693Y-54785228D01*
X165876693Y-54785228D02*
X165876693Y-56356657D01*
X165876693Y-54785228D02*
X165733835Y-54499514D01*
X165733835Y-54499514D02*
X165448121Y-54356657D01*
X165448121Y-54356657D02*
X165019550Y-54356657D01*
X165019550Y-54356657D02*
X164733835Y-54499514D01*
X164733835Y-54499514D02*
X164590978Y-54785228D01*
X164590978Y-54785228D02*
X164590978Y-56356657D01*
X163162407Y-54356657D02*
X163162407Y-57356657D01*
X163162407Y-54499514D02*
X162876693Y-54356657D01*
X162876693Y-54356657D02*
X162305264Y-54356657D01*
X162305264Y-54356657D02*
X162019550Y-54499514D01*
X162019550Y-54499514D02*
X161876693Y-54642371D01*
X161876693Y-54642371D02*
X161733835Y-54928085D01*
X161733835Y-54928085D02*
X161733835Y-55785228D01*
X161733835Y-55785228D02*
X161876693Y-56070942D01*
X161876693Y-56070942D02*
X162019550Y-56213800D01*
X162019550Y-56213800D02*
X162305264Y-56356657D01*
X162305264Y-56356657D02*
X162876693Y-56356657D01*
X162876693Y-56356657D02*
X163162407Y-56213800D01*
X159162407Y-56356657D02*
X159162407Y-54785228D01*
X159162407Y-54785228D02*
X159305264Y-54499514D01*
X159305264Y-54499514D02*
X159590978Y-54356657D01*
X159590978Y-54356657D02*
X160162407Y-54356657D01*
X160162407Y-54356657D02*
X160448121Y-54499514D01*
X159162407Y-56213800D02*
X159448121Y-56356657D01*
X159448121Y-56356657D02*
X160162407Y-56356657D01*
X160162407Y-56356657D02*
X160448121Y-56213800D01*
X160448121Y-56213800D02*
X160590978Y-55928085D01*
X160590978Y-55928085D02*
X160590978Y-55642371D01*
X160590978Y-55642371D02*
X160448121Y-55356657D01*
X160448121Y-55356657D02*
X160162407Y-55213800D01*
X160162407Y-55213800D02*
X159448121Y-55213800D01*
X159448121Y-55213800D02*
X159162407Y-55070942D01*
X156448121Y-56356657D02*
X156448121Y-53356657D01*
X156448121Y-56213800D02*
X156733835Y-56356657D01*
X156733835Y-56356657D02*
X157305263Y-56356657D01*
X157305263Y-56356657D02*
X157590978Y-56213800D01*
X157590978Y-56213800D02*
X157733835Y-56070942D01*
X157733835Y-56070942D02*
X157876692Y-55785228D01*
X157876692Y-55785228D02*
X157876692Y-54928085D01*
X157876692Y-54928085D02*
X157733835Y-54642371D01*
X157733835Y-54642371D02*
X157590978Y-54499514D01*
X157590978Y-54499514D02*
X157305263Y-54356657D01*
X157305263Y-54356657D02*
X156733835Y-54356657D01*
X156733835Y-54356657D02*
X156448121Y-54499514D01*
X151733835Y-54785228D02*
X152733835Y-54785228D01*
X152733835Y-56356657D02*
X152733835Y-53356657D01*
X152733835Y-53356657D02*
X151305263Y-53356657D01*
X148448120Y-56356657D02*
X149448120Y-54928085D01*
X150162406Y-56356657D02*
X150162406Y-53356657D01*
X150162406Y-53356657D02*
X149019549Y-53356657D01*
X149019549Y-53356657D02*
X148733834Y-53499514D01*
X148733834Y-53499514D02*
X148590977Y-53642371D01*
X148590977Y-53642371D02*
X148448120Y-53928085D01*
X148448120Y-53928085D02*
X148448120Y-54356657D01*
X148448120Y-54356657D02*
X148590977Y-54642371D01*
X148590977Y-54642371D02*
X148733834Y-54785228D01*
X148733834Y-54785228D02*
X149019549Y-54928085D01*
X149019549Y-54928085D02*
X150162406Y-54928085D01*
X145876692Y-54356657D02*
X145876692Y-56356657D01*
X146590977Y-53213800D02*
X147305263Y-55356657D01*
X147305263Y-55356657D02*
X145448120Y-55356657D01*
X142019549Y-56356657D02*
X142019549Y-53356657D01*
X142019549Y-53356657D02*
X140876692Y-53356657D01*
X140876692Y-53356657D02*
X140590977Y-53499514D01*
X140590977Y-53499514D02*
X140448120Y-53642371D01*
X140448120Y-53642371D02*
X140305263Y-53928085D01*
X140305263Y-53928085D02*
X140305263Y-54356657D01*
X140305263Y-54356657D02*
X140448120Y-54642371D01*
X140448120Y-54642371D02*
X140590977Y-54785228D01*
X140590977Y-54785228D02*
X140876692Y-54928085D01*
X140876692Y-54928085D02*
X142019549Y-54928085D01*
X138590977Y-56356657D02*
X138876692Y-56213800D01*
X138876692Y-56213800D02*
X139019549Y-55928085D01*
X139019549Y-55928085D02*
X139019549Y-53356657D01*
X136162406Y-56356657D02*
X136162406Y-54785228D01*
X136162406Y-54785228D02*
X136305263Y-54499514D01*
X136305263Y-54499514D02*
X136590977Y-54356657D01*
X136590977Y-54356657D02*
X137162406Y-54356657D01*
X137162406Y-54356657D02*
X137448120Y-54499514D01*
X136162406Y-56213800D02*
X136448120Y-56356657D01*
X136448120Y-56356657D02*
X137162406Y-56356657D01*
X137162406Y-56356657D02*
X137448120Y-56213800D01*
X137448120Y-56213800D02*
X137590977Y-55928085D01*
X137590977Y-55928085D02*
X137590977Y-55642371D01*
X137590977Y-55642371D02*
X137448120Y-55356657D01*
X137448120Y-55356657D02*
X137162406Y-55213800D01*
X137162406Y-55213800D02*
X136448120Y-55213800D01*
X136448120Y-55213800D02*
X136162406Y-55070942D01*
X135162405Y-54356657D02*
X134019548Y-54356657D01*
X134733834Y-53356657D02*
X134733834Y-55928085D01*
X134733834Y-55928085D02*
X134590977Y-56213800D01*
X134590977Y-56213800D02*
X134305262Y-56356657D01*
X134305262Y-56356657D02*
X134019548Y-56356657D01*
X131876691Y-56213800D02*
X132162405Y-56356657D01*
X132162405Y-56356657D02*
X132733834Y-56356657D01*
X132733834Y-56356657D02*
X133019548Y-56213800D01*
X133019548Y-56213800D02*
X133162405Y-55928085D01*
X133162405Y-55928085D02*
X133162405Y-54785228D01*
X133162405Y-54785228D02*
X133019548Y-54499514D01*
X133019548Y-54499514D02*
X132733834Y-54356657D01*
X132733834Y-54356657D02*
X132162405Y-54356657D01*
X132162405Y-54356657D02*
X131876691Y-54499514D01*
X131876691Y-54499514D02*
X131733834Y-54785228D01*
X131733834Y-54785228D02*
X131733834Y-55070942D01*
X131733834Y-55070942D02*
X133162405Y-55356657D01*
%LPC*%
D12*
%TO.C,H105*%
X121875000Y-149000000D03*
%TD*%
%TO.C,H104*%
X121875000Y-111000000D03*
%TD*%
%TO.C,H103*%
X190750000Y-58750000D03*
%TD*%
%TO.C,H102*%
X143250000Y-58750000D03*
%TD*%
%TO.C,H101*%
X91000000Y-58750000D03*
%TD*%
%LPD*%
M02*
